<svg width="412" height="917" viewBox="0 0 412 917" fill="none" xmlns="http://www.w3.org/2000/svg">
<rect width="412" height="917" fill="white"/>
<rect x="11" y="310" width="380" height="430" rx="29" fill="#D9D9D9"/>
<rect x="116" y="83" width="170" height="89" fill="#D9D9D9"/>
<path d="M98.2273 190.545V208H96.1136V190.545H98.2273ZM102.465 208V190.545H112.931V192.42H104.579V198.318H112.147V200.193H104.579V208H102.465ZM116.551 208V190.545H122.449C123.813 190.545 124.932 190.778 125.807 191.244C126.682 191.705 127.33 192.338 127.75 193.145C128.17 193.952 128.381 194.869 128.381 195.898C128.381 196.926 128.17 197.838 127.75 198.634C127.33 199.429 126.685 200.054 125.815 200.509C124.946 200.957 123.835 201.182 122.483 201.182H117.71V199.273H122.415C123.347 199.273 124.097 199.136 124.665 198.864C125.239 198.591 125.653 198.205 125.909 197.705C126.17 197.199 126.301 196.597 126.301 195.898C126.301 195.199 126.17 194.588 125.909 194.065C125.648 193.543 125.23 193.139 124.656 192.855C124.082 192.565 123.324 192.42 122.381 192.42H118.665V208H116.551ZM124.767 200.159L129.062 208H126.608L122.381 200.159H124.767ZM134.016 190.545V208H131.903V190.545H134.016ZM145.482 198.335V200.21H137.845V198.335H145.482ZM163.339 196H161.225C161.1 195.392 160.881 194.858 160.569 194.398C160.262 193.938 159.887 193.551 159.444 193.239C159.006 192.92 158.521 192.682 157.987 192.523C157.452 192.364 156.896 192.284 156.316 192.284C155.259 192.284 154.302 192.551 153.444 193.085C152.592 193.619 151.913 194.406 151.407 195.446C150.907 196.486 150.657 197.761 150.657 199.273C150.657 200.784 150.907 202.06 151.407 203.099C151.913 204.139 152.592 204.926 153.444 205.46C154.302 205.994 155.259 206.261 156.316 206.261C156.896 206.261 157.452 206.182 157.987 206.023C158.521 205.864 159.006 205.628 159.444 205.315C159.887 204.997 160.262 204.608 160.569 204.148C160.881 203.682 161.1 203.148 161.225 202.545H163.339C163.18 203.437 162.89 204.236 162.469 204.94C162.049 205.645 161.526 206.244 160.901 206.739C160.276 207.227 159.575 207.599 158.796 207.855C158.023 208.111 157.197 208.239 156.316 208.239C154.827 208.239 153.504 207.875 152.344 207.148C151.185 206.42 150.273 205.386 149.609 204.045C148.944 202.705 148.612 201.114 148.612 199.273C148.612 197.432 148.944 195.841 149.609 194.5C150.273 193.159 151.185 192.125 152.344 191.398C153.504 190.67 154.827 190.307 156.316 190.307C157.197 190.307 158.023 190.435 158.796 190.69C159.575 190.946 160.276 191.321 160.901 191.815C161.526 192.304 162.049 192.901 162.469 193.605C162.89 194.304 163.18 195.102 163.339 196ZM181.482 199.273C181.482 201.114 181.149 202.705 180.484 204.045C179.82 205.386 178.908 206.42 177.749 207.148C176.589 207.875 175.266 208.239 173.777 208.239C172.288 208.239 170.964 207.875 169.805 207.148C168.646 206.42 167.734 205.386 167.07 204.045C166.405 202.705 166.072 201.114 166.072 199.273C166.072 197.432 166.405 195.841 167.07 194.5C167.734 193.159 168.646 192.125 169.805 191.398C170.964 190.67 172.288 190.307 173.777 190.307C175.266 190.307 176.589 190.67 177.749 191.398C178.908 192.125 179.82 193.159 180.484 194.5C181.149 195.841 181.482 197.432 181.482 199.273ZM179.436 199.273C179.436 197.761 179.183 196.486 178.678 195.446C178.178 194.406 177.499 193.619 176.641 193.085C175.788 192.551 174.834 192.284 173.777 192.284C172.72 192.284 171.763 192.551 170.905 193.085C170.053 193.619 169.374 194.406 168.868 195.446C168.368 196.486 168.118 197.761 168.118 199.273C168.118 200.784 168.368 202.06 168.868 203.099C169.374 204.139 170.053 204.926 170.905 205.46C171.763 205.994 172.72 206.261 173.777 206.261C174.834 206.261 175.788 205.994 176.641 205.46C177.499 204.926 178.178 204.139 178.678 203.099C179.183 202.06 179.436 200.784 179.436 199.273ZM185.036 190.545H187.558L193.49 205.034H193.695L199.626 190.545H202.149V208H200.172V194.739H200.001L194.547 208H192.638L187.183 194.739H187.013V208H185.036V190.545ZM221.114 199.273C221.114 201.114 220.782 202.705 220.117 204.045C219.452 205.386 218.54 206.42 217.381 207.148C216.222 207.875 214.898 208.239 213.41 208.239C211.921 208.239 210.597 207.875 209.438 207.148C208.279 206.42 207.367 205.386 206.702 204.045C206.038 202.705 205.705 201.114 205.705 199.273C205.705 197.432 206.038 195.841 206.702 194.5C207.367 193.159 208.279 192.125 209.438 191.398C210.597 190.67 211.921 190.307 213.41 190.307C214.898 190.307 216.222 190.67 217.381 191.398C218.54 192.125 219.452 193.159 220.117 194.5C220.782 195.841 221.114 197.432 221.114 199.273ZM219.069 199.273C219.069 197.761 218.816 196.486 218.31 195.446C217.81 194.406 217.131 193.619 216.273 193.085C215.421 192.551 214.467 192.284 213.41 192.284C212.353 192.284 211.396 192.551 210.538 193.085C209.685 193.619 209.006 194.406 208.501 195.446C208.001 196.486 207.751 197.761 207.751 199.273C207.751 200.784 208.001 202.06 208.501 203.099C209.006 204.139 209.685 204.926 210.538 205.46C211.396 205.994 212.353 206.261 213.41 206.261C214.467 206.261 215.421 205.994 216.273 205.46C217.131 204.926 217.81 204.139 218.31 203.099C218.816 202.06 219.069 200.784 219.069 199.273ZM222.987 192.42V190.545H236.078V192.42H230.589V208H228.476V192.42H222.987ZM253.341 199.273C253.341 201.114 253.009 202.705 252.344 204.045C251.679 205.386 250.767 206.42 249.608 207.148C248.449 207.875 247.125 208.239 245.636 208.239C244.148 208.239 242.824 207.875 241.665 207.148C240.506 206.42 239.594 205.386 238.929 204.045C238.264 202.705 237.932 201.114 237.932 199.273C237.932 197.432 238.264 195.841 238.929 194.5C239.594 193.159 240.506 192.125 241.665 191.398C242.824 190.67 244.148 190.307 245.636 190.307C247.125 190.307 248.449 190.67 249.608 191.398C250.767 192.125 251.679 193.159 252.344 194.5C253.009 195.841 253.341 197.432 253.341 199.273ZM251.295 199.273C251.295 197.761 251.043 196.486 250.537 195.446C250.037 194.406 249.358 193.619 248.5 193.085C247.648 192.551 246.693 192.284 245.636 192.284C244.58 192.284 243.622 192.551 242.764 193.085C241.912 193.619 241.233 194.406 240.727 195.446C240.227 196.486 239.977 197.761 239.977 199.273C239.977 200.784 240.227 202.06 240.727 203.099C241.233 204.139 241.912 204.926 242.764 205.46C243.622 205.994 244.58 206.261 245.636 206.261C246.693 206.261 247.648 205.994 248.5 205.46C249.358 204.926 250.037 204.139 250.537 203.099C251.043 202.06 251.295 200.784 251.295 199.273ZM256.895 208V190.545H262.793C264.156 190.545 265.276 190.778 266.151 191.244C267.026 191.705 267.673 192.338 268.094 193.145C268.514 193.952 268.724 194.869 268.724 195.898C268.724 196.926 268.514 197.838 268.094 198.634C267.673 199.429 267.028 200.054 266.159 200.509C265.29 200.957 264.179 201.182 262.827 201.182H258.054V199.273H262.759C263.69 199.273 264.44 199.136 265.009 198.864C265.582 198.591 265.997 198.205 266.253 197.705C266.514 197.199 266.645 196.597 266.645 195.898C266.645 195.199 266.514 194.588 266.253 194.065C265.991 193.543 265.574 193.139 265 192.855C264.426 192.565 263.668 192.42 262.724 192.42H259.009V208H256.895ZM265.111 200.159L269.406 208H266.952L262.724 200.159H265.111ZM272.962 208H270.746L277.156 190.545H279.337L285.746 208H283.531L278.315 193.307H278.178L272.962 208ZM273.781 201.182H282.712V203.057H273.781V201.182ZM299.577 196C299.389 195.426 299.142 194.912 298.835 194.457C298.534 193.997 298.173 193.605 297.753 193.281C297.338 192.957 296.866 192.71 296.338 192.54C295.81 192.369 295.23 192.284 294.599 192.284C293.565 192.284 292.625 192.551 291.778 193.085C290.932 193.619 290.259 194.406 289.759 195.446C289.259 196.486 289.009 197.761 289.009 199.273C289.009 200.784 289.261 202.06 289.767 203.099C290.273 204.139 290.957 204.926 291.821 205.46C292.685 205.994 293.656 206.261 294.736 206.261C295.736 206.261 296.616 206.048 297.378 205.622C298.145 205.19 298.741 204.582 299.168 203.798C299.599 203.009 299.815 202.08 299.815 201.011L300.463 201.148H295.213V199.273H301.861V201.148C301.861 202.585 301.554 203.835 300.94 204.898C300.332 205.96 299.491 206.784 298.418 207.369C297.349 207.949 296.122 208.239 294.736 208.239C293.19 208.239 291.832 207.875 290.662 207.148C289.497 206.42 288.588 205.386 287.935 204.045C287.287 202.705 286.963 201.114 286.963 199.273C286.963 197.892 287.148 196.651 287.517 195.548C287.892 194.44 288.42 193.497 289.102 192.719C289.784 191.94 290.591 191.344 291.523 190.929C292.455 190.514 293.48 190.307 294.599 190.307C295.52 190.307 296.378 190.446 297.173 190.724C297.974 190.997 298.688 191.386 299.312 191.892C299.943 192.392 300.469 192.991 300.889 193.69C301.31 194.384 301.599 195.153 301.759 196H299.577ZM305.481 208V190.545H316.015V192.42H307.594V198.318H315.469V200.193H307.594V206.125H316.151V208H305.481Z" fill="black"/>
<path d="M149.159 270H147.045C146.92 269.392 146.702 268.858 146.389 268.398C146.082 267.938 145.707 267.551 145.264 267.239C144.827 266.92 144.341 266.682 143.807 266.523C143.273 266.364 142.716 266.284 142.136 266.284C141.08 266.284 140.122 266.551 139.264 267.085C138.412 267.619 137.733 268.406 137.227 269.446C136.727 270.486 136.477 271.761 136.477 273.273C136.477 274.784 136.727 276.06 137.227 277.099C137.733 278.139 138.412 278.926 139.264 279.46C140.122 279.994 141.08 280.261 142.136 280.261C142.716 280.261 143.273 280.182 143.807 280.023C144.341 279.864 144.827 279.628 145.264 279.315C145.707 278.997 146.082 278.608 146.389 278.148C146.702 277.682 146.92 277.148 147.045 276.545H149.159C149 277.437 148.71 278.236 148.29 278.94C147.869 279.645 147.347 280.244 146.722 280.739C146.097 281.227 145.395 281.599 144.616 281.855C143.844 282.111 143.017 282.239 142.136 282.239C140.648 282.239 139.324 281.875 138.165 281.148C137.006 280.42 136.094 279.386 135.429 278.045C134.764 276.705 134.432 275.114 134.432 273.273C134.432 271.432 134.764 269.841 135.429 268.5C136.094 267.159 137.006 266.125 138.165 265.398C139.324 264.67 140.648 264.307 142.136 264.307C143.017 264.307 143.844 264.435 144.616 264.69C145.395 264.946 146.097 265.321 146.722 265.815C147.347 266.304 147.869 266.901 148.29 267.605C148.71 268.304 149 269.102 149.159 270ZM167.302 273.273C167.302 275.114 166.969 276.705 166.305 278.045C165.64 279.386 164.728 280.42 163.569 281.148C162.41 281.875 161.086 282.239 159.597 282.239C158.109 282.239 156.785 281.875 155.626 281.148C154.467 280.42 153.555 279.386 152.89 278.045C152.225 276.705 151.893 275.114 151.893 273.273C151.893 271.432 152.225 269.841 152.89 268.5C153.555 267.159 154.467 266.125 155.626 265.398C156.785 264.67 158.109 264.307 159.597 264.307C161.086 264.307 162.41 264.67 163.569 265.398C164.728 266.125 165.64 267.159 166.305 268.5C166.969 269.841 167.302 271.432 167.302 273.273ZM165.256 273.273C165.256 271.761 165.004 270.486 164.498 269.446C163.998 268.406 163.319 267.619 162.461 267.085C161.609 266.551 160.654 266.284 159.597 266.284C158.54 266.284 157.583 266.551 156.725 267.085C155.873 267.619 155.194 268.406 154.688 269.446C154.188 270.486 153.938 271.761 153.938 273.273C153.938 274.784 154.188 276.06 154.688 277.099C155.194 278.139 155.873 278.926 156.725 279.46C157.583 279.994 158.54 280.261 159.597 280.261C160.654 280.261 161.609 279.994 162.461 279.46C163.319 278.926 163.998 278.139 164.498 277.099C165.004 276.06 165.256 274.784 165.256 273.273ZM184.697 264.545V282H182.651L173.14 268.295H172.969V282H170.856V264.545H172.901L182.447 278.284H182.617V264.545H184.697ZM202.767 264.545V282H200.722L191.21 268.295H191.04V282H188.926V264.545H190.972L200.517 278.284H200.688V264.545H202.767ZM206.996 282V264.545H217.531V266.42H209.11V272.318H216.985V274.193H209.11V280.125H217.667V282H206.996ZM222.363 264.545L226.863 271.807H226.999L231.499 264.545H233.988L228.499 273.273L233.988 282H231.499L226.999 274.875H226.863L222.363 282H219.874L225.499 273.273L219.874 264.545H222.363ZM238.852 264.545V282H236.739V264.545H238.852ZM257.817 273.273C257.817 275.114 257.485 276.705 256.82 278.045C256.156 279.386 255.244 280.42 254.085 281.148C252.925 281.875 251.602 282.239 250.113 282.239C248.624 282.239 247.3 281.875 246.141 281.148C244.982 280.42 244.07 279.386 243.406 278.045C242.741 276.705 242.408 275.114 242.408 273.273C242.408 271.432 242.741 269.841 243.406 268.5C244.07 267.159 244.982 266.125 246.141 265.398C247.3 264.67 248.624 264.307 250.113 264.307C251.602 264.307 252.925 264.67 254.085 265.398C255.244 266.125 256.156 267.159 256.82 268.5C257.485 269.841 257.817 271.432 257.817 273.273ZM255.772 273.273C255.772 271.761 255.519 270.486 255.013 269.446C254.513 268.406 253.835 267.619 252.977 267.085C252.124 266.551 251.17 266.284 250.113 266.284C249.056 266.284 248.099 266.551 247.241 267.085C246.388 267.619 245.71 268.406 245.204 269.446C244.704 270.486 244.454 271.761 244.454 273.273C244.454 274.784 244.704 276.06 245.204 277.099C245.71 278.139 246.388 278.926 247.241 279.46C248.099 279.994 249.056 280.261 250.113 280.261C251.17 280.261 252.124 279.994 252.977 279.46C253.835 278.926 254.513 278.139 255.013 277.099C255.519 276.06 255.772 274.784 255.772 273.273ZM275.212 264.545V282H273.167L263.656 268.295H263.485V282H261.371V264.545H263.417L272.962 278.284H273.133V264.545H275.212Z" fill="black"/>
<path d="M49.7614 432.455H51.8636L56.8068 444.528H56.9773L61.9205 432.455H64.0227V447H62.375V435.949H62.233L57.6875 447H56.0966L51.5511 435.949H51.4091V447H49.7614V432.455ZM71.7589 447.227C70.774 447.227 69.9099 446.993 69.1665 446.524C68.4279 446.055 67.8503 445.4 67.4336 444.557C67.0217 443.714 66.8157 442.729 66.8157 441.602C66.8157 440.466 67.0217 439.474 67.4336 438.626C67.8503 437.779 68.4279 437.121 69.1665 436.652C69.9099 436.183 70.774 435.949 71.7589 435.949C72.7437 435.949 73.6055 436.183 74.3441 436.652C75.0875 437.121 75.6651 437.779 76.0771 438.626C76.4937 439.474 76.7021 440.466 76.7021 441.602C76.7021 442.729 76.4937 443.714 76.0771 444.557C75.6651 445.4 75.0875 446.055 74.3441 446.524C73.6055 446.993 72.7437 447.227 71.7589 447.227ZM71.7589 445.722C72.507 445.722 73.1225 445.53 73.6055 445.146C74.0884 444.763 74.4459 444.259 74.6779 443.634C74.9099 443.009 75.0259 442.331 75.0259 441.602C75.0259 440.873 74.9099 440.194 74.6779 439.564C74.4459 438.934 74.0884 438.425 73.6055 438.037C73.1225 437.649 72.507 437.455 71.7589 437.455C71.0108 437.455 70.3952 437.649 69.9123 438.037C69.4293 438.425 69.0719 438.934 68.8398 439.564C68.6078 440.194 68.4918 440.873 68.4918 441.602C68.4918 442.331 68.6078 443.009 68.8398 443.634C69.0719 444.259 69.4293 444.763 69.9123 445.146C70.3952 445.53 71.0108 445.722 71.7589 445.722ZM84.005 436.091V437.511H78.3516V436.091H84.005ZM79.9993 433.477H81.6754V443.875C81.6754 444.348 81.7441 444.704 81.8814 444.94C82.0234 445.172 82.2034 445.329 82.4212 445.409C82.6437 445.485 82.8781 445.523 83.1243 445.523C83.3089 445.523 83.4605 445.513 83.5788 445.494C83.6972 445.471 83.7919 445.452 83.8629 445.438L84.2038 446.943C84.0902 446.986 83.9316 447.028 83.728 447.071C83.5244 447.118 83.2663 447.142 82.9538 447.142C82.4804 447.142 82.0163 447.04 81.5618 446.837C81.112 446.633 80.7379 446.323 80.4396 445.906C80.1461 445.49 79.9993 444.964 79.9993 444.33V433.477ZM96.2706 447.227C95.3615 447.227 94.5589 446.998 93.8629 446.538C93.1669 446.074 92.6224 445.421 92.2294 444.578C91.8364 443.731 91.6399 442.729 91.6399 441.574C91.6399 440.428 91.8364 439.434 92.2294 438.591C92.6224 437.748 93.1693 437.097 93.87 436.638C94.5708 436.179 95.3804 435.949 96.299 435.949C97.0092 435.949 97.5703 436.067 97.9822 436.304C98.3989 436.536 98.7161 436.801 98.9339 437.099C99.1565 437.393 99.3293 437.634 99.4524 437.824H99.5945V432.455H101.271V447H99.6513V445.324H99.4524C99.3293 445.523 99.1541 445.774 98.9268 446.077C98.6996 446.375 98.3752 446.643 97.9538 446.879C97.5324 447.111 96.9714 447.227 96.2706 447.227ZM96.4979 445.722C97.1702 445.722 97.7384 445.546 98.2024 445.196C98.6664 444.841 99.0192 444.351 99.2607 443.726C99.5021 443.096 99.6229 442.369 99.6229 441.545C99.6229 440.731 99.5045 440.018 99.2678 439.408C99.031 438.792 98.6806 438.314 98.2166 437.973C97.7526 437.627 97.1797 437.455 96.4979 437.455C95.7876 437.455 95.1958 437.637 94.7223 438.001C94.2536 438.361 93.9008 438.851 93.6641 439.472C93.4321 440.087 93.3161 440.778 93.3161 441.545C93.3161 442.322 93.4344 443.027 93.6712 443.662C93.9126 444.292 94.2678 444.794 94.7365 445.168C95.21 445.537 95.7971 445.722 96.4979 445.722ZM109.147 447.227C108.096 447.227 107.189 446.995 106.427 446.531C105.669 446.062 105.085 445.409 104.673 444.571C104.265 443.728 104.062 442.748 104.062 441.631C104.062 440.513 104.265 439.528 104.673 438.676C105.085 437.819 105.657 437.152 106.391 436.673C107.13 436.19 107.992 435.949 108.977 435.949C109.545 435.949 110.106 436.044 110.66 436.233C111.214 436.422 111.718 436.73 112.173 437.156C112.627 437.578 112.989 438.136 113.259 438.832C113.529 439.528 113.664 440.385 113.664 441.403V442.114H105.255V440.665H111.96C111.96 440.049 111.836 439.5 111.59 439.017C111.349 438.534 111.003 438.153 110.553 437.874C110.108 437.594 109.583 437.455 108.977 437.455C108.309 437.455 107.731 437.62 107.244 437.952C106.761 438.278 106.389 438.705 106.129 439.23C105.868 439.756 105.738 440.319 105.738 440.92V441.886C105.738 442.71 105.88 443.409 106.164 443.982C106.453 444.55 106.853 444.983 107.364 445.281C107.876 445.575 108.47 445.722 109.147 445.722C109.587 445.722 109.985 445.66 110.34 445.537C110.7 445.409 111.01 445.22 111.271 444.969C111.531 444.713 111.732 444.396 111.874 444.017L113.494 444.472C113.323 445.021 113.037 445.504 112.634 445.92C112.232 446.332 111.735 446.654 111.143 446.886C110.551 447.114 109.886 447.227 109.147 447.227ZM121.839 451.091V436.091H123.458V437.824H123.657C123.78 437.634 123.951 437.393 124.168 437.099C124.391 436.801 124.708 436.536 125.12 436.304C125.537 436.067 126.1 435.949 126.81 435.949C127.729 435.949 128.539 436.179 129.239 436.638C129.94 437.097 130.487 437.748 130.88 438.591C131.273 439.434 131.469 440.428 131.469 441.574C131.469 442.729 131.273 443.731 130.88 444.578C130.487 445.421 129.942 446.074 129.246 446.538C128.55 446.998 127.748 447.227 126.839 447.227C126.138 447.227 125.577 447.111 125.156 446.879C124.734 446.643 124.41 446.375 124.183 446.077C123.955 445.774 123.78 445.523 123.657 445.324H123.515V451.091H121.839ZM123.487 441.545C123.487 442.369 123.607 443.096 123.849 443.726C124.09 444.351 124.443 444.841 124.907 445.196C125.371 445.546 125.939 445.722 126.612 445.722C127.312 445.722 127.897 445.537 128.366 445.168C128.839 444.794 129.194 444.292 129.431 443.662C129.673 443.027 129.793 442.322 129.793 441.545C129.793 440.778 129.675 440.087 129.438 439.472C129.206 438.851 128.853 438.361 128.38 438.001C127.911 437.637 127.322 437.455 126.612 437.455C125.93 437.455 125.357 437.627 124.893 437.973C124.429 438.314 124.078 438.792 123.842 439.408C123.605 440.018 123.487 440.731 123.487 441.545ZM137.237 447.256C136.545 447.256 135.918 447.125 135.354 446.865C134.791 446.6 134.344 446.219 134.012 445.722C133.681 445.22 133.515 444.614 133.515 443.903C133.515 443.278 133.638 442.772 133.884 442.384C134.13 441.991 134.46 441.683 134.871 441.46C135.283 441.238 135.738 441.072 136.235 440.963C136.737 440.849 137.241 440.759 137.748 440.693C138.411 440.608 138.948 440.544 139.36 440.501C139.777 440.454 140.08 440.376 140.269 440.267C140.463 440.158 140.56 439.969 140.56 439.699V439.642C140.56 438.941 140.369 438.397 139.985 438.009C139.606 437.62 139.031 437.426 138.259 437.426C137.459 437.426 136.832 437.601 136.377 437.952C135.923 438.302 135.603 438.676 135.418 439.074L133.827 438.506C134.112 437.843 134.49 437.327 134.964 436.957C135.442 436.583 135.963 436.323 136.526 436.176C137.094 436.025 137.653 435.949 138.202 435.949C138.553 435.949 138.955 435.991 139.41 436.077C139.869 436.157 140.312 436.325 140.738 436.581C141.169 436.837 141.526 437.223 141.81 437.739C142.094 438.255 142.237 438.946 142.237 439.812V447H140.56V445.523H140.475C140.362 445.759 140.172 446.013 139.907 446.283C139.642 446.553 139.289 446.782 138.849 446.972C138.408 447.161 137.871 447.256 137.237 447.256ZM137.492 445.75C138.155 445.75 138.714 445.62 139.168 445.359C139.628 445.099 139.973 444.763 140.205 444.351C140.442 443.939 140.56 443.506 140.56 443.051V441.517C140.489 441.602 140.333 441.68 140.092 441.751C139.855 441.818 139.58 441.877 139.268 441.929C138.96 441.976 138.659 442.019 138.366 442.057C138.077 442.09 137.843 442.118 137.663 442.142C137.227 442.199 136.82 442.291 136.441 442.419C136.067 442.542 135.764 442.729 135.532 442.98C135.305 443.226 135.191 443.562 135.191 443.989C135.191 444.571 135.406 445.011 135.837 445.31C136.273 445.603 136.825 445.75 137.492 445.75ZM153.023 438.534L151.517 438.96C151.423 438.709 151.283 438.465 151.098 438.229C150.918 437.987 150.672 437.788 150.36 437.632C150.047 437.476 149.647 437.398 149.159 437.398C148.492 437.398 147.935 437.552 147.49 437.859C147.05 438.162 146.83 438.548 146.83 439.017C146.83 439.434 146.981 439.763 147.284 440.004C147.587 440.246 148.061 440.447 148.705 440.608L150.324 441.006C151.3 441.242 152.026 441.605 152.505 442.092C152.983 442.575 153.222 443.198 153.222 443.96C153.222 444.585 153.042 445.144 152.682 445.636C152.327 446.129 151.83 446.517 151.191 446.801C150.551 447.085 149.808 447.227 148.961 447.227C147.848 447.227 146.927 446.986 146.198 446.503C145.469 446.02 145.007 445.314 144.813 444.386L146.404 443.989C146.555 444.576 146.842 445.016 147.263 445.31C147.689 445.603 148.246 445.75 148.932 445.75C149.713 445.75 150.334 445.584 150.793 445.253C151.257 444.917 151.489 444.514 151.489 444.045C151.489 443.667 151.356 443.349 151.091 443.094C150.826 442.833 150.419 442.639 149.87 442.511L148.051 442.085C147.052 441.848 146.319 441.482 145.85 440.984C145.386 440.482 145.154 439.855 145.154 439.102C145.154 438.487 145.327 437.942 145.672 437.469C146.023 436.995 146.498 436.624 147.1 436.354C147.706 436.084 148.392 435.949 149.159 435.949C150.239 435.949 151.087 436.186 151.702 436.659C152.322 437.133 152.763 437.758 153.023 438.534ZM163.472 438.534L161.967 438.96C161.872 438.709 161.732 438.465 161.548 438.229C161.368 437.987 161.121 437.788 160.809 437.632C160.496 437.476 160.096 437.398 159.609 437.398C158.941 437.398 158.385 437.552 157.94 437.859C157.499 438.162 157.279 438.548 157.279 439.017C157.279 439.434 157.431 439.763 157.734 440.004C158.037 440.246 158.51 440.447 159.154 440.608L160.773 441.006C161.749 441.242 162.476 441.605 162.954 442.092C163.432 442.575 163.671 443.198 163.671 443.96C163.671 444.585 163.491 445.144 163.131 445.636C162.776 446.129 162.279 446.517 161.64 446.801C161.001 447.085 160.257 447.227 159.41 447.227C158.297 447.227 157.376 446.986 156.647 446.503C155.918 446.02 155.456 445.314 155.262 444.386L156.853 443.989C157.004 444.576 157.291 445.016 157.712 445.31C158.138 445.603 158.695 445.75 159.381 445.75C160.163 445.75 160.783 445.584 161.242 445.253C161.706 444.917 161.938 444.514 161.938 444.045C161.938 443.667 161.806 443.349 161.54 443.094C161.275 442.833 160.868 442.639 160.319 442.511L158.501 442.085C157.502 441.848 156.768 441.482 156.299 440.984C155.835 440.482 155.603 439.855 155.603 439.102C155.603 438.487 155.776 437.942 156.121 437.469C156.472 436.995 156.948 436.624 157.549 436.354C158.155 436.084 158.842 435.949 159.609 435.949C160.688 435.949 161.536 436.186 162.151 436.659C162.772 437.133 163.212 437.758 163.472 438.534ZM170.768 447.227C169.717 447.227 168.81 446.995 168.048 446.531C167.29 446.062 166.706 445.409 166.294 444.571C165.886 443.728 165.683 442.748 165.683 441.631C165.683 440.513 165.886 439.528 166.294 438.676C166.706 437.819 167.279 437.152 168.012 436.673C168.751 436.19 169.613 435.949 170.598 435.949C171.166 435.949 171.727 436.044 172.281 436.233C172.835 436.422 173.339 436.73 173.794 437.156C174.248 437.578 174.61 438.136 174.88 438.832C175.15 439.528 175.285 440.385 175.285 441.403V442.114H166.876V440.665H173.581C173.581 440.049 173.458 439.5 173.211 439.017C172.97 438.534 172.624 438.153 172.174 437.874C171.729 437.594 171.204 437.455 170.598 437.455C169.93 437.455 169.352 437.62 168.865 437.952C168.382 438.278 168.01 438.705 167.75 439.23C167.489 439.756 167.359 440.319 167.359 440.92V441.886C167.359 442.71 167.501 443.409 167.785 443.982C168.074 444.55 168.474 444.983 168.985 445.281C169.497 445.575 170.091 445.722 170.768 445.722C171.208 445.722 171.606 445.66 171.961 445.537C172.321 445.409 172.631 445.22 172.892 444.969C173.152 444.713 173.353 444.396 173.495 444.017L175.115 444.472C174.944 445.021 174.658 445.504 174.255 445.92C173.853 446.332 173.356 446.654 172.764 446.886C172.172 447.114 171.507 447.227 170.768 447.227Z" fill="black"/>
<rect x="50" y="452" width="316" height="51" fill="#FFF9F9"/>
<rect x="48" y="547" width="316" height="51" fill="#6152FF"/>
<g filter="url(#filter0_d_1_2)">
<path d="M139.716 569.091C139.631 568.371 139.285 567.812 138.679 567.415C138.073 567.017 137.33 566.818 136.449 566.818C135.805 566.818 135.241 566.922 134.759 567.131C134.28 567.339 133.906 567.625 133.636 567.99C133.371 568.355 133.239 568.769 133.239 569.233C133.239 569.621 133.331 569.955 133.516 570.234C133.705 570.509 133.946 570.739 134.24 570.923C134.534 571.103 134.841 571.252 135.163 571.371C135.485 571.484 135.781 571.577 136.051 571.648L137.528 572.045C137.907 572.145 138.329 572.282 138.793 572.457C139.261 572.633 139.709 572.872 140.135 573.175C140.566 573.473 140.921 573.857 141.2 574.325C141.48 574.794 141.619 575.369 141.619 576.051C141.619 576.837 141.413 577.547 141.001 578.182C140.594 578.816 139.998 579.321 139.212 579.695C138.43 580.069 137.481 580.256 136.364 580.256C135.322 580.256 134.42 580.088 133.658 579.751C132.9 579.415 132.304 578.946 131.868 578.345C131.437 577.744 131.193 577.045 131.136 576.25H132.955C133.002 576.799 133.187 577.254 133.509 577.614C133.835 577.969 134.247 578.234 134.744 578.409C135.246 578.58 135.786 578.665 136.364 578.665C137.036 578.665 137.64 578.556 138.175 578.338C138.71 578.116 139.134 577.808 139.446 577.415C139.759 577.017 139.915 576.553 139.915 576.023C139.915 575.54 139.78 575.147 139.51 574.844C139.24 574.541 138.885 574.295 138.445 574.105C138.004 573.916 137.528 573.75 137.017 573.608L135.227 573.097C134.091 572.77 133.191 572.304 132.528 571.697C131.866 571.091 131.534 570.298 131.534 569.318C131.534 568.504 131.754 567.794 132.195 567.188C132.64 566.577 133.236 566.103 133.984 565.767C134.737 565.426 135.578 565.256 136.506 565.256C137.443 565.256 138.277 565.424 139.006 565.76C139.735 566.091 140.313 566.546 140.739 567.124C141.17 567.701 141.397 568.357 141.42 569.091H139.716ZM144.515 580V565.455H153.294V567.017H146.277V571.932H152.839V573.494H146.277V578.438H153.407V580H144.515ZM173.798 570H172.037C171.932 569.493 171.75 569.048 171.49 568.665C171.234 568.281 170.922 567.959 170.552 567.699C170.188 567.434 169.783 567.235 169.338 567.102C168.893 566.97 168.429 566.903 167.946 566.903C167.065 566.903 166.267 567.126 165.552 567.571C164.842 568.016 164.276 568.672 163.855 569.538C163.438 570.405 163.23 571.468 163.23 572.727C163.23 573.987 163.438 575.05 163.855 575.916C164.276 576.783 164.842 577.438 165.552 577.884C166.267 578.329 167.065 578.551 167.946 578.551C168.429 578.551 168.893 578.485 169.338 578.352C169.783 578.22 170.188 578.023 170.552 577.763C170.922 577.498 171.234 577.173 171.49 576.79C171.75 576.402 171.932 575.956 172.037 575.455H173.798C173.665 576.198 173.424 576.863 173.074 577.45C172.723 578.037 172.288 578.537 171.767 578.949C171.246 579.356 170.661 579.666 170.012 579.879C169.368 580.092 168.68 580.199 167.946 580.199C166.705 580.199 165.602 579.896 164.636 579.29C163.67 578.684 162.91 577.822 162.356 576.705C161.802 575.587 161.525 574.261 161.525 572.727C161.525 571.193 161.802 569.867 162.356 568.75C162.91 567.633 163.67 566.771 164.636 566.165C165.602 565.559 166.705 565.256 167.946 565.256C168.68 565.256 169.368 565.362 170.012 565.575C170.661 565.788 171.246 566.101 171.767 566.513C172.288 566.92 172.723 567.417 173.074 568.004C173.424 568.587 173.665 569.252 173.798 570ZM188.917 572.727C188.917 574.261 188.64 575.587 188.086 576.705C187.532 577.822 186.772 578.684 185.806 579.29C184.84 579.896 183.737 580.199 182.496 580.199C181.256 580.199 180.153 579.896 179.187 579.29C178.221 578.684 177.461 577.822 176.907 576.705C176.353 575.587 176.076 574.261 176.076 572.727C176.076 571.193 176.353 569.867 176.907 568.75C177.461 567.633 178.221 566.771 179.187 566.165C180.153 565.559 181.256 565.256 182.496 565.256C183.737 565.256 184.84 565.559 185.806 566.165C186.772 566.771 187.532 567.633 188.086 568.75C188.64 569.867 188.917 571.193 188.917 572.727ZM187.212 572.727C187.212 571.468 187.002 570.405 186.58 569.538C186.164 568.672 185.598 568.016 184.883 567.571C184.173 567.126 183.377 566.903 182.496 566.903C181.616 566.903 180.818 567.126 180.103 567.571C179.393 568.016 178.827 568.672 178.406 569.538C177.989 570.405 177.781 571.468 177.781 572.727C177.781 573.987 177.989 575.05 178.406 575.916C178.827 576.783 179.393 577.438 180.103 577.884C180.818 578.329 181.616 578.551 182.496 578.551C183.377 578.551 184.173 578.329 184.883 577.884C185.598 577.438 186.164 576.783 186.58 575.916C187.002 575.05 187.212 573.987 187.212 572.727ZM203.413 565.455V580H201.708L193.782 568.58H193.64V580H191.879V565.455H193.583L201.538 576.903H201.68V565.455H203.413ZM218.471 565.455V580H216.767L208.841 568.58H208.699V580H206.937V565.455H208.642L216.596 576.903H216.738V565.455H218.471ZM221.996 580V565.455H230.774V567.017H223.757V571.932H230.32V573.494H223.757V578.438H230.888V580H221.996ZM245.653 570H243.892C243.788 569.493 243.606 569.048 243.345 568.665C243.089 568.281 242.777 567.959 242.408 567.699C242.043 567.434 241.638 567.235 241.193 567.102C240.748 566.97 240.284 566.903 239.801 566.903C238.92 566.903 238.123 567.126 237.408 567.571C236.697 568.016 236.132 568.672 235.71 569.538C235.294 570.405 235.085 571.468 235.085 572.727C235.085 573.987 235.294 575.05 235.71 575.916C236.132 576.783 236.697 577.438 237.408 577.884C238.123 578.329 238.92 578.551 239.801 578.551C240.284 578.551 240.748 578.485 241.193 578.352C241.638 578.22 242.043 578.023 242.408 577.763C242.777 577.498 243.089 577.173 243.345 576.79C243.606 576.402 243.788 575.956 243.892 575.455H245.653C245.521 576.198 245.279 576.863 244.929 577.45C244.579 578.037 244.143 578.537 243.622 578.949C243.101 579.356 242.517 579.666 241.868 579.879C241.224 580.092 240.535 580.199 239.801 580.199C238.561 580.199 237.457 579.896 236.491 579.29C235.526 578.684 234.766 577.822 234.212 576.705C233.658 575.587 233.381 574.261 233.381 572.727C233.381 571.193 233.658 569.867 234.212 568.75C234.766 567.633 235.526 566.771 236.491 566.165C237.457 565.559 238.561 565.256 239.801 565.256C240.535 565.256 241.224 565.362 241.868 565.575C242.517 565.788 243.101 566.101 243.622 566.513C244.143 566.92 244.579 567.417 244.929 568.004C245.279 568.587 245.521 569.252 245.653 570ZM247.704 567.017V565.455H258.613V567.017H254.039V580H252.278V567.017H247.704ZM261.332 580V565.455H270.11V567.017H263.093V571.932H269.656V573.494H263.093V578.438H270.224V580H261.332ZM273.285 580V565.455H278.2C279.336 565.455 280.269 565.649 280.998 566.037C281.727 566.42 282.267 566.948 282.617 567.621C282.968 568.293 283.143 569.058 283.143 569.915C283.143 570.772 282.968 571.532 282.617 572.195C282.267 572.857 281.729 573.378 281.005 573.757C280.281 574.131 279.355 574.318 278.228 574.318H274.251V572.727H278.171C278.948 572.727 279.573 572.614 280.046 572.386C280.524 572.159 280.87 571.837 281.083 571.42C281.301 570.999 281.41 570.497 281.41 569.915C281.41 569.332 281.301 568.823 281.083 568.388C280.865 567.952 280.517 567.616 280.039 567.379C279.561 567.138 278.929 567.017 278.143 567.017H275.046V580H273.285ZM280.131 573.466L283.711 580H281.665L278.143 573.466H280.131Z" fill="white"/>
</g>
<path d="M52.358 351H50.5114L55.8523 336.455H57.6705L63.0114 351H61.1648L56.8182 338.756H56.7045L52.358 351ZM53.0398 345.318H60.483V346.881H53.0398V345.318ZM69.169 351.227C68.2599 351.227 67.4574 350.998 66.7614 350.538C66.0653 350.074 65.5208 349.421 65.1278 348.578C64.7348 347.731 64.5384 346.729 64.5384 345.574C64.5384 344.428 64.7348 343.434 65.1278 342.591C65.5208 341.748 66.0677 341.097 66.7685 340.638C67.4692 340.179 68.2789 339.949 69.1974 339.949C69.9077 339.949 70.4688 340.067 70.8807 340.304C71.2973 340.536 71.6146 340.801 71.8324 341.099C72.0549 341.393 72.2277 341.634 72.3509 341.824H72.4929V336.455H74.169V351H72.5497V349.324H72.3509C72.2277 349.523 72.0526 349.774 71.8253 350.077C71.598 350.375 71.2737 350.643 70.8523 350.879C70.4309 351.111 69.8698 351.227 69.169 351.227ZM69.3963 349.722C70.0687 349.722 70.6368 349.546 71.1009 349.196C71.5649 348.841 71.9176 348.351 72.1591 347.726C72.4006 347.096 72.5213 346.369 72.5213 345.545C72.5213 344.731 72.4029 344.018 72.1662 343.408C71.9295 342.792 71.5791 342.314 71.1151 341.973C70.651 341.627 70.0781 341.455 69.3963 341.455C68.6861 341.455 68.0942 341.637 67.6207 342.001C67.152 342.361 66.7992 342.851 66.5625 343.472C66.3305 344.087 66.2145 344.778 66.2145 345.545C66.2145 346.322 66.3329 347.027 66.5696 347.662C66.8111 348.292 67.1662 348.794 67.6349 349.168C68.1084 349.537 68.6955 349.722 69.3963 349.722ZM77.4716 351V340.091H79.0909V341.739H79.2045C79.4034 341.199 79.7633 340.761 80.2841 340.425C80.8049 340.089 81.392 339.92 82.0455 339.92C82.1686 339.92 82.3224 339.923 82.5071 339.928C82.6918 339.932 82.8314 339.939 82.9261 339.949V341.653C82.8693 341.639 82.7391 341.618 82.5355 341.589C82.3366 341.556 82.1259 341.54 81.9034 341.54C81.3731 341.54 80.8996 341.651 80.483 341.874C80.071 342.091 79.7443 342.394 79.5028 342.783C79.2661 343.166 79.1477 343.604 79.1477 344.097V351H77.4716ZM89.1548 351.227C88.1037 351.227 87.197 350.995 86.4347 350.531C85.6771 350.062 85.0923 349.409 84.6804 348.571C84.2732 347.728 84.0696 346.748 84.0696 345.631C84.0696 344.513 84.2732 343.528 84.6804 342.676C85.0923 341.819 85.6652 341.152 86.3991 340.673C87.1378 340.19 87.9995 339.949 88.9844 339.949C89.5526 339.949 90.1136 340.044 90.6676 340.233C91.2216 340.422 91.7259 340.73 92.1804 341.156C92.6349 341.578 92.9972 342.136 93.267 342.832C93.5369 343.528 93.6719 344.385 93.6719 345.403V346.114H85.2628V344.665H91.9673C91.9673 344.049 91.8442 343.5 91.598 343.017C91.3565 342.534 91.0109 342.153 90.5611 341.874C90.116 341.594 89.5904 341.455 88.9844 341.455C88.3168 341.455 87.7391 341.62 87.2514 341.952C86.7685 342.278 86.3968 342.705 86.1364 343.23C85.8759 343.756 85.7457 344.319 85.7457 344.92V345.886C85.7457 346.71 85.8878 347.409 86.1719 347.982C86.4607 348.55 86.8608 348.983 87.3722 349.281C87.8835 349.575 88.4777 349.722 89.1548 349.722C89.5952 349.722 89.9929 349.66 90.348 349.537C90.7079 349.409 91.018 349.22 91.2784 348.969C91.5388 348.713 91.7401 348.396 91.8821 348.017L93.5014 348.472C93.331 349.021 93.0445 349.504 92.642 349.92C92.2396 350.332 91.7424 350.654 91.1506 350.886C90.5587 351.114 89.8935 351.227 89.1548 351.227ZM103.949 342.534L102.443 342.96C102.348 342.709 102.209 342.465 102.024 342.229C101.844 341.987 101.598 341.788 101.286 341.632C100.973 341.476 100.573 341.398 100.085 341.398C99.4176 341.398 98.8613 341.552 98.4162 341.859C97.9759 342.162 97.7557 342.548 97.7557 343.017C97.7557 343.434 97.9072 343.763 98.2102 344.004C98.5133 344.246 98.9867 344.447 99.6307 344.608L101.25 345.006C102.225 345.242 102.952 345.605 103.43 346.092C103.909 346.575 104.148 347.198 104.148 347.96C104.148 348.585 103.968 349.144 103.608 349.636C103.253 350.129 102.756 350.517 102.116 350.801C101.477 351.085 100.734 351.227 99.8864 351.227C98.7737 351.227 97.8527 350.986 97.1236 350.503C96.3944 350.02 95.9328 349.314 95.7386 348.386L97.3295 347.989C97.4811 348.576 97.7675 349.016 98.1889 349.31C98.6151 349.603 99.1714 349.75 99.858 349.75C100.639 349.75 101.259 349.584 101.719 349.253C102.183 348.917 102.415 348.514 102.415 348.045C102.415 347.667 102.282 347.349 102.017 347.094C101.752 346.833 101.345 346.639 100.795 346.511L98.9773 346.085C97.9782 345.848 97.2443 345.482 96.7756 344.984C96.3116 344.482 96.0795 343.855 96.0795 343.102C96.0795 342.487 96.2524 341.942 96.598 341.469C96.9484 340.995 97.4242 340.624 98.0256 340.354C98.6316 340.084 99.3182 339.949 100.085 339.949C101.165 339.949 102.012 340.186 102.628 340.659C103.248 341.133 103.688 341.758 103.949 342.534ZM114.398 342.534L112.892 342.96C112.798 342.709 112.658 342.465 112.473 342.229C112.293 341.987 112.047 341.788 111.735 341.632C111.422 341.476 111.022 341.398 110.534 341.398C109.867 341.398 109.31 341.552 108.865 341.859C108.425 342.162 108.205 342.548 108.205 343.017C108.205 343.434 108.356 343.763 108.659 344.004C108.962 344.246 109.436 344.447 110.08 344.608L111.699 345.006C112.675 345.242 113.401 345.605 113.88 346.092C114.358 346.575 114.597 347.198 114.597 347.96C114.597 348.585 114.417 349.144 114.057 349.636C113.702 350.129 113.205 350.517 112.566 350.801C111.926 351.085 111.183 351.227 110.336 351.227C109.223 351.227 108.302 350.986 107.573 350.503C106.844 350.02 106.382 349.314 106.188 348.386L107.779 347.989C107.93 348.576 108.217 349.016 108.638 349.31C109.064 349.603 109.621 349.75 110.307 349.75C111.088 349.75 111.709 349.584 112.168 349.253C112.632 348.917 112.864 348.514 112.864 348.045C112.864 347.667 112.731 347.349 112.466 347.094C112.201 346.833 111.794 346.639 111.245 346.511L109.426 346.085C108.427 345.848 107.694 345.482 107.225 344.984C106.761 344.482 106.529 343.855 106.529 343.102C106.529 342.487 106.702 341.942 107.047 341.469C107.398 340.995 107.873 340.624 108.475 340.354C109.081 340.084 109.767 339.949 110.534 339.949C111.614 339.949 112.462 340.186 113.077 340.659C113.697 341.133 114.138 341.758 114.398 342.534ZM121.694 351.227C120.643 351.227 119.736 350.995 118.974 350.531C118.216 350.062 117.631 349.409 117.219 348.571C116.812 347.728 116.609 346.748 116.609 345.631C116.609 344.513 116.812 343.528 117.219 342.676C117.631 341.819 118.204 341.152 118.938 340.673C119.677 340.19 120.539 339.949 121.523 339.949C122.092 339.949 122.653 340.044 123.207 340.233C123.761 340.422 124.265 340.73 124.719 341.156C125.174 341.578 125.536 342.136 125.806 342.832C126.076 343.528 126.211 344.385 126.211 345.403V346.114H117.802V344.665H124.506C124.506 344.049 124.383 343.5 124.137 343.017C123.896 342.534 123.55 342.153 123.1 341.874C122.655 341.594 122.129 341.455 121.523 341.455C120.856 341.455 120.278 341.62 119.79 341.952C119.308 342.278 118.936 342.705 118.675 343.23C118.415 343.756 118.285 344.319 118.285 344.92V345.886C118.285 346.71 118.427 347.409 118.711 347.982C119 348.55 119.4 348.983 119.911 349.281C120.423 349.575 121.017 349.722 121.694 349.722C122.134 349.722 122.532 349.66 122.887 349.537C123.247 349.409 123.557 349.22 123.817 348.969C124.078 348.713 124.279 348.396 124.421 348.017L126.04 348.472C125.87 349.021 125.584 349.504 125.181 349.92C124.779 350.332 124.281 350.654 123.69 350.886C123.098 351.114 122.433 351.227 121.694 351.227ZM138.96 351.227C137.908 351.227 137.002 350.995 136.239 350.531C135.482 350.062 134.897 349.409 134.485 348.571C134.078 347.728 133.874 346.748 133.874 345.631C133.874 344.513 134.078 343.528 134.485 342.676C134.897 341.819 135.47 341.152 136.204 340.673C136.942 340.19 137.804 339.949 138.789 339.949C139.357 339.949 139.918 340.044 140.472 340.233C141.026 340.422 141.531 340.73 141.985 341.156C142.44 341.578 142.802 342.136 143.072 342.832C143.342 343.528 143.477 344.385 143.477 345.403V346.114H135.067V344.665H141.772C141.772 344.049 141.649 343.5 141.403 343.017C141.161 342.534 140.816 342.153 140.366 341.874C139.921 341.594 139.395 341.455 138.789 341.455C138.121 341.455 137.544 341.62 137.056 341.952C136.573 342.278 136.201 342.705 135.941 343.23C135.681 343.756 135.55 344.319 135.55 344.92V345.886C135.55 346.71 135.692 347.409 135.977 347.982C136.265 348.55 136.665 348.983 137.177 349.281C137.688 349.575 138.282 349.722 138.96 349.722C139.4 349.722 139.798 349.66 140.153 349.537C140.513 349.409 140.823 349.22 141.083 348.969C141.344 348.713 141.545 348.396 141.687 348.017L143.306 348.472C143.136 349.021 142.849 349.504 142.447 349.92C142.044 350.332 141.547 350.654 140.955 350.886C140.363 351.114 139.698 351.227 138.96 351.227ZM152.276 343.983V345.545H145.913V343.983H152.276ZM155.225 351V340.091H156.845V341.795H156.987C157.214 341.213 157.581 340.761 158.088 340.439C158.594 340.112 159.203 339.949 159.913 339.949C160.633 339.949 161.232 340.112 161.71 340.439C162.193 340.761 162.569 341.213 162.839 341.795H162.953C163.232 341.232 163.651 340.785 164.21 340.453C164.769 340.117 165.439 339.949 166.22 339.949C167.195 339.949 167.993 340.254 168.613 340.865C169.234 341.471 169.544 342.416 169.544 343.699V351H167.868V343.699C167.868 342.894 167.647 342.319 167.207 341.973C166.767 341.627 166.248 341.455 165.652 341.455C164.885 341.455 164.29 341.687 163.869 342.151C163.448 342.61 163.237 343.192 163.237 343.898V351H161.532V343.528C161.532 342.908 161.331 342.409 160.929 342.03C160.526 341.646 160.008 341.455 159.373 341.455C158.938 341.455 158.53 341.571 158.152 341.803C157.778 342.035 157.475 342.357 157.243 342.768C157.015 343.176 156.902 343.647 156.902 344.182V351H155.225ZM175.819 351.256C175.127 351.256 174.5 351.125 173.936 350.865C173.373 350.6 172.926 350.219 172.594 349.722C172.263 349.22 172.097 348.614 172.097 347.903C172.097 347.278 172.22 346.772 172.466 346.384C172.712 345.991 173.042 345.683 173.453 345.46C173.865 345.238 174.32 345.072 174.817 344.963C175.319 344.849 175.823 344.759 176.33 344.693C176.993 344.608 177.53 344.544 177.942 344.501C178.359 344.454 178.662 344.376 178.851 344.267C179.045 344.158 179.142 343.969 179.142 343.699V343.642C179.142 342.941 178.951 342.397 178.567 342.009C178.188 341.62 177.613 341.426 176.841 341.426C176.041 341.426 175.414 341.601 174.959 341.952C174.505 342.302 174.185 342.676 174 343.074L172.409 342.506C172.694 341.843 173.072 341.327 173.546 340.957C174.024 340.583 174.545 340.323 175.108 340.176C175.676 340.025 176.235 339.949 176.784 339.949C177.135 339.949 177.537 339.991 177.992 340.077C178.451 340.157 178.894 340.325 179.32 340.581C179.751 340.837 180.108 341.223 180.392 341.739C180.676 342.255 180.819 342.946 180.819 343.812V351H179.142V349.523H179.057C178.944 349.759 178.754 350.013 178.489 350.283C178.224 350.553 177.871 350.782 177.431 350.972C176.99 351.161 176.453 351.256 175.819 351.256ZM176.074 349.75C176.737 349.75 177.296 349.62 177.75 349.359C178.21 349.099 178.555 348.763 178.787 348.351C179.024 347.939 179.142 347.506 179.142 347.051V345.517C179.071 345.602 178.915 345.68 178.674 345.751C178.437 345.818 178.162 345.877 177.85 345.929C177.542 345.976 177.241 346.019 176.948 346.057C176.659 346.09 176.425 346.118 176.245 346.142C175.809 346.199 175.402 346.291 175.023 346.419C174.649 346.542 174.346 346.729 174.114 346.98C173.887 347.226 173.773 347.562 173.773 347.989C173.773 348.571 173.989 349.011 174.419 349.31C174.855 349.603 175.407 349.75 176.074 349.75ZM183.878 351V340.091H185.554V351H183.878ZM184.73 338.273C184.403 338.273 184.122 338.161 183.885 337.939C183.653 337.716 183.537 337.449 183.537 337.136C183.537 336.824 183.653 336.556 183.885 336.334C184.122 336.111 184.403 336 184.73 336C185.057 336 185.336 336.111 185.568 336.334C185.805 336.556 185.923 336.824 185.923 337.136C185.923 337.449 185.805 337.716 185.568 337.939C185.336 338.161 185.057 338.273 184.73 338.273ZM190.3 336.455V351H188.624V336.455H190.3Z" fill="black"/>
<path d="M106.761 632.455H108.864L113.807 644.528H113.977L118.92 632.455H121.023V647H119.375V635.949H119.233L114.688 647H113.097L108.551 635.949H108.409V647H106.761V632.455ZM128.759 647.227C127.774 647.227 126.91 646.993 126.167 646.524C125.428 646.055 124.85 645.4 124.434 644.557C124.022 643.714 123.816 642.729 123.816 641.602C123.816 640.466 124.022 639.474 124.434 638.626C124.85 637.779 125.428 637.121 126.167 636.652C126.91 636.183 127.774 635.949 128.759 635.949C129.744 635.949 130.605 636.183 131.344 636.652C132.087 637.121 132.665 637.779 133.077 638.626C133.494 639.474 133.702 640.466 133.702 641.602C133.702 642.729 133.494 643.714 133.077 644.557C132.665 645.4 132.087 646.055 131.344 646.524C130.605 646.993 129.744 647.227 128.759 647.227ZM128.759 645.722C129.507 645.722 130.123 645.53 130.605 645.146C131.088 644.763 131.446 644.259 131.678 643.634C131.91 643.009 132.026 642.331 132.026 641.602C132.026 640.873 131.91 640.194 131.678 639.564C131.446 638.934 131.088 638.425 130.605 638.037C130.123 637.649 129.507 637.455 128.759 637.455C128.011 637.455 127.395 637.649 126.912 638.037C126.429 638.425 126.072 638.934 125.84 639.564C125.608 640.194 125.492 640.873 125.492 641.602C125.492 642.331 125.608 643.009 125.84 643.634C126.072 644.259 126.429 644.763 126.912 645.146C127.395 645.53 128.011 645.722 128.759 645.722ZM141.005 636.091V637.511H135.352V636.091H141.005ZM136.999 633.477H138.675V643.875C138.675 644.348 138.744 644.704 138.881 644.94C139.023 645.172 139.203 645.329 139.421 645.409C139.644 645.485 139.878 645.523 140.124 645.523C140.309 645.523 140.46 645.513 140.579 645.494C140.697 645.471 140.792 645.452 140.863 645.438L141.204 646.943C141.09 646.986 140.932 647.028 140.728 647.071C140.524 647.118 140.266 647.142 139.954 647.142C139.48 647.142 139.016 647.04 138.562 646.837C138.112 646.633 137.738 646.323 137.44 645.906C137.146 645.49 136.999 644.964 136.999 644.33V633.477ZM153.271 647.227C152.362 647.227 151.559 646.998 150.863 646.538C150.167 646.074 149.622 645.421 149.229 644.578C148.836 643.731 148.64 642.729 148.64 641.574C148.64 640.428 148.836 639.434 149.229 638.591C149.622 637.748 150.169 637.097 150.87 636.638C151.571 636.179 152.38 635.949 153.299 635.949C154.009 635.949 154.57 636.067 154.982 636.304C155.399 636.536 155.716 636.801 155.934 637.099C156.156 637.393 156.329 637.634 156.452 637.824H156.594V632.455H158.271V647H156.651V645.324H156.452C156.329 645.523 156.154 645.774 155.927 646.077C155.7 646.375 155.375 646.643 154.954 646.879C154.532 647.111 153.971 647.227 153.271 647.227ZM153.498 645.722C154.17 645.722 154.738 645.546 155.202 645.196C155.666 644.841 156.019 644.351 156.261 643.726C156.502 643.096 156.623 642.369 156.623 641.545C156.623 640.731 156.504 640.018 156.268 639.408C156.031 638.792 155.681 638.314 155.217 637.973C154.753 637.627 154.18 637.455 153.498 637.455C152.788 637.455 152.196 637.637 151.722 638.001C151.254 638.361 150.901 638.851 150.664 639.472C150.432 640.087 150.316 640.778 150.316 641.545C150.316 642.322 150.434 643.027 150.671 643.662C150.913 644.292 151.268 644.794 151.737 645.168C152.21 645.537 152.797 645.722 153.498 645.722ZM166.147 647.227C165.096 647.227 164.189 646.995 163.427 646.531C162.669 646.062 162.085 645.409 161.673 644.571C161.265 643.728 161.062 642.748 161.062 641.631C161.062 640.513 161.265 639.528 161.673 638.676C162.085 637.819 162.657 637.152 163.391 636.673C164.13 636.19 164.992 635.949 165.977 635.949C166.545 635.949 167.106 636.044 167.66 636.233C168.214 636.422 168.718 636.73 169.173 637.156C169.627 637.578 169.989 638.136 170.259 638.832C170.529 639.528 170.664 640.385 170.664 641.403V642.114H162.255V640.665H168.96C168.96 640.049 168.836 639.5 168.59 639.017C168.349 638.534 168.003 638.153 167.553 637.874C167.108 637.594 166.583 637.455 165.977 637.455C165.309 637.455 164.731 637.62 164.244 637.952C163.761 638.278 163.389 638.705 163.129 639.23C162.868 639.756 162.738 640.319 162.738 640.92V641.886C162.738 642.71 162.88 643.409 163.164 643.982C163.453 644.55 163.853 644.983 164.364 645.281C164.876 645.575 165.47 645.722 166.147 645.722C166.587 645.722 166.985 645.66 167.34 645.537C167.7 645.409 168.01 645.22 168.271 644.969C168.531 644.713 168.732 644.396 168.874 644.017L170.494 644.472C170.323 645.021 170.037 645.504 169.634 645.92C169.232 646.332 168.735 646.654 168.143 646.886C167.551 647.114 166.886 647.227 166.147 647.227ZM178.839 651.091V636.091H180.458V637.824H180.657C180.78 637.634 180.951 637.393 181.168 637.099C181.391 636.801 181.708 636.536 182.12 636.304C182.537 636.067 183.1 635.949 183.81 635.949C184.729 635.949 185.539 636.179 186.239 636.638C186.94 637.097 187.487 637.748 187.88 638.591C188.273 639.434 188.469 640.428 188.469 641.574C188.469 642.729 188.273 643.731 187.88 644.578C187.487 645.421 186.942 646.074 186.246 646.538C185.55 646.998 184.748 647.227 183.839 647.227C183.138 647.227 182.577 647.111 182.156 646.879C181.734 646.643 181.41 646.375 181.183 646.077C180.955 645.774 180.78 645.523 180.657 645.324H180.515V651.091H178.839ZM180.487 641.545C180.487 642.369 180.607 643.096 180.849 643.726C181.09 644.351 181.443 644.841 181.907 645.196C182.371 645.546 182.939 645.722 183.612 645.722C184.312 645.722 184.897 645.537 185.366 645.168C185.839 644.794 186.194 644.292 186.431 643.662C186.673 643.027 186.793 642.322 186.793 641.545C186.793 640.778 186.675 640.087 186.438 639.472C186.206 638.851 185.853 638.361 185.38 638.001C184.911 637.637 184.322 637.455 183.612 637.455C182.93 637.455 182.357 637.627 181.893 637.973C181.429 638.314 181.078 638.792 180.842 639.408C180.605 640.018 180.487 640.731 180.487 641.545ZM194.237 647.256C193.545 647.256 192.918 647.125 192.354 646.865C191.791 646.6 191.344 646.219 191.012 645.722C190.681 645.22 190.515 644.614 190.515 643.903C190.515 643.278 190.638 642.772 190.884 642.384C191.13 641.991 191.46 641.683 191.871 641.46C192.283 641.238 192.738 641.072 193.235 640.963C193.737 640.849 194.241 640.759 194.748 640.693C195.411 640.608 195.948 640.544 196.36 640.501C196.777 640.454 197.08 640.376 197.269 640.267C197.463 640.158 197.56 639.969 197.56 639.699V639.642C197.56 638.941 197.369 638.397 196.985 638.009C196.606 637.62 196.031 637.426 195.259 637.426C194.459 637.426 193.832 637.601 193.377 637.952C192.923 638.302 192.603 638.676 192.418 639.074L190.827 638.506C191.112 637.843 191.49 637.327 191.964 636.957C192.442 636.583 192.963 636.323 193.526 636.176C194.094 636.025 194.653 635.949 195.202 635.949C195.553 635.949 195.955 635.991 196.41 636.077C196.869 636.157 197.312 636.325 197.738 636.581C198.169 636.837 198.526 637.223 198.81 637.739C199.094 638.255 199.237 638.946 199.237 639.812V647H197.56V645.523H197.475C197.362 645.759 197.172 646.013 196.907 646.283C196.642 646.553 196.289 646.782 195.849 646.972C195.408 647.161 194.871 647.256 194.237 647.256ZM194.492 645.75C195.155 645.75 195.714 645.62 196.168 645.359C196.628 645.099 196.973 644.763 197.205 644.351C197.442 643.939 197.56 643.506 197.56 643.051V641.517C197.489 641.602 197.333 641.68 197.092 641.751C196.855 641.818 196.58 641.877 196.268 641.929C195.96 641.976 195.659 642.019 195.366 642.057C195.077 642.09 194.843 642.118 194.663 642.142C194.227 642.199 193.82 642.291 193.441 642.419C193.067 642.542 192.764 642.729 192.532 642.98C192.305 643.226 192.191 643.562 192.191 643.989C192.191 644.571 192.406 645.011 192.837 645.31C193.273 645.603 193.825 645.75 194.492 645.75ZM210.023 638.534L208.517 638.96C208.423 638.709 208.283 638.465 208.098 638.229C207.918 637.987 207.672 637.788 207.36 637.632C207.047 637.476 206.647 637.398 206.159 637.398C205.492 637.398 204.935 637.552 204.49 637.859C204.05 638.162 203.83 638.548 203.83 639.017C203.83 639.434 203.981 639.763 204.284 640.004C204.587 640.246 205.061 640.447 205.705 640.608L207.324 641.006C208.3 641.242 209.026 641.605 209.505 642.092C209.983 642.575 210.222 643.198 210.222 643.96C210.222 644.585 210.042 645.144 209.682 645.636C209.327 646.129 208.83 646.517 208.191 646.801C207.551 647.085 206.808 647.227 205.961 647.227C204.848 647.227 203.927 646.986 203.198 646.503C202.469 646.02 202.007 645.314 201.813 644.386L203.404 643.989C203.555 644.576 203.842 645.016 204.263 645.31C204.689 645.603 205.246 645.75 205.932 645.75C206.713 645.75 207.334 645.584 207.793 645.253C208.257 644.917 208.489 644.514 208.489 644.045C208.489 643.667 208.356 643.349 208.091 643.094C207.826 642.833 207.419 642.639 206.87 642.511L205.051 642.085C204.052 641.848 203.319 641.482 202.85 640.984C202.386 640.482 202.154 639.855 202.154 639.102C202.154 638.487 202.327 637.942 202.672 637.469C203.023 636.995 203.498 636.624 204.1 636.354C204.706 636.084 205.392 635.949 206.159 635.949C207.239 635.949 208.087 636.186 208.702 636.659C209.322 637.133 209.763 637.758 210.023 638.534ZM220.472 638.534L218.967 638.96C218.872 638.709 218.732 638.465 218.548 638.229C218.368 637.987 218.121 637.788 217.809 637.632C217.496 637.476 217.096 637.398 216.609 637.398C215.941 637.398 215.385 637.552 214.94 637.859C214.499 638.162 214.279 638.548 214.279 639.017C214.279 639.434 214.431 639.763 214.734 640.004C215.037 640.246 215.51 640.447 216.154 640.608L217.773 641.006C218.749 641.242 219.476 641.605 219.954 642.092C220.432 642.575 220.671 643.198 220.671 643.96C220.671 644.585 220.491 645.144 220.131 645.636C219.776 646.129 219.279 646.517 218.64 646.801C218.001 647.085 217.257 647.227 216.41 647.227C215.297 647.227 214.376 646.986 213.647 646.503C212.918 646.02 212.456 645.314 212.262 644.386L213.853 643.989C214.004 644.576 214.291 645.016 214.712 645.31C215.138 645.603 215.695 645.75 216.381 645.75C217.163 645.75 217.783 645.584 218.242 645.253C218.706 644.917 218.938 644.514 218.938 644.045C218.938 643.667 218.806 643.349 218.54 643.094C218.275 642.833 217.868 642.639 217.319 642.511L215.501 642.085C214.502 641.848 213.768 641.482 213.299 640.984C212.835 640.482 212.603 639.855 212.603 639.102C212.603 638.487 212.776 637.942 213.121 637.469C213.472 636.995 213.948 636.624 214.549 636.354C215.155 636.084 215.842 635.949 216.609 635.949C217.688 635.949 218.536 636.186 219.151 636.659C219.772 637.133 220.212 637.758 220.472 638.534ZM227.768 647.227C226.717 647.227 225.81 646.995 225.048 646.531C224.29 646.062 223.706 645.409 223.294 644.571C222.886 643.728 222.683 642.748 222.683 641.631C222.683 640.513 222.886 639.528 223.294 638.676C223.706 637.819 224.279 637.152 225.012 636.673C225.751 636.19 226.613 635.949 227.598 635.949C228.166 635.949 228.727 636.044 229.281 636.233C229.835 636.422 230.339 636.73 230.794 637.156C231.248 637.578 231.61 638.136 231.88 638.832C232.15 639.528 232.285 640.385 232.285 641.403V642.114H223.876V640.665H230.581C230.581 640.049 230.458 639.5 230.211 639.017C229.97 638.534 229.624 638.153 229.174 637.874C228.729 637.594 228.204 637.455 227.598 637.455C226.93 637.455 226.352 637.62 225.865 637.952C225.382 638.278 225.01 638.705 224.75 639.23C224.489 639.756 224.359 640.319 224.359 640.92V641.886C224.359 642.71 224.501 643.409 224.785 643.982C225.074 644.55 225.474 644.983 225.985 645.281C226.497 645.575 227.091 645.722 227.768 645.722C228.208 645.722 228.606 645.66 228.961 645.537C229.321 645.409 229.631 645.22 229.892 644.969C230.152 644.713 230.353 644.396 230.495 644.017L232.115 644.472C231.944 645.021 231.658 645.504 231.255 645.92C230.853 646.332 230.356 646.654 229.764 646.886C229.172 647.114 228.507 647.227 227.768 647.227ZM244.892 647.227C243.907 647.227 243.043 646.993 242.299 646.524C241.561 646.055 240.983 645.4 240.566 644.557C240.154 643.714 239.949 642.729 239.949 641.602C239.949 640.466 240.154 639.474 240.566 638.626C240.983 637.779 241.561 637.121 242.299 636.652C243.043 636.183 243.907 635.949 244.892 635.949C245.877 635.949 246.738 636.183 247.477 636.652C248.22 637.121 248.798 637.779 249.21 638.626C249.627 639.474 249.835 640.466 249.835 641.602C249.835 642.729 249.627 643.714 249.21 644.557C248.798 645.4 248.22 646.055 247.477 646.524C246.738 646.993 245.877 647.227 244.892 647.227ZM244.892 645.722C245.64 645.722 246.255 645.53 246.738 645.146C247.221 644.763 247.579 644.259 247.811 643.634C248.043 643.009 248.159 642.331 248.159 641.602C248.159 640.873 248.043 640.194 247.811 639.564C247.579 638.934 247.221 638.425 246.738 638.037C246.255 637.649 245.64 637.455 244.892 637.455C244.144 637.455 243.528 637.649 243.045 638.037C242.562 638.425 242.205 638.934 241.973 639.564C241.741 640.194 241.625 640.873 241.625 641.602C241.625 642.331 241.741 643.009 241.973 643.634C242.205 644.259 242.562 644.763 243.045 645.146C243.528 645.53 244.144 645.722 244.892 645.722ZM259.268 642.54V636.091H260.945V647H259.268V645.153H259.155C258.899 645.707 258.501 646.179 257.962 646.567C257.422 646.95 256.74 647.142 255.916 647.142C255.234 647.142 254.628 646.993 254.098 646.695C253.568 646.392 253.151 645.937 252.848 645.331C252.545 644.72 252.393 643.951 252.393 643.023V636.091H254.07V642.909C254.07 643.705 254.292 644.339 254.737 644.812C255.187 645.286 255.76 645.523 256.456 645.523C256.873 645.523 257.296 645.416 257.727 645.203C258.163 644.99 258.527 644.663 258.821 644.223C259.119 643.783 259.268 643.222 259.268 642.54ZM264.242 647V632.455H265.918V637.824H266.06C266.183 637.634 266.354 637.393 266.571 637.099C266.794 636.801 267.111 636.536 267.523 636.304C267.94 636.067 268.503 635.949 269.213 635.949C270.132 635.949 270.942 636.179 271.642 636.638C272.343 637.097 272.89 637.748 273.283 638.591C273.676 639.434 273.873 640.428 273.873 641.574C273.873 642.729 273.676 643.731 273.283 644.578C272.89 645.421 272.346 646.074 271.65 646.538C270.953 646.998 270.151 647.227 269.242 647.227C268.541 647.227 267.98 647.111 267.559 646.879C267.137 646.643 266.813 646.375 266.586 646.077C266.358 645.774 266.183 645.523 266.06 645.324H265.861V647H264.242ZM265.89 641.545C265.89 642.369 266.01 643.096 266.252 643.726C266.493 644.351 266.846 644.841 267.31 645.196C267.774 645.546 268.342 645.722 269.015 645.722C269.715 645.722 270.3 645.537 270.769 645.168C271.242 644.794 271.597 644.292 271.834 643.662C272.076 643.027 272.196 642.322 272.196 641.545C272.196 640.778 272.078 640.087 271.841 639.472C271.609 638.851 271.257 638.361 270.783 638.001C270.314 637.637 269.725 637.455 269.015 637.455C268.333 637.455 267.76 637.627 267.296 637.973C266.832 638.314 266.481 638.792 266.245 639.408C266.008 640.018 265.89 640.731 265.89 641.545ZM278.113 632.455V647H276.436V632.455H278.113ZM281.183 647V636.091H282.859V647H281.183ZM282.035 634.273C281.708 634.273 281.426 634.161 281.19 633.939C280.958 633.716 280.842 633.449 280.842 633.136C280.842 632.824 280.958 632.556 281.19 632.334C281.426 632.111 281.708 632 282.035 632C282.362 632 282.641 632.111 282.873 632.334C283.11 632.556 283.228 632.824 283.228 633.136C283.228 633.449 283.11 633.716 282.873 633.939C282.641 634.161 282.362 634.273 282.035 634.273ZM290.502 647.227C289.451 647.227 288.545 646.995 287.782 646.531C287.025 646.062 286.44 645.409 286.028 644.571C285.621 643.728 285.417 642.748 285.417 641.631C285.417 640.513 285.621 639.528 286.028 638.676C286.44 637.819 287.013 637.152 287.747 636.673C288.485 636.19 289.347 635.949 290.332 635.949C290.9 635.949 291.461 636.044 292.015 636.233C292.569 636.422 293.074 636.73 293.528 637.156C293.983 637.578 294.345 638.136 294.615 638.832C294.885 639.528 295.02 640.385 295.02 641.403V642.114H286.61V640.665H293.315C293.315 640.049 293.192 639.5 292.946 639.017C292.704 638.534 292.359 638.153 291.909 637.874C291.464 637.594 290.938 637.455 290.332 637.455C289.664 637.455 289.087 637.62 288.599 637.952C288.116 638.278 287.744 638.705 287.484 639.23C287.224 639.756 287.093 640.319 287.093 640.92V641.886C287.093 642.71 287.235 643.409 287.52 643.982C287.808 644.55 288.208 644.983 288.72 645.281C289.231 645.575 289.825 645.722 290.502 645.722C290.943 645.722 291.341 645.66 291.696 645.537C292.056 645.409 292.366 645.22 292.626 644.969C292.886 644.713 293.088 644.396 293.23 644.017L294.849 644.472C294.679 645.021 294.392 645.504 293.99 645.92C293.587 646.332 293.09 646.654 292.498 646.886C291.906 647.114 291.241 647.227 290.502 647.227ZM289.48 634.614L291.213 631.318H293.173L290.957 634.614H289.48Z" fill="#8B93FF"/>
<path d="M134.466 691H132.705C132.6 690.493 132.418 690.048 132.158 689.665C131.902 689.281 131.589 688.959 131.22 688.699C130.856 688.434 130.451 688.235 130.006 688.102C129.561 687.97 129.097 687.903 128.614 687.903C127.733 687.903 126.935 688.126 126.22 688.571C125.51 689.016 124.944 689.672 124.523 690.538C124.106 691.405 123.898 692.468 123.898 693.727C123.898 694.987 124.106 696.05 124.523 696.916C124.944 697.783 125.51 698.438 126.22 698.884C126.935 699.329 127.733 699.551 128.614 699.551C129.097 699.551 129.561 699.485 130.006 699.352C130.451 699.22 130.856 699.023 131.22 698.763C131.589 698.498 131.902 698.173 132.158 697.79C132.418 697.402 132.6 696.956 132.705 696.455H134.466C134.333 697.198 134.092 697.863 133.741 698.45C133.391 699.037 132.955 699.537 132.435 699.949C131.914 700.356 131.329 700.666 130.68 700.879C130.036 701.092 129.348 701.199 128.614 701.199C127.373 701.199 126.27 700.896 125.304 700.29C124.338 699.684 123.578 698.822 123.024 697.705C122.47 696.587 122.193 695.261 122.193 693.727C122.193 692.193 122.47 690.867 123.024 689.75C123.578 688.633 124.338 687.771 125.304 687.165C126.27 686.559 127.373 686.256 128.614 686.256C129.348 686.256 130.036 686.362 130.68 686.575C131.329 686.788 131.914 687.101 132.435 687.513C132.955 687.92 133.391 688.417 133.741 689.004C134.092 689.587 134.333 690.252 134.466 691ZM137.085 701V690.091H138.704V691.739H138.818C139.017 691.199 139.377 690.761 139.897 690.425C140.418 690.089 141.005 689.92 141.659 689.92C141.782 689.92 141.936 689.923 142.12 689.928C142.305 689.932 142.445 689.939 142.539 689.949V691.653C142.483 691.639 142.352 691.618 142.149 691.589C141.95 691.556 141.739 691.54 141.517 691.54C140.986 691.54 140.513 691.651 140.096 691.874C139.684 692.091 139.358 692.394 139.116 692.783C138.879 693.166 138.761 693.604 138.761 694.097V701H137.085ZM148.768 701.227C147.717 701.227 146.81 700.995 146.048 700.531C145.29 700.062 144.706 699.409 144.294 698.571C143.886 697.728 143.683 696.748 143.683 695.631C143.683 694.513 143.886 693.528 144.294 692.676C144.706 691.819 145.279 691.152 146.012 690.673C146.751 690.19 147.613 689.949 148.598 689.949C149.166 689.949 149.727 690.044 150.281 690.233C150.835 690.422 151.339 690.73 151.794 691.156C152.248 691.578 152.61 692.136 152.88 692.832C153.15 693.528 153.285 694.385 153.285 695.403V696.114H144.876V694.665H151.581C151.581 694.049 151.458 693.5 151.211 693.017C150.97 692.534 150.624 692.153 150.174 691.874C149.729 691.594 149.204 691.455 148.598 691.455C147.93 691.455 147.352 691.62 146.865 691.952C146.382 692.278 146.01 692.705 145.75 693.23C145.489 693.756 145.359 694.319 145.359 694.92V695.886C145.359 696.71 145.501 697.409 145.785 697.982C146.074 698.55 146.474 698.983 146.985 699.281C147.497 699.575 148.091 699.722 148.768 699.722C149.208 699.722 149.606 699.66 149.961 699.537C150.321 699.409 150.631 699.22 150.892 698.969C151.152 698.713 151.353 698.396 151.495 698.017L153.115 698.472C152.944 699.021 152.658 699.504 152.255 699.92C151.853 700.332 151.356 700.654 150.764 700.886C150.172 701.114 149.507 701.227 148.768 701.227ZM147.745 688.614L149.478 685.318H151.439L149.223 688.614H147.745ZM160.409 701.227C159.358 701.227 158.451 700.995 157.689 700.531C156.931 700.062 156.346 699.409 155.934 698.571C155.527 697.728 155.324 696.748 155.324 695.631C155.324 694.513 155.527 693.528 155.934 692.676C156.346 691.819 156.919 691.152 157.653 690.673C158.392 690.19 159.253 689.949 160.238 689.949C160.806 689.949 161.368 690.044 161.922 690.233C162.475 690.422 162.98 690.73 163.434 691.156C163.889 691.578 164.251 692.136 164.521 692.832C164.791 693.528 164.926 694.385 164.926 695.403V696.114H156.517V694.665H163.221C163.221 694.049 163.098 693.5 162.852 693.017C162.61 692.534 162.265 692.153 161.815 691.874C161.37 691.594 160.844 691.455 160.238 691.455C159.571 691.455 158.993 691.62 158.505 691.952C158.022 692.278 157.651 692.705 157.39 693.23C157.13 693.756 157 694.319 157 694.92V695.886C157 696.71 157.142 697.409 157.426 697.982C157.715 698.55 158.115 698.983 158.626 699.281C159.137 699.575 159.732 699.722 160.409 699.722C160.849 699.722 161.247 699.66 161.602 699.537C161.962 699.409 162.272 699.22 162.532 698.969C162.793 698.713 162.994 698.396 163.136 698.017L164.755 698.472C164.585 699.021 164.298 699.504 163.896 699.92C163.493 700.332 162.996 700.654 162.404 700.886C161.813 701.114 161.147 701.227 160.409 701.227ZM167.475 701V690.091H169.095V691.739H169.208C169.407 691.199 169.767 690.761 170.288 690.425C170.809 690.089 171.396 689.92 172.049 689.92C172.172 689.92 172.326 689.923 172.511 689.928C172.696 689.932 172.835 689.939 172.93 689.949V691.653C172.873 691.639 172.743 691.618 172.539 691.589C172.341 691.556 172.13 691.54 171.907 691.54C171.377 691.54 170.904 691.651 170.487 691.874C170.075 692.091 169.748 692.394 169.507 692.783C169.27 693.166 169.152 693.604 169.152 694.097V701H167.475ZM187.417 696.54V690.091H189.093V701H187.417V699.153H187.303C187.048 699.707 186.65 700.179 186.11 700.567C185.57 700.95 184.888 701.142 184.065 701.142C183.383 701.142 182.777 700.993 182.246 700.695C181.716 700.392 181.299 699.937 180.996 699.331C180.693 698.72 180.542 697.951 180.542 697.023V690.091H182.218V696.909C182.218 697.705 182.441 698.339 182.886 698.812C183.335 699.286 183.908 699.523 184.604 699.523C185.021 699.523 185.445 699.416 185.876 699.203C186.311 698.99 186.676 698.663 186.969 698.223C187.268 697.783 187.417 697.222 187.417 696.54ZM193.839 694.438V701H192.163V690.091H193.782V691.795H193.924C194.18 691.241 194.568 690.796 195.089 690.46C195.61 690.119 196.282 689.949 197.106 689.949C197.845 689.949 198.491 690.1 199.045 690.403C199.599 690.702 200.03 691.156 200.338 691.767C200.645 692.373 200.799 693.14 200.799 694.068V701H199.123V694.182C199.123 693.325 198.901 692.657 198.456 692.179C198.011 691.696 197.4 691.455 196.623 691.455C196.088 691.455 195.61 691.571 195.189 691.803C194.772 692.035 194.443 692.373 194.201 692.818C193.96 693.263 193.839 693.803 193.839 694.438ZM213.919 701.227C212.896 701.227 212.016 700.986 211.277 700.503C210.538 700.02 209.97 699.355 209.572 698.507C209.175 697.66 208.976 696.691 208.976 695.602C208.976 694.494 209.179 693.517 209.587 692.669C209.999 691.817 210.571 691.152 211.305 690.673C212.044 690.19 212.906 689.949 213.891 689.949C214.658 689.949 215.349 690.091 215.964 690.375C216.58 690.659 217.084 691.057 217.477 691.568C217.87 692.08 218.114 692.676 218.209 693.358H216.533C216.405 692.861 216.121 692.42 215.68 692.037C215.245 691.649 214.658 691.455 213.919 691.455C213.266 691.455 212.693 691.625 212.2 691.966C211.713 692.302 211.331 692.778 211.057 693.393C210.787 694.004 210.652 694.722 210.652 695.545C210.652 696.388 210.785 697.122 211.05 697.747C211.32 698.372 211.698 698.857 212.186 699.203C212.679 699.549 213.256 699.722 213.919 699.722C214.355 699.722 214.75 699.646 215.105 699.494C215.46 699.343 215.761 699.125 216.007 698.841C216.253 698.557 216.429 698.216 216.533 697.818H218.209C218.114 698.462 217.88 699.042 217.506 699.558C217.136 700.07 216.646 700.477 216.036 700.78C215.429 701.078 214.724 701.227 213.919 701.227ZM225.091 701.227C224.106 701.227 223.242 700.993 222.499 700.524C221.76 700.055 221.182 699.4 220.766 698.557C220.354 697.714 220.148 696.729 220.148 695.602C220.148 694.466 220.354 693.474 220.766 692.626C221.182 691.779 221.76 691.121 222.499 690.652C223.242 690.183 224.106 689.949 225.091 689.949C226.076 689.949 226.938 690.183 227.676 690.652C228.42 691.121 228.997 691.779 229.409 692.626C229.826 693.474 230.034 694.466 230.034 695.602C230.034 696.729 229.826 697.714 229.409 698.557C228.997 699.4 228.42 700.055 227.676 700.524C226.938 700.993 226.076 701.227 225.091 701.227ZM225.091 699.722C225.839 699.722 226.455 699.53 226.938 699.146C227.42 698.763 227.778 698.259 228.01 697.634C228.242 697.009 228.358 696.331 228.358 695.602C228.358 694.873 228.242 694.194 228.01 693.564C227.778 692.934 227.42 692.425 226.938 692.037C226.455 691.649 225.839 691.455 225.091 691.455C224.343 691.455 223.727 691.649 223.244 692.037C222.761 692.425 222.404 692.934 222.172 693.564C221.94 694.194 221.824 694.873 221.824 695.602C221.824 696.331 221.94 697.009 222.172 697.634C222.404 698.259 222.761 698.763 223.244 699.146C223.727 699.53 224.343 699.722 225.091 699.722ZM232.593 701V690.091H234.212V691.795H234.354C234.581 691.213 234.948 690.761 235.455 690.439C235.962 690.112 236.57 689.949 237.28 689.949C238 689.949 238.599 690.112 239.077 690.439C239.56 690.761 239.936 691.213 240.206 691.795H240.32C240.599 691.232 241.018 690.785 241.577 690.453C242.136 690.117 242.806 689.949 243.587 689.949C244.562 689.949 245.36 690.254 245.98 690.865C246.601 691.471 246.911 692.416 246.911 693.699V701H245.235V693.699C245.235 692.894 245.015 692.319 244.574 691.973C244.134 691.627 243.615 691.455 243.019 691.455C242.252 691.455 241.658 691.687 241.236 692.151C240.815 692.61 240.604 693.192 240.604 693.898V701H238.9V693.528C238.9 692.908 238.698 692.409 238.296 692.03C237.893 691.646 237.375 691.455 236.74 691.455C236.305 691.455 235.898 691.571 235.519 691.803C235.145 692.035 234.842 692.357 234.61 692.768C234.382 693.176 234.269 693.647 234.269 694.182V701H232.593ZM249.975 705.091V690.091H251.595V691.824H251.794C251.917 691.634 252.087 691.393 252.305 691.099C252.528 690.801 252.845 690.536 253.257 690.304C253.673 690.067 254.237 689.949 254.947 689.949C255.866 689.949 256.675 690.179 257.376 690.638C258.077 691.097 258.624 691.748 259.017 692.591C259.41 693.434 259.606 694.428 259.606 695.574C259.606 696.729 259.41 697.731 259.017 698.578C258.624 699.421 258.079 700.074 257.383 700.538C256.687 700.998 255.885 701.227 254.975 701.227C254.275 701.227 253.714 701.111 253.292 700.879C252.871 700.643 252.547 700.375 252.319 700.077C252.092 699.774 251.917 699.523 251.794 699.324H251.652V705.091H249.975ZM251.623 695.545C251.623 696.369 251.744 697.096 251.985 697.726C252.227 698.351 252.58 698.841 253.044 699.196C253.508 699.546 254.076 699.722 254.748 699.722C255.449 699.722 256.034 699.537 256.502 699.168C256.976 698.794 257.331 698.292 257.568 697.662C257.809 697.027 257.93 696.322 257.93 695.545C257.93 694.778 257.812 694.087 257.575 693.472C257.343 692.851 256.99 692.361 256.517 692.001C256.048 691.637 255.458 691.455 254.748 691.455C254.066 691.455 253.493 691.627 253.029 691.973C252.565 692.314 252.215 692.792 251.978 693.408C251.742 694.018 251.623 694.731 251.623 695.545ZM266.907 690.091V691.511H261.254V690.091H266.907ZM262.902 687.477H264.578V697.875C264.578 698.348 264.646 698.704 264.784 698.94C264.926 699.172 265.106 699.329 265.324 699.409C265.546 699.485 265.78 699.523 266.027 699.523C266.211 699.523 266.363 699.513 266.481 699.494C266.6 699.471 266.694 699.452 266.765 699.438L267.106 700.943C266.993 700.986 266.834 701.028 266.63 701.071C266.427 701.118 266.169 701.142 265.856 701.142C265.383 701.142 264.919 701.04 264.464 700.837C264.014 700.633 263.64 700.323 263.342 699.906C263.048 699.49 262.902 698.964 262.902 698.33V687.477ZM273.885 701.227C272.834 701.227 271.927 700.995 271.165 700.531C270.408 700.062 269.823 699.409 269.411 698.571C269.004 697.728 268.8 696.748 268.8 695.631C268.8 694.513 269.004 693.528 269.411 692.676C269.823 691.819 270.396 691.152 271.13 690.673C271.868 690.19 272.73 689.949 273.715 689.949C274.283 689.949 274.844 690.044 275.398 690.233C275.952 690.422 276.456 690.73 276.911 691.156C277.365 691.578 277.728 692.136 277.998 692.832C278.267 693.528 278.402 694.385 278.402 695.403V696.114H269.993V694.665H276.698C276.698 694.049 276.575 693.5 276.328 693.017C276.087 692.534 275.741 692.153 275.292 691.874C274.846 691.594 274.321 691.455 273.715 691.455C273.047 691.455 272.47 691.62 271.982 691.952C271.499 692.278 271.127 692.705 270.867 693.23C270.606 693.756 270.476 694.319 270.476 694.92V695.886C270.476 696.71 270.618 697.409 270.902 697.982C271.191 698.55 271.591 698.983 272.103 699.281C272.614 699.575 273.208 699.722 273.885 699.722C274.326 699.722 274.723 699.66 275.078 699.537C275.438 699.409 275.748 699.22 276.009 698.969C276.269 698.713 276.471 698.396 276.613 698.017L278.232 698.472C278.061 699.021 277.775 699.504 277.373 699.92C276.97 700.332 276.473 700.654 275.881 700.886C275.289 701.114 274.624 701.227 273.885 701.227Z" fill="#6776FB"/>
<rect x="48" y="374" width="318" height="45" fill="#FFFAFA"/>
<defs>
<filter id="filter0_d_1_2" x="127.136" y="565.256" width="160.575" height="23" filterUnits="userSpaceOnUse" color-interpolation-filters="sRGB">
<feFlood flood-opacity="0" result="BackgroundImageFix"/>
<feColorMatrix in="SourceAlpha" type="matrix" values="0 0 0 0 0 0 0 0 0 0 0 0 0 0 0 0 0 0 127 0" result="hardAlpha"/>
<feOffset dy="4"/>
<feGaussianBlur stdDeviation="2"/>
<feComposite in2="hardAlpha" operator="out"/>
<feColorMatrix type="matrix" values="0 0 0 0 0 0 0 0 0 0 0 0 0 0 0 0 0 0 0.25 0"/>
<feBlend mode="normal" in2="BackgroundImageFix" result="effect1_dropShadow_1_2"/>
<feBlend mode="normal" in="SourceGraphic" in2="effect1_dropShadow_1_2" result="shape"/>
</filter>
</defs>
</svg>
