<svg width="412" height="917" viewBox="0 0 412 917" fill="none" xmlns="http://www.w3.org/2000/svg">
<rect width="412" height="917" fill="white"/>
<circle cx="206" cy="107" r="73" fill="#D9D9D9"/>
<path d="M154.295 200.455V215H152.591L144.665 203.58H144.523V215H142.761V200.455H144.466L152.42 211.903H152.562V200.455H154.295ZM162.025 215.227C161.04 215.227 160.176 214.993 159.432 214.524C158.694 214.055 158.116 213.4 157.699 212.557C157.287 211.714 157.081 210.729 157.081 209.602C157.081 208.466 157.287 207.474 157.699 206.626C158.116 205.779 158.694 205.121 159.432 204.652C160.176 204.183 161.04 203.949 162.025 203.949C163.009 203.949 163.871 204.183 164.61 204.652C165.353 205.121 165.931 205.779 166.343 206.626C166.759 207.474 166.968 208.466 166.968 209.602C166.968 210.729 166.759 211.714 166.343 212.557C165.931 213.4 165.353 214.055 164.61 214.524C163.871 214.993 163.009 215.227 162.025 215.227ZM162.025 213.722C162.773 213.722 163.388 213.53 163.871 213.146C164.354 212.763 164.712 212.259 164.944 211.634C165.176 211.009 165.292 210.331 165.292 209.602C165.292 208.873 165.176 208.194 164.944 207.564C164.712 206.934 164.354 206.425 163.871 206.037C163.388 205.649 162.773 205.455 162.025 205.455C161.276 205.455 160.661 205.649 160.178 206.037C159.695 206.425 159.337 206.934 159.105 207.564C158.873 208.194 158.757 208.873 158.757 209.602C158.757 210.331 158.873 211.009 159.105 211.634C159.337 212.259 159.695 212.763 160.178 213.146C160.661 213.53 161.276 213.722 162.025 213.722ZM169.526 215V204.091H171.146V205.795H171.288C171.515 205.213 171.882 204.761 172.388 204.439C172.895 204.112 173.504 203.949 174.214 203.949C174.933 203.949 175.532 204.112 176.011 204.439C176.494 204.761 176.87 205.213 177.14 205.795H177.254C177.533 205.232 177.952 204.785 178.511 204.453C179.069 204.117 179.739 203.949 180.521 203.949C181.496 203.949 182.294 204.254 182.914 204.865C183.534 205.471 183.844 206.416 183.844 207.699V215H182.168V207.699C182.168 206.894 181.948 206.319 181.508 205.973C181.067 205.627 180.549 205.455 179.952 205.455C179.185 205.455 178.591 205.687 178.17 206.151C177.748 206.61 177.538 207.192 177.538 207.898V215H175.833V207.528C175.833 206.908 175.632 206.409 175.229 206.03C174.827 205.646 174.308 205.455 173.674 205.455C173.238 205.455 172.831 205.571 172.452 205.803C172.078 206.035 171.775 206.357 171.543 206.768C171.316 207.176 171.202 207.647 171.202 208.182V215H169.526ZM198.386 215V200.455H203.301C204.442 200.455 205.375 200.661 206.099 201.072C206.829 201.48 207.368 202.031 207.719 202.727C208.069 203.423 208.244 204.2 208.244 205.057C208.244 205.914 208.069 206.693 207.719 207.393C207.373 208.094 206.838 208.653 206.114 209.07C205.389 209.482 204.461 209.688 203.33 209.688H199.807V208.125H203.273C204.054 208.125 204.681 207.99 205.155 207.72C205.628 207.45 205.972 207.086 206.185 206.626C206.402 206.162 206.511 205.639 206.511 205.057C206.511 204.474 206.402 203.954 206.185 203.494C205.972 203.035 205.626 202.675 205.148 202.415C204.67 202.15 204.035 202.017 203.244 202.017H200.148V215H198.386ZM210.854 215V204.091H212.474V205.739H212.587C212.786 205.199 213.146 204.761 213.667 204.425C214.188 204.089 214.775 203.92 215.428 203.92C215.551 203.92 215.705 203.923 215.89 203.928C216.075 203.932 216.214 203.939 216.309 203.949V205.653C216.252 205.639 216.122 205.618 215.918 205.589C215.719 205.556 215.509 205.54 215.286 205.54C214.756 205.54 214.282 205.651 213.866 205.874C213.454 206.091 213.127 206.394 212.886 206.783C212.649 207.166 212.531 207.604 212.531 208.097V215H210.854ZM222.538 215.227C221.487 215.227 220.58 214.995 219.817 214.531C219.06 214.062 218.475 213.409 218.063 212.571C217.656 211.728 217.452 210.748 217.452 209.631C217.452 208.513 217.656 207.528 218.063 206.676C218.475 205.819 219.048 205.152 219.782 204.673C220.521 204.19 221.382 203.949 222.367 203.949C222.935 203.949 223.496 204.044 224.05 204.233C224.604 204.422 225.109 204.73 225.563 205.156C226.018 205.578 226.38 206.136 226.65 206.832C226.92 207.528 227.055 208.385 227.055 209.403V210.114H218.646V208.665H225.35C225.35 208.049 225.227 207.5 224.981 207.017C224.739 206.534 224.394 206.153 223.944 205.874C223.499 205.594 222.973 205.455 222.367 205.455C221.7 205.455 221.122 205.62 220.634 205.952C220.151 206.278 219.78 206.705 219.519 207.23C219.259 207.756 219.129 208.319 219.129 208.92V209.886C219.129 210.71 219.271 211.409 219.555 211.982C219.844 212.55 220.244 212.983 220.755 213.281C221.266 213.575 221.861 213.722 222.538 213.722C222.978 213.722 223.376 213.66 223.731 213.537C224.091 213.409 224.401 213.22 224.661 212.969C224.922 212.713 225.123 212.396 225.265 212.017L226.884 212.472C226.714 213.021 226.427 213.504 226.025 213.92C225.622 214.332 225.125 214.654 224.533 214.886C223.942 215.114 223.276 215.227 222.538 215.227ZM221.515 202.614L223.248 199.318H225.208L222.992 202.614H221.515ZM231.281 208.438V215H229.604V204.091H231.224V205.795H231.366C231.621 205.241 232.01 204.796 232.531 204.46C233.051 204.119 233.724 203.949 234.548 203.949C235.286 203.949 235.933 204.1 236.487 204.403C237.04 204.702 237.471 205.156 237.779 205.767C238.087 206.373 238.241 207.14 238.241 208.068V215H236.565V208.182C236.565 207.325 236.342 206.657 235.897 206.179C235.452 205.696 234.841 205.455 234.065 205.455C233.53 205.455 233.051 205.571 232.63 205.803C232.213 206.035 231.884 206.373 231.643 206.818C231.401 207.263 231.281 207.803 231.281 208.438ZM245.735 215.227C244.751 215.227 243.886 214.993 243.143 214.524C242.404 214.055 241.827 213.4 241.41 212.557C240.998 211.714 240.792 210.729 240.792 209.602C240.792 208.466 240.998 207.474 241.41 206.626C241.827 205.779 242.404 205.121 243.143 204.652C243.886 204.183 244.751 203.949 245.735 203.949C246.72 203.949 247.582 204.183 248.321 204.652C249.064 205.121 249.642 205.779 250.054 206.626C250.47 207.474 250.679 208.466 250.679 209.602C250.679 210.729 250.47 211.714 250.054 212.557C249.642 213.4 249.064 214.055 248.321 214.524C247.582 214.993 246.72 215.227 245.735 215.227ZM245.735 213.722C246.484 213.722 247.099 213.53 247.582 213.146C248.065 212.763 248.422 212.259 248.654 211.634C248.886 211.009 249.002 210.331 249.002 209.602C249.002 208.873 248.886 208.194 248.654 207.564C248.422 206.934 248.065 206.425 247.582 206.037C247.099 205.649 246.484 205.455 245.735 205.455C244.987 205.455 244.372 205.649 243.889 206.037C243.406 206.425 243.048 206.934 242.816 207.564C242.584 208.194 242.468 208.873 242.468 209.602C242.468 210.331 242.584 211.009 242.816 211.634C243.048 212.259 243.406 212.763 243.889 213.146C244.372 213.53 244.987 213.722 245.735 213.722ZM253.237 215V204.091H254.857V205.795H254.999C255.226 205.213 255.593 204.761 256.099 204.439C256.606 204.112 257.214 203.949 257.925 203.949C258.644 203.949 259.243 204.112 259.722 204.439C260.205 204.761 260.581 205.213 260.851 205.795H260.964C261.244 205.232 261.663 204.785 262.222 204.453C262.78 204.117 263.45 203.949 264.232 203.949C265.207 203.949 266.005 204.254 266.625 204.865C267.245 205.471 267.555 206.416 267.555 207.699V215H265.879V207.699C265.879 206.894 265.659 206.319 265.219 205.973C264.778 205.627 264.26 205.455 263.663 205.455C262.896 205.455 262.302 205.687 261.881 206.151C261.459 206.61 261.249 207.192 261.249 207.898V215H259.544V207.528C259.544 206.908 259.343 206.409 258.94 206.03C258.538 205.646 258.019 205.455 257.385 205.455C256.949 205.455 256.542 205.571 256.163 205.803C255.789 206.035 255.486 206.357 255.254 206.768C255.027 207.176 254.913 207.647 254.913 208.182V215H253.237Z" fill="black"/>
<path d="M15.7614 265V250.455H20.6761C21.8172 250.455 22.75 250.661 23.4744 251.072C24.2036 251.48 24.7434 252.031 25.0938 252.727C25.4441 253.423 25.6193 254.2 25.6193 255.057C25.6193 255.914 25.4441 256.693 25.0938 257.393C24.7481 258.094 24.2131 258.653 23.4886 259.07C22.7642 259.482 21.8362 259.688 20.7045 259.688H17.1818V258.125H20.6477C21.429 258.125 22.0563 257.99 22.5298 257.72C23.0033 257.45 23.3466 257.086 23.5597 256.626C23.7775 256.162 23.8864 255.639 23.8864 255.057C23.8864 254.474 23.7775 253.954 23.5597 253.494C23.3466 253.035 23.0009 252.675 22.5227 252.415C22.0445 252.15 21.41 252.017 20.6193 252.017H17.5227V265H15.7614ZM32.544 265.227C31.5592 265.227 30.6951 264.993 29.9517 264.524C29.2131 264.055 28.6354 263.4 28.2188 262.557C27.8068 261.714 27.6009 260.729 27.6009 259.602C27.6009 258.466 27.8068 257.474 28.2188 256.626C28.6354 255.779 29.2131 255.121 29.9517 254.652C30.6951 254.183 31.5592 253.949 32.544 253.949C33.5289 253.949 34.3906 254.183 35.1293 254.652C35.8726 255.121 36.4503 255.779 36.8622 256.626C37.2789 257.474 37.4872 258.466 37.4872 259.602C37.4872 260.729 37.2789 261.714 36.8622 262.557C36.4503 263.4 35.8726 264.055 35.1293 264.524C34.3906 264.993 33.5289 265.227 32.544 265.227ZM32.544 263.722C33.2921 263.722 33.9077 263.53 34.3906 263.146C34.8736 262.763 35.2311 262.259 35.4631 261.634C35.6951 261.009 35.8111 260.331 35.8111 259.602C35.8111 258.873 35.6951 258.194 35.4631 257.564C35.2311 256.934 34.8736 256.425 34.3906 256.037C33.9077 255.649 33.2921 255.455 32.544 255.455C31.7959 255.455 31.1804 255.649 30.6974 256.037C30.2145 256.425 29.857 256.934 29.625 257.564C29.393 258.194 29.277 258.873 29.277 259.602C29.277 260.331 29.393 261.009 29.625 261.634C29.857 262.259 30.2145 262.763 30.6974 263.146C31.1804 263.53 31.7959 263.722 32.544 263.722ZM40.0458 265V254.091H41.7219V265H40.0458ZM40.8981 252.273C40.5714 252.273 40.2897 252.161 40.0529 251.939C39.8209 251.716 39.7049 251.449 39.7049 251.136C39.7049 250.824 39.8209 250.556 40.0529 250.334C40.2897 250.111 40.5714 250 40.8981 250C41.2248 250 41.5041 250.111 41.7362 250.334C41.9729 250.556 42.0913 250.824 42.0913 251.136C42.0913 251.449 41.9729 251.716 41.7362 251.939C41.5041 252.161 41.2248 252.273 40.8981 252.273ZM46.468 258.438V265H44.7919V254.091H46.4112V255.795H46.5533C46.8089 255.241 47.1972 254.796 47.718 254.46C48.2389 254.119 48.9112 253.949 49.7351 253.949C50.4737 253.949 51.12 254.1 51.674 254.403C52.228 254.702 52.6589 255.156 52.9666 255.767C53.2744 256.373 53.4283 257.14 53.4283 258.068V265H51.7521V258.182C51.7521 257.325 51.5296 256.657 51.0845 256.179C50.6394 255.696 50.0286 255.455 49.2521 255.455C48.7171 255.455 48.2389 255.571 47.8175 255.803C47.4008 256.035 47.0717 256.373 46.8303 256.818C46.5888 257.263 46.468 257.803 46.468 258.438ZM61.2354 254.091V255.511H55.582V254.091H61.2354ZM57.2298 251.477H58.9059V261.875C58.9059 262.348 58.9746 262.704 59.1119 262.94C59.2539 263.172 59.4338 263.329 59.6516 263.409C59.8742 263.485 60.1085 263.523 60.3548 263.523C60.5394 263.523 60.6909 263.513 60.8093 263.494C60.9277 263.471 61.0224 263.452 61.0934 263.438L61.4343 264.943C61.3207 264.986 61.1621 265.028 60.9585 265.071C60.7549 265.118 60.4968 265.142 60.1843 265.142C59.7108 265.142 59.2468 265.04 58.7923 264.837C58.3424 264.633 57.9684 264.323 57.6701 263.906C57.3765 263.49 57.2298 262.964 57.2298 262.33V251.477ZM73.5011 265.227C72.592 265.227 71.7894 264.998 71.0934 264.538C70.3974 264.074 69.8529 263.421 69.4599 262.578C69.0669 261.731 68.8704 260.729 68.8704 259.574C68.8704 258.428 69.0669 257.434 69.4599 256.591C69.8529 255.748 70.3997 255.097 71.1005 254.638C71.8013 254.179 72.6109 253.949 73.5295 253.949C74.2397 253.949 74.8008 254.067 75.2127 254.304C75.6294 254.536 75.9466 254.801 76.1644 255.099C76.387 255.393 76.5598 255.634 76.6829 255.824H76.8249V250.455H78.5011V265H76.8817V263.324H76.6829C76.5598 263.523 76.3846 263.774 76.1573 264.077C75.93 264.375 75.6057 264.643 75.1843 264.879C74.7629 265.111 74.2018 265.227 73.5011 265.227ZM73.7283 263.722C74.4007 263.722 74.9689 263.546 75.4329 263.196C75.8969 262.841 76.2496 262.351 76.4911 261.726C76.7326 261.096 76.8533 260.369 76.8533 259.545C76.8533 258.731 76.735 258.018 76.4982 257.408C76.2615 256.792 75.9111 256.314 75.4471 255.973C74.9831 255.627 74.4102 255.455 73.7283 255.455C73.0181 255.455 72.4263 255.637 71.9528 256.001C71.484 256.361 71.1313 256.851 70.8945 257.472C70.6625 258.087 70.5465 258.778 70.5465 259.545C70.5465 260.322 70.6649 261.027 70.9016 261.662C71.1431 262.292 71.4982 262.794 71.967 263.168C72.4405 263.537 73.0276 263.722 73.7283 263.722ZM86.3775 265.227C85.3263 265.227 84.4196 264.995 83.6573 264.531C82.8997 264.062 82.315 263.409 81.9031 262.571C81.4959 261.728 81.2923 260.748 81.2923 259.631C81.2923 258.513 81.4959 257.528 81.9031 256.676C82.315 255.819 82.8879 255.152 83.6218 254.673C84.3604 254.19 85.2222 253.949 86.207 253.949C86.7752 253.949 87.3363 254.044 87.8903 254.233C88.4442 254.422 88.9485 254.73 89.4031 255.156C89.8576 255.578 90.2198 256.136 90.4897 256.832C90.7596 257.528 90.8945 258.385 90.8945 259.403V260.114H82.4854V258.665H89.19C89.19 258.049 89.0669 257.5 88.8207 257.017C88.5792 256.534 88.2335 256.153 87.7837 255.874C87.3387 255.594 86.8131 255.455 86.207 255.455C85.5394 255.455 84.9618 255.62 84.4741 255.952C83.9911 256.278 83.6194 256.705 83.359 257.23C83.0986 257.756 82.9684 258.319 82.9684 258.92V259.886C82.9684 260.71 83.1104 261.409 83.3945 261.982C83.6834 262.55 84.0835 262.983 84.5948 263.281C85.1062 263.575 85.7004 263.722 86.3775 263.722C86.8178 263.722 87.2156 263.66 87.5707 263.537C87.9305 263.409 88.2406 263.22 88.5011 262.969C88.7615 262.713 88.9627 262.396 89.1048 262.017L90.7241 262.472C90.5536 263.021 90.2672 263.504 89.8647 263.92C89.4622 264.332 88.9651 264.654 88.3732 264.886C87.7814 265.114 87.1161 265.227 86.3775 265.227ZM103.189 265.227C102.279 265.227 101.477 264.998 100.781 264.538C100.085 264.074 99.5404 263.421 99.1474 262.578C98.7544 261.731 98.5579 260.729 98.5579 259.574C98.5579 258.428 98.7544 257.434 99.1474 256.591C99.5404 255.748 100.087 255.097 100.788 254.638C101.489 254.179 102.298 253.949 103.217 253.949C103.927 253.949 104.488 254.067 104.9 254.304C105.317 254.536 105.634 254.801 105.852 255.099C106.074 255.393 106.247 255.634 106.37 255.824H106.512V250.455H108.189V265H106.569V263.324H106.37C106.247 263.523 106.072 263.774 105.845 264.077C105.618 264.375 105.293 264.643 104.872 264.879C104.45 265.111 103.889 265.227 103.189 265.227ZM103.416 263.722C104.088 263.722 104.656 263.546 105.12 263.196C105.584 262.841 105.937 262.351 106.179 261.726C106.42 261.096 106.541 260.369 106.541 259.545C106.541 258.731 106.422 258.018 106.186 257.408C105.949 256.792 105.599 256.314 105.135 255.973C104.671 255.627 104.098 255.455 103.416 255.455C102.706 255.455 102.114 255.637 101.64 256.001C101.172 256.361 100.819 256.851 100.582 257.472C100.35 258.087 100.234 258.778 100.234 259.545C100.234 260.322 100.352 261.027 100.589 261.662C100.831 262.292 101.186 262.794 101.654 263.168C102.128 263.537 102.715 263.722 103.416 263.722ZM116.065 265.227C115.014 265.227 114.107 264.995 113.345 264.531C112.587 264.062 112.002 263.409 111.591 262.571C111.183 261.728 110.98 260.748 110.98 259.631C110.98 258.513 111.183 257.528 111.591 256.676C112.002 255.819 112.575 255.152 113.309 254.673C114.048 254.19 114.91 253.949 115.895 253.949C116.463 253.949 117.024 254.044 117.578 254.233C118.132 254.422 118.636 254.73 119.091 255.156C119.545 255.578 119.907 256.136 120.177 256.832C120.447 257.528 120.582 258.385 120.582 259.403V260.114H112.173V258.665H118.877C118.877 258.049 118.754 257.5 118.508 257.017C118.267 256.534 117.921 256.153 117.471 255.874C117.026 255.594 116.501 255.455 115.895 255.455C115.227 255.455 114.649 255.62 114.162 255.952C113.679 256.278 113.307 256.705 113.047 257.23C112.786 257.756 112.656 258.319 112.656 258.92V259.886C112.656 260.71 112.798 261.409 113.082 261.982C113.371 262.55 113.771 262.983 114.282 263.281C114.794 263.575 115.388 263.722 116.065 263.722C116.505 263.722 116.903 263.66 117.258 263.537C117.618 263.409 117.928 263.22 118.189 262.969C118.449 262.713 118.65 262.396 118.792 262.017L120.412 262.472C120.241 263.021 119.955 263.504 119.552 263.92C119.15 264.332 118.653 264.654 118.061 264.886C117.469 265.114 116.804 265.227 116.065 265.227ZM115.042 252.614L116.775 249.318H118.735L116.52 252.614H115.042ZM123.132 269.091V254.091H124.751V255.824H124.95C125.073 255.634 125.243 255.393 125.461 255.099C125.684 254.801 126.001 254.536 126.413 254.304C126.83 254.067 127.393 253.949 128.103 253.949C129.022 253.949 129.832 254.179 130.532 254.638C131.233 255.097 131.78 255.748 132.173 256.591C132.566 257.434 132.762 258.428 132.762 259.574C132.762 260.729 132.566 261.731 132.173 262.578C131.78 263.421 131.235 264.074 130.539 264.538C129.843 264.998 129.041 265.227 128.132 265.227C127.431 265.227 126.87 265.111 126.449 264.879C126.027 264.643 125.703 264.375 125.475 264.077C125.248 263.774 125.073 263.523 124.95 263.324H124.808V269.091H123.132ZM124.779 259.545C124.779 260.369 124.9 261.096 125.142 261.726C125.383 262.351 125.736 262.841 126.2 263.196C126.664 263.546 127.232 263.722 127.904 263.722C128.605 263.722 129.19 263.537 129.659 263.168C130.132 262.794 130.487 262.292 130.724 261.662C130.966 261.027 131.086 260.322 131.086 259.545C131.086 258.778 130.968 258.087 130.731 257.472C130.499 256.851 130.146 256.361 129.673 256.001C129.204 255.637 128.615 255.455 127.904 255.455C127.223 255.455 126.65 255.627 126.186 255.973C125.722 256.314 125.371 256.792 125.135 257.408C124.898 258.018 124.779 258.731 124.779 259.545ZM138.529 265.256C137.838 265.256 137.211 265.125 136.647 264.865C136.084 264.6 135.636 264.219 135.305 263.722C134.974 263.22 134.808 262.614 134.808 261.903C134.808 261.278 134.931 260.772 135.177 260.384C135.423 259.991 135.752 259.683 136.164 259.46C136.576 259.238 137.031 259.072 137.528 258.963C138.03 258.849 138.534 258.759 139.041 258.693C139.704 258.608 140.241 258.544 140.653 258.501C141.07 258.454 141.373 258.376 141.562 258.267C141.756 258.158 141.853 257.969 141.853 257.699V257.642C141.853 256.941 141.662 256.397 141.278 256.009C140.899 255.62 140.324 255.426 139.552 255.426C138.752 255.426 138.125 255.601 137.67 255.952C137.216 256.302 136.896 256.676 136.711 257.074L135.12 256.506C135.404 255.843 135.783 255.327 136.257 254.957C136.735 254.583 137.256 254.323 137.819 254.176C138.387 254.025 138.946 253.949 139.495 253.949C139.846 253.949 140.248 253.991 140.703 254.077C141.162 254.157 141.605 254.325 142.031 254.581C142.462 254.837 142.819 255.223 143.103 255.739C143.387 256.255 143.529 256.946 143.529 257.812V265H141.853V263.523H141.768C141.654 263.759 141.465 264.013 141.2 264.283C140.935 264.553 140.582 264.782 140.142 264.972C139.701 265.161 139.164 265.256 138.529 265.256ZM138.785 263.75C139.448 263.75 140.007 263.62 140.461 263.359C140.921 263.099 141.266 262.763 141.498 262.351C141.735 261.939 141.853 261.506 141.853 261.051V259.517C141.782 259.602 141.626 259.68 141.385 259.751C141.148 259.818 140.873 259.877 140.561 259.929C140.253 259.976 139.952 260.019 139.659 260.057C139.37 260.09 139.136 260.118 138.956 260.142C138.52 260.199 138.113 260.291 137.734 260.419C137.36 260.542 137.057 260.729 136.825 260.98C136.598 261.226 136.484 261.562 136.484 261.989C136.484 262.571 136.699 263.011 137.13 263.31C137.566 263.603 138.118 263.75 138.785 263.75ZM146.589 265V254.091H148.208V255.739H148.322C148.521 255.199 148.88 254.761 149.401 254.425C149.922 254.089 150.509 253.92 151.163 253.92C151.286 253.92 151.44 253.923 151.624 253.928C151.809 253.932 151.949 253.939 152.043 253.949V255.653C151.987 255.639 151.856 255.618 151.653 255.589C151.454 255.556 151.243 255.54 151.021 255.54C150.49 255.54 150.017 255.651 149.6 255.874C149.188 256.091 148.862 256.394 148.62 256.783C148.383 257.166 148.265 257.604 148.265 258.097V265H146.589ZM159.458 254.091V255.511H153.805V254.091H159.458ZM155.452 251.477H157.129V261.875C157.129 262.348 157.197 262.704 157.335 262.94C157.477 263.172 157.656 263.329 157.874 263.409C158.097 263.485 158.331 263.523 158.577 263.523C158.762 263.523 158.914 263.513 159.032 263.494C159.15 263.471 159.245 263.452 159.316 263.438L159.657 264.943C159.543 264.986 159.385 265.028 159.181 265.071C158.978 265.118 158.719 265.142 158.407 265.142C157.933 265.142 157.469 265.04 157.015 264.837C156.565 264.633 156.191 264.323 155.893 263.906C155.599 263.49 155.452 262.964 155.452 262.33V251.477Z" fill="black"/>
<path d="M20.7614 454V439.455H22.5227V445.932H30.2784V439.455H32.0398V454H30.2784V447.494H22.5227V454H20.7614ZM39.9126 454.227C38.8615 454.227 37.9548 453.995 37.1925 453.531C36.4349 453.062 35.8501 452.409 35.4382 451.571C35.031 450.728 34.8274 449.748 34.8274 448.631C34.8274 447.513 35.031 446.528 35.4382 445.676C35.8501 444.819 36.4231 444.152 37.157 443.673C37.8956 443.19 38.7573 442.949 39.7422 442.949C40.3104 442.949 40.8714 443.044 41.4254 443.233C41.9794 443.422 42.4837 443.73 42.9382 444.156C43.3928 444.578 43.755 445.136 44.0249 445.832C44.2947 446.528 44.4297 447.385 44.4297 448.403V449.114H36.0206V447.665H42.7251C42.7251 447.049 42.602 446.5 42.3558 446.017C42.1143 445.534 41.7687 445.153 41.3189 444.874C40.8738 444.594 40.3482 444.455 39.7422 444.455C39.0746 444.455 38.4969 444.62 38.0092 444.952C37.5263 445.278 37.1546 445.705 36.8942 446.23C36.6338 446.756 36.5036 447.319 36.5036 447.92V448.886C36.5036 449.71 36.6456 450.409 36.9297 450.982C37.2185 451.55 37.6186 451.983 38.13 452.281C38.6413 452.575 39.2356 452.722 39.9126 452.722C40.353 452.722 40.7507 452.66 41.1058 452.537C41.4657 452.409 41.7758 452.22 42.0362 451.969C42.2966 451.713 42.4979 451.396 42.6399 451.017L44.2592 451.472C44.0888 452.021 43.8023 452.504 43.3999 452.92C42.9974 453.332 42.5002 453.654 41.9084 453.886C41.3165 454.114 40.6513 454.227 39.9126 454.227ZM53.8544 449.54V443.091H55.5305V454H53.8544V452.153H53.7408C53.4851 452.707 53.0874 453.179 52.5476 453.567C52.0078 453.95 51.326 454.142 50.5021 454.142C49.8203 454.142 49.2143 453.993 48.6839 453.695C48.1536 453.392 47.737 452.937 47.4339 452.331C47.1309 451.72 46.9794 450.951 46.9794 450.023V443.091H48.6555V449.909C48.6555 450.705 48.8781 451.339 49.3232 451.812C49.773 452.286 50.3459 452.523 51.0419 452.523C51.4586 452.523 51.8823 452.416 52.3132 452.203C52.7488 451.99 53.1134 451.663 53.407 451.223C53.7053 450.783 53.8544 450.222 53.8544 449.54ZM58.6005 454V443.091H60.2198V444.739H60.3335C60.5323 444.199 60.8922 443.761 61.413 443.425C61.9338 443.089 62.521 442.92 63.1744 442.92C63.2975 442.92 63.4513 442.923 63.636 442.928C63.8207 442.932 63.9603 442.939 64.055 442.949V444.653C63.9982 444.639 63.868 444.618 63.6644 444.589C63.4656 444.556 63.2549 444.54 63.0323 444.54C62.502 444.54 62.0285 444.651 61.6119 444.874C61.1999 445.091 60.8732 445.394 60.6317 445.783C60.395 446.166 60.2766 446.604 60.2766 447.097V454H58.6005ZM70.2837 454.227C69.2326 454.227 68.3259 453.995 67.5636 453.531C66.806 453.062 66.2212 452.409 65.8093 451.571C65.4021 450.728 65.1985 449.748 65.1985 448.631C65.1985 447.513 65.4021 446.528 65.8093 445.676C66.2212 444.819 66.7942 444.152 67.5281 443.673C68.2667 443.19 69.1284 442.949 70.1133 442.949C70.6815 442.949 71.2425 443.044 71.7965 443.233C72.3505 443.422 72.8548 443.73 73.3093 444.156C73.7638 444.578 74.1261 445.136 74.396 445.832C74.6658 446.528 74.8008 447.385 74.8008 448.403V449.114H66.3917V447.665H73.0962C73.0962 447.049 72.9731 446.5 72.7269 446.017C72.4854 445.534 72.1398 445.153 71.69 444.874C71.2449 444.594 70.7193 444.455 70.1133 444.455C69.4457 444.455 68.868 444.62 68.3803 444.952C67.8974 445.278 67.5257 445.705 67.2653 446.23C67.0049 446.756 66.8746 447.319 66.8746 447.92V448.886C66.8746 449.71 67.0167 450.409 67.3008 450.982C67.5896 451.55 67.9897 451.983 68.5011 452.281C69.0124 452.575 69.6067 452.722 70.2837 452.722C70.7241 452.722 71.1218 452.66 71.4769 452.537C71.8368 452.409 72.1469 452.22 72.4073 451.969C72.6677 451.713 72.869 451.396 73.011 451.017L74.6303 451.472C74.4599 452.021 74.1734 452.504 73.771 452.92C73.3685 453.332 72.8713 453.654 72.2795 453.886C71.6876 454.114 71.0224 454.227 70.2837 454.227ZM85.0778 445.534L83.5721 445.96C83.4774 445.709 83.3377 445.465 83.1531 445.229C82.9731 444.987 82.7269 444.788 82.4144 444.632C82.1019 444.476 81.7018 444.398 81.2141 444.398C80.5465 444.398 79.9902 444.552 79.5451 444.859C79.1048 445.162 78.8846 445.548 78.8846 446.017C78.8846 446.434 79.0361 446.763 79.3391 447.004C79.6422 447.246 80.1156 447.447 80.7596 447.608L82.3789 448.006C83.3543 448.242 84.0811 448.605 84.5593 449.092C85.0375 449.575 85.2766 450.198 85.2766 450.96C85.2766 451.585 85.0967 452.144 84.7369 452.636C84.3817 453.129 83.8846 453.517 83.2454 453.801C82.6062 454.085 81.8628 454.227 81.0153 454.227C79.9026 454.227 78.9817 453.986 78.2525 453.503C77.5233 453.02 77.0617 452.314 76.8675 451.386L78.4585 450.989C78.61 451.576 78.8964 452.016 79.3178 452.31C79.744 452.603 80.3003 452.75 80.9869 452.75C81.7681 452.75 82.3884 452.584 82.8477 452.253C83.3117 451.917 83.5437 451.514 83.5437 451.045C83.5437 450.667 83.4111 450.349 83.146 450.094C82.8808 449.833 82.4736 449.639 81.9244 449.511L80.1062 449.085C79.1071 448.848 78.3732 448.482 77.9045 447.984C77.4405 447.482 77.2085 446.855 77.2085 446.102C77.2085 445.487 77.3813 444.942 77.7269 444.469C78.0773 443.995 78.5531 443.624 79.1545 443.354C79.7605 443.084 80.4471 442.949 81.2141 442.949C82.2937 442.949 83.1412 443.186 83.7567 443.659C84.377 444.133 84.8174 444.758 85.0778 445.534ZM97.544 454.227C96.6349 454.227 95.8324 453.998 95.1364 453.538C94.4403 453.074 93.8958 452.421 93.5028 451.578C93.1098 450.731 92.9134 449.729 92.9134 448.574C92.9134 447.428 93.1098 446.434 93.5028 445.591C93.8958 444.748 94.4427 444.097 95.1435 443.638C95.8442 443.179 96.6539 442.949 97.5724 442.949C98.2827 442.949 98.8438 443.067 99.2557 443.304C99.6723 443.536 99.9896 443.801 100.207 444.099C100.43 444.393 100.603 444.634 100.726 444.824H100.868V439.455H102.544V454H100.925V452.324H100.726C100.603 452.523 100.428 452.774 100.2 453.077C99.973 453.375 99.6487 453.643 99.2273 453.879C98.8059 454.111 98.2448 454.227 97.544 454.227ZM97.7713 452.722C98.4437 452.722 99.0118 452.546 99.4759 452.196C99.9399 451.841 100.293 451.351 100.534 450.726C100.776 450.096 100.896 449.369 100.896 448.545C100.896 447.731 100.778 447.018 100.541 446.408C100.304 445.792 99.9541 445.314 99.4901 444.973C99.026 444.627 98.4531 444.455 97.7713 444.455C97.0611 444.455 96.4692 444.637 95.9957 445.001C95.527 445.361 95.1742 445.851 94.9375 446.472C94.7055 447.087 94.5895 447.778 94.5895 448.545C94.5895 449.322 94.7079 450.027 94.9446 450.662C95.1861 451.292 95.5412 451.794 96.0099 452.168C96.4834 452.537 97.0705 452.722 97.7713 452.722ZM110.42 454.227C109.369 454.227 108.463 453.995 107.7 453.531C106.943 453.062 106.358 452.409 105.946 451.571C105.539 450.728 105.335 449.748 105.335 448.631C105.335 447.513 105.539 446.528 105.946 445.676C106.358 444.819 106.931 444.152 107.665 443.673C108.403 443.19 109.265 442.949 110.25 442.949C110.818 442.949 111.379 443.044 111.933 443.233C112.487 443.422 112.991 443.73 113.446 444.156C113.901 444.578 114.263 445.136 114.533 445.832C114.803 446.528 114.938 447.385 114.938 448.403V449.114H106.528V447.665H113.233C113.233 447.049 113.11 446.5 112.864 446.017C112.622 445.534 112.277 445.153 111.827 444.874C111.382 444.594 110.856 444.455 110.25 444.455C109.582 444.455 109.005 444.62 108.517 444.952C108.034 445.278 107.662 445.705 107.402 446.23C107.142 446.756 107.011 447.319 107.011 447.92V448.886C107.011 449.71 107.153 450.409 107.438 450.982C107.726 451.55 108.126 451.983 108.638 452.281C109.149 452.575 109.743 452.722 110.42 452.722C110.861 452.722 111.259 452.66 111.614 452.537C111.973 452.409 112.284 452.22 112.544 451.969C112.804 451.713 113.006 451.396 113.148 451.017L114.767 451.472C114.597 452.021 114.31 452.504 113.908 452.92C113.505 453.332 113.008 453.654 112.416 453.886C111.824 454.114 111.159 454.227 110.42 454.227ZM127.232 454.227C126.322 454.227 125.52 453.998 124.824 453.538C124.128 453.074 123.583 452.421 123.19 451.578C122.797 450.731 122.601 449.729 122.601 448.574C122.601 447.428 122.797 446.434 123.19 445.591C123.583 444.748 124.13 444.097 124.831 443.638C125.532 443.179 126.341 442.949 127.26 442.949C127.97 442.949 128.531 443.067 128.943 443.304C129.36 443.536 129.677 443.801 129.895 444.099C130.117 444.393 130.29 444.634 130.413 444.824H130.555V439.455H132.232V454H130.612V452.324H130.413C130.29 452.523 130.115 452.774 129.888 453.077C129.661 453.375 129.336 453.643 128.915 453.879C128.493 454.111 127.932 454.227 127.232 454.227ZM127.459 452.722C128.131 452.722 128.699 452.546 129.163 452.196C129.627 451.841 129.98 451.351 130.222 450.726C130.463 450.096 130.584 449.369 130.584 448.545C130.584 447.731 130.465 447.018 130.229 446.408C129.992 445.792 129.642 445.314 129.178 444.973C128.714 444.627 128.141 444.455 127.459 444.455C126.749 444.455 126.157 444.637 125.683 445.001C125.214 445.361 124.862 445.851 124.625 446.472C124.393 447.087 124.277 447.778 124.277 448.545C124.277 449.322 124.395 450.027 124.632 450.662C124.874 451.292 125.229 451.794 125.697 452.168C126.171 452.537 126.758 452.722 127.459 452.722ZM140.108 454.227C139.057 454.227 138.15 453.995 137.388 453.531C136.63 453.062 136.045 452.409 135.634 451.571C135.226 450.728 135.023 449.748 135.023 448.631C135.023 447.513 135.226 446.528 135.634 445.676C136.045 444.819 136.618 444.152 137.352 443.673C138.091 443.19 138.953 442.949 139.938 442.949C140.506 442.949 141.067 443.044 141.621 443.233C142.175 443.422 142.679 443.73 143.134 444.156C143.588 444.578 143.95 445.136 144.22 445.832C144.49 446.528 144.625 447.385 144.625 448.403V449.114H136.216V447.665H142.92C142.92 447.049 142.797 446.5 142.551 446.017C142.31 445.534 141.964 445.153 141.514 444.874C141.069 444.594 140.544 444.455 139.938 444.455C139.27 444.455 138.692 444.62 138.205 444.952C137.722 445.278 137.35 445.705 137.089 446.23C136.829 446.756 136.699 447.319 136.699 447.92V448.886C136.699 449.71 136.841 450.409 137.125 450.982C137.414 451.55 137.814 451.983 138.325 452.281C138.837 452.575 139.431 452.722 140.108 452.722C140.548 452.722 140.946 452.66 141.301 452.537C141.661 452.409 141.971 452.22 142.232 451.969C142.492 451.713 142.693 451.396 142.835 451.017L144.455 451.472C144.284 452.021 143.998 452.504 143.595 452.92C143.193 453.332 142.696 453.654 142.104 453.886C141.512 454.114 140.847 454.227 140.108 454.227ZM139.085 441.614L140.818 438.318H142.778L140.562 441.614H139.085ZM147.175 458.091V443.091H148.794V444.824H148.993C149.116 444.634 149.286 444.393 149.504 444.099C149.727 443.801 150.044 443.536 150.456 443.304C150.873 443.067 151.436 442.949 152.146 442.949C153.065 442.949 153.875 443.179 154.575 443.638C155.276 444.097 155.823 444.748 156.216 445.591C156.609 446.434 156.805 447.428 156.805 448.574C156.805 449.729 156.609 450.731 156.216 451.578C155.823 452.421 155.278 453.074 154.582 453.538C153.886 453.998 153.084 454.227 152.175 454.227C151.474 454.227 150.913 454.111 150.491 453.879C150.07 453.643 149.746 453.375 149.518 453.077C149.291 452.774 149.116 452.523 148.993 452.324H148.851V458.091H147.175ZM148.822 448.545C148.822 449.369 148.943 450.096 149.185 450.726C149.426 451.351 149.779 451.841 150.243 452.196C150.707 452.546 151.275 452.722 151.947 452.722C152.648 452.722 153.233 452.537 153.702 452.168C154.175 451.794 154.53 451.292 154.767 450.662C155.009 450.027 155.129 449.322 155.129 448.545C155.129 447.778 155.011 447.087 154.774 446.472C154.542 445.851 154.189 445.361 153.716 445.001C153.247 444.637 152.658 444.455 151.947 444.455C151.266 444.455 150.693 444.627 150.229 444.973C149.765 445.314 149.414 445.792 149.178 446.408C148.941 447.018 148.822 447.731 148.822 448.545ZM162.572 454.256C161.881 454.256 161.254 454.125 160.69 453.865C160.127 453.6 159.679 453.219 159.348 452.722C159.017 452.22 158.851 451.614 158.851 450.903C158.851 450.278 158.974 449.772 159.22 449.384C159.466 448.991 159.795 448.683 160.207 448.46C160.619 448.238 161.074 448.072 161.571 447.963C162.073 447.849 162.577 447.759 163.084 447.693C163.747 447.608 164.284 447.544 164.696 447.501C165.113 447.454 165.416 447.376 165.605 447.267C165.799 447.158 165.896 446.969 165.896 446.699V446.642C165.896 445.941 165.705 445.397 165.321 445.009C164.942 444.62 164.367 444.426 163.595 444.426C162.795 444.426 162.168 444.601 161.713 444.952C161.259 445.302 160.939 445.676 160.754 446.074L159.163 445.506C159.447 444.843 159.826 444.327 160.3 443.957C160.778 443.583 161.299 443.323 161.862 443.176C162.43 443.025 162.989 442.949 163.538 442.949C163.889 442.949 164.291 442.991 164.746 443.077C165.205 443.157 165.648 443.325 166.074 443.581C166.505 443.837 166.862 444.223 167.146 444.739C167.43 445.255 167.572 445.946 167.572 446.812V454H165.896V452.523H165.811C165.697 452.759 165.508 453.013 165.243 453.283C164.978 453.553 164.625 453.782 164.185 453.972C163.744 454.161 163.207 454.256 162.572 454.256ZM162.828 452.75C163.491 452.75 164.05 452.62 164.504 452.359C164.964 452.099 165.309 451.763 165.541 451.351C165.778 450.939 165.896 450.506 165.896 450.051V448.517C165.825 448.602 165.669 448.68 165.428 448.751C165.191 448.818 164.916 448.877 164.604 448.929C164.296 448.976 163.995 449.019 163.702 449.057C163.413 449.09 163.179 449.118 162.999 449.142C162.563 449.199 162.156 449.291 161.777 449.419C161.403 449.542 161.1 449.729 160.868 449.98C160.641 450.226 160.527 450.562 160.527 450.989C160.527 451.571 160.742 452.011 161.173 452.31C161.609 452.603 162.161 452.75 162.828 452.75ZM170.632 454V443.091H172.251V444.739H172.365C172.564 444.199 172.923 443.761 173.444 443.425C173.965 443.089 174.552 442.92 175.206 442.92C175.329 442.92 175.483 442.923 175.667 442.928C175.852 442.932 175.992 442.939 176.086 442.949V444.653C176.029 444.639 175.899 444.618 175.696 444.589C175.497 444.556 175.286 444.54 175.064 444.54C174.533 444.54 174.06 444.651 173.643 444.874C173.231 445.091 172.904 445.394 172.663 445.783C172.426 446.166 172.308 446.604 172.308 447.097V454H170.632ZM183.501 443.091V444.511H177.848V443.091H183.501ZM179.495 440.477H181.172V450.875C181.172 451.348 181.24 451.704 181.377 451.94C181.52 452.172 181.699 452.329 181.917 452.409C182.14 452.485 182.374 452.523 182.62 452.523C182.805 452.523 182.957 452.513 183.075 452.494C183.193 452.471 183.288 452.452 183.359 452.438L183.7 453.943C183.586 453.986 183.428 454.028 183.224 454.071C183.02 454.118 182.762 454.142 182.45 454.142C181.976 454.142 181.512 454.04 181.058 453.837C180.608 453.633 180.234 453.323 179.936 452.906C179.642 452.49 179.495 451.964 179.495 451.33V440.477ZM196.221 454.227C195.17 454.227 194.263 453.995 193.501 453.531C192.743 453.062 192.159 452.409 191.747 451.571C191.34 450.728 191.136 449.748 191.136 448.631C191.136 447.513 191.34 446.528 191.747 445.676C192.159 444.819 192.732 444.152 193.466 443.673C194.204 443.19 195.066 442.949 196.051 442.949C196.619 442.949 197.18 443.044 197.734 443.233C198.288 443.422 198.792 443.73 199.247 444.156C199.701 444.578 200.064 445.136 200.333 445.832C200.603 446.528 200.738 447.385 200.738 448.403V449.114H192.329V447.665H199.034C199.034 447.049 198.911 446.5 198.664 446.017C198.423 445.534 198.077 445.153 197.627 444.874C197.182 444.594 196.657 444.455 196.051 444.455C195.383 444.455 194.806 444.62 194.318 444.952C193.835 445.278 193.463 445.705 193.203 446.23C192.942 446.756 192.812 447.319 192.812 447.92V448.886C192.812 449.71 192.954 450.409 193.238 450.982C193.527 451.55 193.927 451.983 194.439 452.281C194.95 452.575 195.544 452.722 196.221 452.722C196.662 452.722 197.059 452.66 197.414 452.537C197.774 452.409 198.084 452.22 198.345 451.969C198.605 451.713 198.806 451.396 198.949 451.017L200.568 451.472C200.397 452.021 200.111 452.504 199.708 452.92C199.306 453.332 198.809 453.654 198.217 453.886C197.625 454.114 196.96 454.227 196.221 454.227ZM208.032 443.091V444.511H202.379V443.091H208.032ZM204.027 440.477H205.703V450.875C205.703 451.348 205.771 451.704 205.909 451.94C206.051 452.172 206.231 452.329 206.449 452.409C206.671 452.485 206.905 452.523 207.152 452.523C207.336 452.523 207.488 452.513 207.606 452.494C207.725 452.471 207.819 452.452 207.89 452.438L208.231 453.943C208.118 453.986 207.959 454.028 207.755 454.071C207.552 454.118 207.294 454.142 206.981 454.142C206.508 454.142 206.044 454.04 205.589 453.837C205.139 453.633 204.765 453.323 204.467 452.906C204.173 452.49 204.027 451.964 204.027 451.33V440.477ZM220.298 454.227C219.389 454.227 218.586 453.998 217.89 453.538C217.194 453.074 216.65 452.421 216.257 451.578C215.864 450.731 215.667 449.729 215.667 448.574C215.667 447.428 215.864 446.434 216.257 445.591C216.65 444.748 217.197 444.097 217.897 443.638C218.598 443.179 219.408 442.949 220.326 442.949C221.037 442.949 221.598 443.067 222.01 443.304C222.426 443.536 222.743 443.801 222.961 444.099C223.184 444.393 223.357 444.634 223.48 444.824H223.622V439.455H225.298V454H223.679V452.324H223.48C223.357 452.523 223.181 452.774 222.954 453.077C222.727 453.375 222.403 453.643 221.981 453.879C221.56 454.111 220.999 454.227 220.298 454.227ZM220.525 452.722C221.198 452.722 221.766 452.546 222.23 452.196C222.694 451.841 223.047 451.351 223.288 450.726C223.529 450.096 223.65 449.369 223.65 448.545C223.65 447.731 223.532 447.018 223.295 446.408C223.058 445.792 222.708 445.314 222.244 444.973C221.78 444.627 221.207 444.455 220.525 444.455C219.815 444.455 219.223 444.637 218.75 445.001C218.281 445.361 217.928 445.851 217.691 446.472C217.459 447.087 217.343 447.778 217.343 448.545C217.343 449.322 217.462 450.027 217.699 450.662C217.94 451.292 218.295 451.794 218.764 452.168C219.237 452.537 219.824 452.722 220.525 452.722ZM230.078 439.455V440.733C230.078 441.121 230.007 441.536 229.865 441.976C229.727 442.411 229.524 442.835 229.254 443.247C228.989 443.654 228.667 444.009 228.288 444.312L227.379 443.574C227.677 443.148 227.935 442.705 228.153 442.246C228.376 441.782 228.487 441.287 228.487 440.761V439.455H230.078ZM234.369 454.256C233.678 454.256 233.051 454.125 232.487 453.865C231.924 453.6 231.476 453.219 231.145 452.722C230.813 452.22 230.648 451.614 230.648 450.903C230.648 450.278 230.771 449.772 231.017 449.384C231.263 448.991 231.592 448.683 232.004 448.46C232.416 448.238 232.871 448.072 233.368 447.963C233.87 447.849 234.374 447.759 234.881 447.693C235.544 447.608 236.081 447.544 236.493 447.501C236.91 447.454 237.213 447.376 237.402 447.267C237.596 447.158 237.693 446.969 237.693 446.699V446.642C237.693 445.941 237.501 445.397 237.118 445.009C236.739 444.62 236.164 444.426 235.392 444.426C234.592 444.426 233.964 444.601 233.51 444.952C233.055 445.302 232.736 445.676 232.551 446.074L230.96 445.506C231.244 444.843 231.623 444.327 232.097 443.957C232.575 443.583 233.096 443.323 233.659 443.176C234.227 443.025 234.786 442.949 235.335 442.949C235.686 442.949 236.088 442.991 236.543 443.077C237.002 443.157 237.445 443.325 237.871 443.581C238.302 443.837 238.659 444.223 238.943 444.739C239.227 445.255 239.369 445.946 239.369 446.812V454H237.693V452.523H237.608C237.494 452.759 237.305 453.013 237.04 453.283C236.775 453.553 236.422 453.782 235.982 453.972C235.541 454.161 235.004 454.256 234.369 454.256ZM234.625 452.75C235.288 452.75 235.847 452.62 236.301 452.359C236.76 452.099 237.106 451.763 237.338 451.351C237.575 450.939 237.693 450.506 237.693 450.051V448.517C237.622 448.602 237.466 448.68 237.224 448.751C236.988 448.818 236.713 448.877 236.401 448.929C236.093 448.976 235.792 449.019 235.499 449.057C235.21 449.09 234.975 449.118 234.795 449.142C234.36 449.199 233.953 449.291 233.574 449.419C233.2 449.542 232.897 449.729 232.665 449.98C232.438 450.226 232.324 450.562 232.324 450.989C232.324 451.571 232.539 452.011 232.97 452.31C233.406 452.603 233.957 452.75 234.625 452.75ZM242.429 454V443.091H244.048V444.739H244.162C244.36 444.199 244.72 443.761 245.241 443.425C245.762 443.089 246.349 442.92 247.002 442.92C247.126 442.92 247.279 442.923 247.464 442.928C247.649 442.932 247.788 442.939 247.883 442.949V444.653C247.826 444.639 247.696 444.618 247.493 444.589C247.294 444.556 247.083 444.54 246.86 444.54C246.33 444.54 245.857 444.651 245.44 444.874C245.028 445.091 244.701 445.394 244.46 445.783C244.223 446.166 244.105 446.604 244.105 447.097V454H242.429ZM249.87 454V443.091H251.489V444.739H251.603C251.802 444.199 252.162 443.761 252.683 443.425C253.203 443.089 253.79 442.92 254.444 442.92C254.567 442.92 254.721 442.923 254.906 442.928C255.09 442.932 255.23 442.939 255.325 442.949V444.653C255.268 444.639 255.138 444.618 254.934 444.589C254.735 444.556 254.524 444.54 254.302 444.54C253.772 444.54 253.298 444.651 252.881 444.874C252.469 445.091 252.143 445.394 251.901 445.783C251.665 446.166 251.546 446.604 251.546 447.097V454H249.87ZM257.311 454V443.091H258.988V454H257.311ZM258.164 441.273C257.837 441.273 257.555 441.161 257.319 440.939C257.087 440.716 256.971 440.449 256.971 440.136C256.971 439.824 257.087 439.556 257.319 439.334C257.555 439.111 257.837 439 258.164 439C258.49 439 258.77 439.111 259.002 439.334C259.239 439.556 259.357 439.824 259.357 440.136C259.357 440.449 259.239 440.716 259.002 440.939C258.77 441.161 258.49 441.273 258.164 441.273ZM270.978 443.091L266.944 454H265.239L261.205 443.091H263.023L266.035 451.784H266.148L269.16 443.091H270.978ZM277.374 454.227C276.322 454.227 275.416 453.995 274.653 453.531C273.896 453.062 273.311 452.409 272.899 451.571C272.492 450.728 272.288 449.748 272.288 448.631C272.288 447.513 272.492 446.528 272.899 445.676C273.311 444.819 273.884 444.152 274.618 443.673C275.357 443.19 276.218 442.949 277.203 442.949C277.771 442.949 278.332 443.044 278.886 443.233C279.44 443.422 279.945 443.73 280.399 444.156C280.854 444.578 281.216 445.136 281.486 445.832C281.756 446.528 281.891 447.385 281.891 448.403V449.114H273.482V447.665H280.186C280.186 447.049 280.063 446.5 279.817 446.017C279.575 445.534 279.23 445.153 278.78 444.874C278.335 444.594 277.809 444.455 277.203 444.455C276.536 444.455 275.958 444.62 275.47 444.952C274.987 445.278 274.616 445.705 274.355 446.23C274.095 446.756 273.964 447.319 273.964 447.92V448.886C273.964 449.71 274.107 450.409 274.391 450.982C274.679 451.55 275.08 451.983 275.591 452.281C276.102 452.575 276.696 452.722 277.374 452.722C277.814 452.722 278.212 452.66 278.567 452.537C278.927 452.409 279.237 452.22 279.497 451.969C279.758 451.713 279.959 451.396 280.101 451.017L281.72 451.472C281.55 452.021 281.263 452.504 280.861 452.92C280.458 453.332 279.961 453.654 279.369 453.886C278.777 454.114 278.112 454.227 277.374 454.227ZM276.351 441.614L278.084 438.318H280.044L277.828 441.614H276.351ZM289.014 454.227C287.963 454.227 287.056 453.995 286.294 453.531C285.536 453.062 284.952 452.409 284.54 451.571C284.133 450.728 283.929 449.748 283.929 448.631C283.929 447.513 284.133 446.528 284.54 445.676C284.952 444.819 285.525 444.152 286.259 443.673C286.997 443.19 287.859 442.949 288.844 442.949C289.412 442.949 289.973 443.044 290.527 443.233C291.081 443.422 291.585 443.73 292.04 444.156C292.494 444.578 292.857 445.136 293.126 445.832C293.396 446.528 293.531 447.385 293.531 448.403V449.114H285.122V447.665H291.827C291.827 447.049 291.704 446.5 291.457 446.017C291.216 445.534 290.87 445.153 290.42 444.874C289.975 444.594 289.45 444.455 288.844 444.455C288.176 444.455 287.598 444.62 287.111 444.952C286.628 445.278 286.256 445.705 285.996 446.23C285.735 446.756 285.605 447.319 285.605 447.92V448.886C285.605 449.71 285.747 450.409 286.031 450.982C286.32 451.55 286.72 451.983 287.232 452.281C287.743 452.575 288.337 452.722 289.014 452.722C289.455 452.722 289.852 452.66 290.207 452.537C290.567 452.409 290.877 452.22 291.138 451.969C291.398 451.713 291.599 451.396 291.741 451.017L293.361 451.472C293.19 452.021 292.904 452.504 292.501 452.92C292.099 453.332 291.602 453.654 291.01 453.886C290.418 454.114 289.753 454.227 289.014 454.227Z" fill="black"/>
<path d="M39.7159 629.091C39.6307 628.371 39.285 627.812 38.679 627.415C38.0729 627.017 37.3295 626.818 36.4489 626.818C35.8049 626.818 35.2415 626.922 34.7585 627.131C34.2803 627.339 33.9063 627.625 33.6364 627.99C33.3712 628.355 33.2386 628.769 33.2386 629.233C33.2386 629.621 33.331 629.955 33.5156 630.234C33.705 630.509 33.9465 630.739 34.2401 630.923C34.5336 631.103 34.8414 631.252 35.1634 631.371C35.4853 631.484 35.7812 631.577 36.0511 631.648L37.5284 632.045C37.9072 632.145 38.3286 632.282 38.7926 632.457C39.2614 632.633 39.7088 632.872 40.1349 633.175C40.5658 633.473 40.9209 633.857 41.2003 634.325C41.4796 634.794 41.6193 635.369 41.6193 636.051C41.6193 636.837 41.4134 637.547 41.0014 638.182C40.5942 638.816 39.9976 639.321 39.2116 639.695C38.4304 640.069 37.4811 640.256 36.3636 640.256C35.322 640.256 34.42 640.088 33.6577 639.751C32.9001 639.415 32.3035 638.946 31.8679 638.345C31.437 637.744 31.1932 637.045 31.1364 636.25H32.9545C33.0019 636.799 33.1866 637.254 33.5085 637.614C33.8352 637.969 34.2472 638.234 34.7443 638.409C35.2462 638.58 35.786 638.665 36.3636 638.665C37.036 638.665 37.6397 638.556 38.1747 638.338C38.7098 638.116 39.1335 637.808 39.446 637.415C39.7585 637.017 39.9148 636.553 39.9148 636.023C39.9148 635.54 39.7798 635.147 39.5099 634.844C39.2401 634.541 38.8849 634.295 38.4446 634.105C38.0043 633.916 37.5284 633.75 37.017 633.608L35.2273 633.097C34.0909 632.77 33.1913 632.304 32.5284 631.697C31.8655 631.091 31.5341 630.298 31.5341 629.318C31.5341 628.504 31.7543 627.794 32.1946 627.188C32.6397 626.577 33.2363 626.103 33.9844 625.767C34.7372 625.426 35.5777 625.256 36.5057 625.256C37.4432 625.256 38.2765 625.424 39.0057 625.76C39.7348 626.091 40.3125 626.546 40.7386 627.124C41.1695 627.701 41.3968 628.357 41.4205 629.091H39.7159ZM49.0323 629.091V630.511H43.3789V629.091H49.0323ZM45.0266 626.477H46.7028V636.875C46.7028 637.348 46.7714 637.704 46.9087 637.94C47.0508 638.172 47.2307 638.329 47.4485 638.409C47.671 638.485 47.9054 638.523 48.1516 638.523C48.3363 638.523 48.4878 638.513 48.6062 638.494C48.7246 638.471 48.8192 638.452 48.8903 638.438L49.2312 639.943C49.1175 639.986 48.9589 640.028 48.7553 640.071C48.5517 640.118 48.2937 640.142 47.9812 640.142C47.5077 640.142 47.0437 640.04 46.5891 639.837C46.1393 639.633 45.7653 639.323 45.467 638.906C45.1734 638.49 45.0266 637.964 45.0266 637.33V626.477ZM54.7638 640.256C54.0726 640.256 53.4452 640.125 52.8817 639.865C52.3183 639.6 51.8709 639.219 51.5394 638.722C51.208 638.22 51.0423 637.614 51.0423 636.903C51.0423 636.278 51.1654 635.772 51.4116 635.384C51.6578 634.991 51.9869 634.683 52.3988 634.46C52.8107 634.238 53.2653 634.072 53.7624 633.963C54.2643 633.849 54.7686 633.759 55.2752 633.693C55.9381 633.608 56.4755 633.544 56.8874 633.501C57.3041 633.454 57.6071 633.376 57.7965 633.267C57.9906 633.158 58.0877 632.969 58.0877 632.699V632.642C58.0877 631.941 57.896 631.397 57.5124 631.009C57.1336 630.62 56.5584 630.426 55.7866 630.426C54.9864 630.426 54.359 630.601 53.9045 630.952C53.4499 631.302 53.1303 631.676 52.9457 632.074L51.3548 631.506C51.6388 630.843 52.0176 630.327 52.4911 629.957C52.9693 629.583 53.4902 629.323 54.0536 629.176C54.6218 629.025 55.1805 628.949 55.7298 628.949C56.0801 628.949 56.4826 628.991 56.9371 629.077C57.3964 629.157 57.8391 629.325 58.2653 629.581C58.6961 629.837 59.0536 630.223 59.3377 630.739C59.6218 631.255 59.7638 631.946 59.7638 632.812V640H58.0877V638.523H58.0025C57.8888 638.759 57.6995 639.013 57.4343 639.283C57.1692 639.553 56.8164 639.782 56.3761 639.972C55.9357 640.161 55.3983 640.256 54.7638 640.256ZM55.0195 638.75C55.6824 638.75 56.2411 638.62 56.6957 638.359C57.1549 638.099 57.5006 637.763 57.7326 637.351C57.9693 636.939 58.0877 636.506 58.0877 636.051V634.517C58.0167 634.602 57.8604 634.68 57.619 634.751C57.3822 634.818 57.1076 634.877 56.7951 634.929C56.4873 634.976 56.1867 635.019 55.8931 635.057C55.6043 635.09 55.3699 635.118 55.19 635.142C54.7544 635.199 54.3472 635.291 53.9684 635.419C53.5943 635.542 53.2913 635.729 53.0593 635.98C52.832 636.226 52.7184 636.562 52.7184 636.989C52.7184 637.571 52.9338 638.011 53.3647 638.31C53.8003 638.603 54.3519 638.75 55.0195 638.75ZM67.5675 629.091V630.511H61.9141V629.091H67.5675ZM63.5618 626.477H65.2379V636.875C65.2379 637.348 65.3066 637.704 65.4439 637.94C65.5859 638.172 65.7659 638.329 65.9837 638.409C66.2062 638.485 66.4406 638.523 66.6868 638.523C66.8714 638.523 67.023 638.513 67.1413 638.494C67.2597 638.471 67.3544 638.452 67.4254 638.438L67.7663 639.943C67.6527 639.986 67.4941 640.028 67.2905 640.071C67.0869 640.118 66.8288 640.142 66.5163 640.142C66.0429 640.142 65.5788 640.04 65.1243 639.837C64.6745 639.633 64.3004 639.323 64.0021 638.906C63.7086 638.49 63.5618 637.964 63.5618 637.33V626.477ZM76.9638 635.54V629.091H78.6399V640H76.9638V638.153H76.8501C76.5945 638.707 76.1967 639.179 75.657 639.567C75.1172 639.95 74.4354 640.142 73.6115 640.142C72.9297 640.142 72.3236 639.993 71.7933 639.695C71.263 639.392 70.8464 638.937 70.5433 638.331C70.2403 637.72 70.0888 636.951 70.0888 636.023V629.091H71.7649V635.909C71.7649 636.705 71.9875 637.339 72.4325 637.812C72.8823 638.286 73.4553 638.523 74.1513 638.523C74.5679 638.523 74.9917 638.416 75.4226 638.203C75.8582 637.99 76.2228 637.663 76.5163 637.223C76.8146 636.783 76.9638 636.222 76.9638 635.54ZM86.4542 629.091V630.511H80.8008V629.091H86.4542ZM82.4485 626.477H84.1246V636.875C84.1246 637.348 84.1933 637.704 84.3306 637.94C84.4727 638.172 84.6526 638.329 84.8704 638.409C85.0929 638.485 85.3273 638.523 85.5735 638.523C85.7582 638.523 85.9097 638.513 86.0281 638.494C86.1464 638.471 86.2411 638.452 86.3121 638.438L86.6531 639.943C86.5394 639.986 86.3808 640.028 86.1772 640.071C85.9736 640.118 85.7156 640.142 85.4031 640.142C84.9296 640.142 84.4656 640.04 84.011 639.837C83.5612 639.633 83.1871 639.323 82.8888 638.906C82.5953 638.49 82.4485 637.964 82.4485 637.33V626.477Z" fill="black"/>
<path d="M33.5227 738.455V753H31.7614V738.455H33.5227ZM38.5032 746.438V753H36.8271V742.091H38.4464V743.795H38.5884C38.8441 743.241 39.2324 742.796 39.7532 742.46C40.274 742.119 40.9464 741.949 41.7702 741.949C42.5089 741.949 43.1552 742.1 43.7092 742.403C44.2631 742.702 44.694 743.156 45.0018 743.767C45.3095 744.373 45.4634 745.14 45.4634 746.068V753H43.7873V746.182C43.7873 745.325 43.5647 744.657 43.1197 744.179C42.6746 743.696 42.0638 743.455 41.2873 743.455C40.7522 743.455 40.274 743.571 39.8526 743.803C39.436 744.035 39.1069 744.373 38.8654 744.818C38.6239 745.263 38.5032 745.803 38.5032 746.438ZM53.3842 742.091V743.511H47.5036V742.091H53.3842ZM49.2649 753V740.585C49.2649 739.96 49.4117 739.439 49.7053 739.023C49.9988 738.606 50.38 738.294 50.8487 738.085C51.3175 737.877 51.8123 737.773 52.3331 737.773C52.745 737.773 53.0812 737.806 53.3416 737.872C53.602 737.938 53.7962 738 53.924 738.057L53.4411 739.506C53.3558 739.477 53.2375 739.442 53.0859 739.399C52.9392 739.357 52.745 739.335 52.5036 739.335C51.9496 739.335 51.5495 739.475 51.3033 739.754C51.0618 740.034 50.9411 740.443 50.9411 740.983V753H49.2649ZM59.7159 753.227C58.7311 753.227 57.867 752.993 57.1236 752.524C56.3849 752.055 55.8073 751.4 55.3906 750.557C54.9787 749.714 54.7727 748.729 54.7727 747.602C54.7727 746.466 54.9787 745.474 55.3906 744.626C55.8073 743.779 56.3849 743.121 57.1236 742.652C57.867 742.183 58.7311 741.949 59.7159 741.949C60.7008 741.949 61.5625 742.183 62.3011 742.652C63.0445 743.121 63.6222 743.779 64.0341 744.626C64.4508 745.474 64.6591 746.466 64.6591 747.602C64.6591 748.729 64.4508 749.714 64.0341 750.557C63.6222 751.4 63.0445 752.055 62.3011 752.524C61.5625 752.993 60.7008 753.227 59.7159 753.227ZM59.7159 751.722C60.464 751.722 61.0795 751.53 61.5625 751.146C62.0455 750.763 62.4029 750.259 62.6349 749.634C62.867 749.009 62.983 748.331 62.983 747.602C62.983 746.873 62.867 746.194 62.6349 745.564C62.4029 744.934 62.0455 744.425 61.5625 744.037C61.0795 743.649 60.464 743.455 59.7159 743.455C58.9678 743.455 58.3523 743.649 57.8693 744.037C57.3864 744.425 57.0289 744.934 56.7969 745.564C56.5649 746.194 56.4489 746.873 56.4489 747.602C56.4489 748.331 56.5649 749.009 56.7969 749.634C57.0289 750.259 57.3864 750.763 57.8693 751.146C58.3523 751.53 58.9678 751.722 59.7159 751.722ZM67.2177 753V742.091H68.837V743.739H68.9506C69.1495 743.199 69.5094 742.761 70.0302 742.425C70.551 742.089 71.1381 741.92 71.7915 741.92C71.9147 741.92 72.0685 741.923 72.2532 741.928C72.4379 741.932 72.5775 741.939 72.6722 741.949V743.653C72.6154 743.639 72.4852 743.618 72.2816 743.589C72.0827 743.556 71.872 743.54 71.6495 743.54C71.1192 743.54 70.6457 743.651 70.229 743.874C69.8171 744.091 69.4904 744.394 69.2489 744.783C69.0122 745.166 68.8938 745.604 68.8938 746.097V753H67.2177ZM74.6591 753V742.091H76.2784V743.795H76.4205C76.6477 743.213 77.0147 742.761 77.5213 742.439C78.0279 742.112 78.6364 741.949 79.3466 741.949C80.0663 741.949 80.6652 742.112 81.1435 742.439C81.6264 742.761 82.0028 743.213 82.2727 743.795H82.3864C82.6657 743.232 83.0848 742.785 83.6435 742.453C84.2022 742.117 84.8722 741.949 85.6534 741.949C86.6288 741.949 87.4266 742.254 88.0469 742.865C88.6671 743.471 88.9773 744.416 88.9773 745.699V753H87.3011V745.699C87.3011 744.894 87.081 744.319 86.6406 743.973C86.2003 743.627 85.6818 743.455 85.0852 743.455C84.3182 743.455 83.724 743.687 83.3026 744.151C82.8812 744.61 82.6705 745.192 82.6705 745.898V753H80.9659V745.528C80.9659 744.908 80.7647 744.409 80.3622 744.03C79.9598 743.646 79.4413 743.455 78.8068 743.455C78.3712 743.455 77.964 743.571 77.5852 743.803C77.2112 744.035 76.9081 744.357 76.6761 744.768C76.4489 745.176 76.3352 745.647 76.3352 746.182V753H74.6591ZM95.2521 753.256C94.5608 753.256 93.9335 753.125 93.37 752.865C92.8066 752.6 92.3591 752.219 92.0277 751.722C91.6963 751.22 91.5305 750.614 91.5305 749.903C91.5305 749.278 91.6536 748.772 91.8999 748.384C92.1461 747.991 92.4751 747.683 92.8871 747.46C93.299 747.238 93.7536 747.072 94.2507 746.963C94.7526 746.849 95.2569 746.759 95.7635 746.693C96.4264 746.608 96.9638 746.544 97.3757 746.501C97.7924 746.454 98.0954 746.376 98.2848 746.267C98.4789 746.158 98.576 745.969 98.576 745.699V745.642C98.576 744.941 98.3842 744.397 98.0007 744.009C97.6219 743.62 97.0466 743.426 96.2749 743.426C95.4747 743.426 94.8473 743.601 94.3928 743.952C93.9382 744.302 93.6186 744.676 93.4339 745.074L91.843 744.506C92.1271 743.843 92.5059 743.327 92.9794 742.957C93.4576 742.583 93.9785 742.323 94.5419 742.176C95.1101 742.025 95.6688 741.949 96.218 741.949C96.5684 741.949 96.9709 741.991 97.4254 742.077C97.8847 742.157 98.3274 742.325 98.7536 742.581C99.1844 742.837 99.5419 743.223 99.826 743.739C100.11 744.255 100.252 744.946 100.252 745.812V753H98.576V751.523H98.4908C98.3771 751.759 98.1877 752.013 97.9226 752.283C97.6574 752.553 97.3047 752.782 96.8643 752.972C96.424 753.161 95.8866 753.256 95.2521 753.256ZM95.5078 751.75C96.1707 751.75 96.7294 751.62 97.1839 751.359C97.6432 751.099 97.9889 750.763 98.2209 750.351C98.4576 749.939 98.576 749.506 98.576 749.051V747.517C98.505 747.602 98.3487 747.68 98.1072 747.751C97.8705 747.818 97.5959 747.877 97.2834 747.929C96.9756 747.976 96.675 748.019 96.3814 748.057C96.0926 748.09 95.8582 748.118 95.6783 748.142C95.2427 748.199 94.8355 748.291 94.4567 748.419C94.0826 748.542 93.7796 748.729 93.5476 748.98C93.3203 749.226 93.2067 749.562 93.2067 749.989C93.2067 750.571 93.4221 751.011 93.853 751.31C94.2886 751.603 94.8402 751.75 95.5078 751.75ZM108.056 742.091V743.511H102.402V742.091H108.056ZM104.05 739.477H105.726V749.875C105.726 750.348 105.795 750.704 105.932 750.94C106.074 751.172 106.254 751.329 106.472 751.409C106.694 751.485 106.929 751.523 107.175 751.523C107.36 751.523 107.511 751.513 107.63 751.494C107.748 751.471 107.843 751.452 107.914 751.438L108.255 752.943C108.141 752.986 107.982 753.028 107.779 753.071C107.575 753.118 107.317 753.142 107.005 753.142C106.531 753.142 106.067 753.04 105.613 752.837C105.163 752.633 104.789 752.323 104.49 751.906C104.197 751.49 104.05 750.964 104.05 750.33V739.477ZM110.577 753V742.091H112.253V753H110.577ZM111.429 740.273C111.103 740.273 110.821 740.161 110.584 739.939C110.352 739.716 110.236 739.449 110.236 739.136C110.236 738.824 110.352 738.556 110.584 738.334C110.821 738.111 111.103 738 111.429 738C111.756 738 112.035 738.111 112.267 738.334C112.504 738.556 112.623 738.824 112.623 739.136C112.623 739.449 112.504 739.716 112.267 739.939C112.035 740.161 111.756 740.273 111.429 740.273ZM119.755 753.227C118.77 753.227 117.906 752.993 117.163 752.524C116.424 752.055 115.846 751.4 115.43 750.557C115.018 749.714 114.812 748.729 114.812 747.602C114.812 746.466 115.018 745.474 115.43 744.626C115.846 743.779 116.424 743.121 117.163 742.652C117.906 742.183 118.77 741.949 119.755 741.949C120.74 741.949 121.602 742.183 122.34 742.652C123.084 743.121 123.661 743.779 124.073 744.626C124.49 745.474 124.698 746.466 124.698 747.602C124.698 748.729 124.49 749.714 124.073 750.557C123.661 751.4 123.084 752.055 122.34 752.524C121.602 752.993 120.74 753.227 119.755 753.227ZM119.755 751.722C120.503 751.722 121.119 751.53 121.602 751.146C122.085 750.763 122.442 750.259 122.674 749.634C122.906 749.009 123.022 748.331 123.022 747.602C123.022 746.873 122.906 746.194 122.674 745.564C122.442 744.934 122.085 744.425 121.602 744.037C121.119 743.649 120.503 743.455 119.755 743.455C119.007 743.455 118.391 743.649 117.908 744.037C117.425 744.425 117.068 744.934 116.836 745.564C116.604 746.194 116.488 746.873 116.488 747.602C116.488 748.331 116.604 749.009 116.836 749.634C117.068 750.259 117.425 750.763 117.908 751.146C118.391 751.53 119.007 751.722 119.755 751.722ZM128.933 746.438V753H127.257V742.091H128.876V743.795H129.018C129.274 743.241 129.662 742.796 130.183 742.46C130.704 742.119 131.376 741.949 132.2 741.949C132.939 741.949 133.585 742.1 134.139 742.403C134.693 742.702 135.124 743.156 135.431 743.767C135.739 744.373 135.893 745.14 135.893 746.068V753H134.217V746.182C134.217 745.325 133.994 744.657 133.549 744.179C133.104 743.696 132.493 743.455 131.717 743.455C131.182 743.455 130.704 743.571 130.282 743.803C129.866 744.035 129.537 744.373 129.295 744.818C129.054 745.263 128.933 745.803 128.933 746.438ZM146.683 744.534L145.178 744.96C145.083 744.709 144.943 744.465 144.759 744.229C144.579 743.987 144.332 743.788 144.02 743.632C143.707 743.476 143.307 743.398 142.82 743.398C142.152 743.398 141.596 743.552 141.151 743.859C140.71 744.162 140.49 744.548 140.49 745.017C140.49 745.434 140.642 745.763 140.945 746.004C141.248 746.246 141.721 746.447 142.365 746.608L143.984 747.006C144.96 747.242 145.687 747.605 146.165 748.092C146.643 748.575 146.882 749.198 146.882 749.96C146.882 750.585 146.702 751.144 146.342 751.636C145.987 752.129 145.49 752.517 144.851 752.801C144.212 753.085 143.468 753.227 142.621 753.227C141.508 753.227 140.587 752.986 139.858 752.503C139.129 752.02 138.667 751.314 138.473 750.386L140.064 749.989C140.215 750.576 140.502 751.016 140.923 751.31C141.349 751.603 141.906 751.75 142.592 751.75C143.374 751.75 143.994 751.584 144.453 751.253C144.917 750.917 145.149 750.514 145.149 750.045C145.149 749.667 145.017 749.349 144.751 749.094C144.486 748.833 144.079 748.639 143.53 748.511L141.712 748.085C140.713 747.848 139.979 747.482 139.51 746.984C139.046 746.482 138.814 745.855 138.814 745.102C138.814 744.487 138.987 743.942 139.332 743.469C139.683 742.995 140.159 742.624 140.76 742.354C141.366 742.084 142.053 741.949 142.82 741.949C143.899 741.949 144.747 742.186 145.362 742.659C145.982 743.133 146.423 743.758 146.683 744.534ZM159.15 753.227C158.24 753.227 157.438 752.998 156.742 752.538C156.046 752.074 155.501 751.421 155.108 750.578C154.715 749.731 154.519 748.729 154.519 747.574C154.519 746.428 154.715 745.434 155.108 744.591C155.501 743.748 156.048 743.097 156.749 742.638C157.45 742.179 158.259 741.949 159.178 741.949C159.888 741.949 160.449 742.067 160.861 742.304C161.278 742.536 161.595 742.801 161.813 743.099C162.035 743.393 162.208 743.634 162.331 743.824H162.473V738.455H164.15V753H162.53V751.324H162.331C162.208 751.523 162.033 751.774 161.806 752.077C161.578 752.375 161.254 752.643 160.833 752.879C160.411 753.111 159.85 753.227 159.15 753.227ZM159.377 751.722C160.049 751.722 160.617 751.546 161.081 751.196C161.545 750.841 161.898 750.351 162.14 749.726C162.381 749.096 162.502 748.369 162.502 747.545C162.502 746.731 162.383 746.018 162.147 745.408C161.91 744.792 161.56 744.314 161.096 743.973C160.632 743.627 160.059 743.455 159.377 743.455C158.667 743.455 158.075 743.637 157.601 744.001C157.132 744.361 156.78 744.851 156.543 745.472C156.311 746.087 156.195 746.778 156.195 747.545C156.195 748.322 156.313 749.027 156.55 749.662C156.792 750.292 157.147 750.794 157.615 751.168C158.089 751.537 158.676 751.722 159.377 751.722ZM174.327 748.54V742.091H176.003V753H174.327V751.153H174.213C173.958 751.707 173.56 752.179 173.02 752.567C172.48 752.95 171.799 753.142 170.975 753.142C170.293 753.142 169.687 752.993 169.157 752.695C168.626 752.392 168.21 751.937 167.907 751.331C167.604 750.72 167.452 749.951 167.452 749.023V742.091H169.128V748.909C169.128 749.705 169.351 750.339 169.796 750.812C170.246 751.286 170.819 751.523 171.515 751.523C171.931 751.523 172.355 751.416 172.786 751.203C173.221 750.99 173.586 750.663 173.88 750.223C174.178 749.783 174.327 749.222 174.327 748.54ZM193.619 742.091L189.585 753H187.88L183.846 742.091H185.664L188.675 750.784H188.789L191.8 742.091H193.619ZM200.014 753.227C198.963 753.227 198.056 752.995 197.294 752.531C196.536 752.062 195.952 751.409 195.54 750.571C195.133 749.728 194.929 748.748 194.929 747.631C194.929 746.513 195.133 745.528 195.54 744.676C195.952 743.819 196.525 743.152 197.259 742.673C197.997 742.19 198.859 741.949 199.844 741.949C200.412 741.949 200.973 742.044 201.527 742.233C202.081 742.422 202.585 742.73 203.04 743.156C203.494 743.578 203.857 744.136 204.126 744.832C204.396 745.528 204.531 746.385 204.531 747.403V748.114H196.122V746.665H202.827C202.827 746.049 202.704 745.5 202.457 745.017C202.216 744.534 201.87 744.153 201.42 743.874C200.975 743.594 200.45 743.455 199.844 743.455C199.176 743.455 198.598 743.62 198.111 743.952C197.628 744.278 197.256 744.705 196.996 745.23C196.735 745.756 196.605 746.319 196.605 746.92V747.886C196.605 748.71 196.747 749.409 197.031 749.982C197.32 750.55 197.72 750.983 198.232 751.281C198.743 751.575 199.337 751.722 200.014 751.722C200.455 751.722 200.852 751.66 201.207 751.537C201.567 751.409 201.877 751.22 202.138 750.969C202.398 750.713 202.599 750.396 202.741 750.017L204.361 750.472C204.19 751.021 203.904 751.504 203.501 751.92C203.099 752.332 202.602 752.654 202.01 752.886C201.418 753.114 200.753 753.227 200.014 753.227ZM198.991 740.614L200.724 737.318H202.685L200.469 740.614H198.991ZM208.757 746.438V753H207.081V738.455H208.757V743.795H208.899C209.155 743.232 209.538 742.785 210.05 742.453C210.566 742.117 211.252 741.949 212.109 741.949C212.853 741.949 213.504 742.098 214.062 742.396C214.621 742.69 215.054 743.142 215.362 743.753C215.675 744.359 215.831 745.131 215.831 746.068V753H214.155V746.182C214.155 745.315 213.93 744.645 213.48 744.172C213.035 743.694 212.417 743.455 211.626 743.455C211.077 743.455 210.585 743.571 210.149 743.803C209.718 744.035 209.377 744.373 209.126 744.818C208.88 745.263 208.757 745.803 208.757 746.438ZM218.897 753V742.091H220.574V753H218.897ZM219.75 740.273C219.423 740.273 219.141 740.161 218.904 739.939C218.672 739.716 218.556 739.449 218.556 739.136C218.556 738.824 218.672 738.556 218.904 738.334C219.141 738.111 219.423 738 219.75 738C220.076 738 220.356 738.111 220.588 738.334C220.824 738.556 220.943 738.824 220.943 739.136C220.943 739.449 220.824 739.716 220.588 739.939C220.356 740.161 220.076 740.273 219.75 740.273ZM228.075 753.227C227.053 753.227 226.172 752.986 225.433 752.503C224.695 752.02 224.126 751.355 223.729 750.507C223.331 749.66 223.132 748.691 223.132 747.602C223.132 746.494 223.336 745.517 223.743 744.669C224.155 743.817 224.728 743.152 225.462 742.673C226.2 742.19 227.062 741.949 228.047 741.949C228.814 741.949 229.505 742.091 230.121 742.375C230.736 742.659 231.241 743.057 231.634 743.568C232.027 744.08 232.27 744.676 232.365 745.358H230.689C230.561 744.861 230.277 744.42 229.837 744.037C229.401 743.649 228.814 743.455 228.075 743.455C227.422 743.455 226.849 743.625 226.357 743.966C225.869 744.302 225.488 744.778 225.213 745.393C224.943 746.004 224.808 746.722 224.808 747.545C224.808 748.388 224.941 749.122 225.206 749.747C225.476 750.372 225.855 750.857 226.342 751.203C226.835 751.549 227.412 751.722 228.075 751.722C228.511 751.722 228.906 751.646 229.261 751.494C229.616 751.343 229.917 751.125 230.163 750.841C230.41 750.557 230.585 750.216 230.689 749.818H232.365C232.27 750.462 232.036 751.042 231.662 751.558C231.293 752.07 230.803 752.477 230.192 752.78C229.586 753.078 228.88 753.227 228.075 753.227ZM241.69 748.54V742.091H243.366V753H241.69V751.153H241.577C241.321 751.707 240.923 752.179 240.384 752.567C239.844 752.95 239.162 753.142 238.338 753.142C237.656 753.142 237.05 752.993 236.52 752.695C235.99 752.392 235.573 751.937 235.27 751.331C234.967 750.72 234.815 749.951 234.815 749.023V742.091H236.491V748.909C236.491 749.705 236.714 750.339 237.159 750.812C237.609 751.286 238.182 751.523 238.878 751.523C239.295 751.523 239.718 751.416 240.149 751.203C240.585 750.99 240.949 750.663 241.243 750.223C241.541 749.783 241.69 749.222 241.69 748.54ZM248.113 738.455V753H246.436V738.455H248.113ZM255.756 753.227C254.705 753.227 253.799 752.995 253.036 752.531C252.279 752.062 251.694 751.409 251.282 750.571C250.875 749.728 250.671 748.748 250.671 747.631C250.671 746.513 250.875 745.528 251.282 744.676C251.694 743.819 252.267 743.152 253.001 742.673C253.739 742.19 254.601 741.949 255.586 741.949C256.154 741.949 256.715 742.044 257.269 742.233C257.823 742.422 258.327 742.73 258.782 743.156C259.237 743.578 259.599 744.136 259.869 744.832C260.138 745.528 260.273 746.385 260.273 747.403V748.114H251.864V746.665H258.569C258.569 746.049 258.446 745.5 258.2 745.017C257.958 744.534 257.612 744.153 257.163 743.874C256.718 743.594 256.192 743.455 255.586 743.455C254.918 743.455 254.341 743.62 253.853 743.952C253.37 744.278 252.998 744.705 252.738 745.23C252.478 745.756 252.347 746.319 252.347 746.92V747.886C252.347 748.71 252.489 749.409 252.773 749.982C253.062 750.55 253.462 750.983 253.974 751.281C254.485 751.575 255.079 751.722 255.756 751.722C256.197 751.722 256.594 751.66 256.95 751.537C257.309 751.409 257.62 751.22 257.88 750.969C258.14 750.713 258.342 750.396 258.484 750.017L260.103 750.472C259.933 751.021 259.646 751.504 259.244 751.92C258.841 752.332 258.344 752.654 257.752 752.886C257.16 753.114 256.495 753.227 255.756 753.227ZM269.67 753.114C269.319 753.114 269.019 752.988 268.768 752.737C268.517 752.486 268.391 752.186 268.391 751.835C268.391 751.485 268.517 751.184 268.768 750.933C269.019 750.682 269.319 750.557 269.67 750.557C270.02 750.557 270.321 750.682 270.572 750.933C270.823 751.184 270.948 751.485 270.948 751.835C270.948 752.067 270.889 752.28 270.771 752.474C270.657 752.669 270.503 752.825 270.309 752.943C270.12 753.057 269.906 753.114 269.67 753.114ZM269.67 745.017C269.319 745.017 269.019 744.892 268.768 744.641C268.517 744.39 268.391 744.089 268.391 743.739C268.391 743.388 268.517 743.088 268.768 742.837C269.019 742.586 269.319 742.46 269.67 742.46C270.02 742.46 270.321 742.586 270.572 742.837C270.823 743.088 270.948 743.388 270.948 743.739C270.948 743.971 270.889 744.184 270.771 744.378C270.657 744.572 270.503 744.728 270.309 744.847C270.12 744.96 269.906 745.017 269.67 745.017Z" fill="black"/>
<rect x="19" y="289" width="374" height="125" fill="#D9D9D9"/>
<path d="M19 475H393V587H19V475Z" fill="#D9D9D9"/>
<rect x="19" y="666" width="374" height="41" fill="#D9D9D9"/>
<path d="M33.7614 781.455H35.8636L40.8068 793.528H40.9773L45.9205 781.455H48.0227V796H46.375V784.949H46.233L41.6875 796H40.0966L35.5511 784.949H35.4091V796H33.7614V781.455ZM54.5373 796.256C53.846 796.256 53.2186 796.125 52.6552 795.865C52.0917 795.6 51.6443 795.219 51.3129 794.722C50.9814 794.22 50.8157 793.614 50.8157 792.903C50.8157 792.278 50.9388 791.772 51.185 791.384C51.4312 790.991 51.7603 790.683 52.1722 790.46C52.5842 790.238 53.0387 790.072 53.5359 789.963C54.0378 789.849 54.542 789.759 55.0487 789.693C55.7115 789.608 56.2489 789.544 56.6609 789.501C57.0775 789.454 57.3806 789.376 57.57 789.267C57.7641 789.158 57.8612 788.969 57.8612 788.699V788.642C57.8612 787.941 57.6694 787.397 57.2859 787.009C56.9071 786.62 56.3318 786.426 55.56 786.426C54.7598 786.426 54.1325 786.601 53.6779 786.952C53.2234 787.302 52.9038 787.676 52.7191 788.074L51.1282 787.506C51.4123 786.843 51.7911 786.327 52.2646 785.957C52.7428 785.583 53.2636 785.323 53.8271 785.176C54.3952 785.025 54.954 784.949 55.5032 784.949C55.8536 784.949 56.256 784.991 56.7106 785.077C57.1699 785.157 57.6126 785.325 58.0387 785.581C58.4696 785.837 58.8271 786.223 59.1112 786.739C59.3952 787.255 59.5373 787.946 59.5373 788.812V796H57.8612V794.523H57.7759C57.6623 794.759 57.4729 795.013 57.2077 795.283C56.9426 795.553 56.5898 795.782 56.1495 795.972C55.7092 796.161 55.1718 796.256 54.5373 796.256ZM54.793 794.75C55.4558 794.75 56.0146 794.62 56.4691 794.359C56.9284 794.099 57.274 793.763 57.506 793.351C57.7428 792.939 57.8612 792.506 57.8612 792.051V790.517C57.7901 790.602 57.6339 790.68 57.3924 790.751C57.1557 790.818 56.881 790.877 56.5685 790.929C56.2608 790.976 55.9601 791.019 55.6665 791.057C55.3777 791.09 55.1433 791.118 54.9634 791.142C54.5278 791.199 54.1206 791.291 53.7418 791.419C53.3678 791.542 53.0647 791.729 52.8327 791.98C52.6055 792.226 52.4918 792.562 52.4918 792.989C52.4918 793.571 52.7073 794.011 53.1381 794.31C53.5737 794.603 54.1254 794.75 54.793 794.75ZM62.5966 796V785.091H64.2159V786.739H64.3295C64.5284 786.199 64.8883 785.761 65.4091 785.425C65.9299 785.089 66.517 784.92 67.1705 784.92C67.2936 784.92 67.4474 784.923 67.6321 784.928C67.8168 784.932 67.9564 784.939 68.0511 784.949V786.653C67.9943 786.639 67.8641 786.618 67.6605 786.589C67.4616 786.556 67.2509 786.54 67.0284 786.54C66.4981 786.54 66.0246 786.651 65.608 786.874C65.196 787.091 64.8693 787.394 64.6278 787.783C64.3911 788.166 64.2727 788.604 64.2727 789.097V796H62.5966ZM77.1491 800.091V794.324H77.0071C76.884 794.523 76.7088 794.774 76.4815 795.077C76.2543 795.375 75.9299 795.643 75.5085 795.879C75.0871 796.111 74.526 796.227 73.8253 796.227C72.9162 796.227 72.1136 795.998 71.4176 795.538C70.7216 795.074 70.1771 794.421 69.7841 793.578C69.3911 792.731 69.1946 791.729 69.1946 790.574C69.1946 789.428 69.3911 788.434 69.7841 787.591C70.1771 786.748 70.724 786.097 71.4247 785.638C72.1255 785.179 72.9351 784.949 73.8537 784.949C74.5639 784.949 75.125 785.067 75.5369 785.304C75.9536 785.536 76.2708 785.801 76.4886 786.099C76.7112 786.393 76.884 786.634 77.0071 786.824H77.206V785.091H78.8253V800.091H77.1491ZM74.0526 794.722C74.7249 794.722 75.2931 794.546 75.7571 794.196C76.2211 793.841 76.5739 793.351 76.8153 792.726C77.0568 792.096 77.1776 791.369 77.1776 790.545C77.1776 789.731 77.0592 789.018 76.8224 788.408C76.5857 787.792 76.2353 787.314 75.7713 786.973C75.3073 786.627 74.7344 786.455 74.0526 786.455C73.3423 786.455 72.7505 786.637 72.277 787.001C71.8082 787.361 71.4555 787.851 71.2188 788.472C70.9867 789.087 70.8707 789.778 70.8707 790.545C70.8707 791.322 70.9891 792.027 71.2259 792.662C71.4673 793.292 71.8224 793.794 72.2912 794.168C72.7647 794.537 73.3518 794.722 74.0526 794.722ZM88.7685 791.54V785.091H90.4446V796H88.7685V794.153H88.6548C88.3991 794.707 88.0014 795.179 87.4616 795.567C86.9219 795.95 86.2401 796.142 85.4162 796.142C84.7344 796.142 84.1283 795.993 83.598 795.695C83.0677 795.392 82.651 794.937 82.348 794.331C82.045 793.72 81.8935 792.951 81.8935 792.023V785.091H83.5696V791.909C83.5696 792.705 83.7921 793.339 84.2372 793.812C84.687 794.286 85.2599 794.523 85.956 794.523C86.3726 794.523 86.7964 794.416 87.2273 794.203C87.6629 793.99 88.0275 793.663 88.321 793.223C88.6193 792.783 88.7685 792.222 88.7685 791.54ZM98.0884 796.227C97.0373 796.227 96.1306 795.995 95.3683 795.531C94.6107 795.062 94.0259 794.409 93.614 793.571C93.2068 792.728 93.0032 791.748 93.0032 790.631C93.0032 789.513 93.2068 788.528 93.614 787.676C94.0259 786.819 94.5988 786.152 95.3327 785.673C96.0714 785.19 96.9331 784.949 97.918 784.949C98.4862 784.949 99.0472 785.044 99.6012 785.233C100.155 785.422 100.659 785.73 101.114 786.156C101.569 786.578 101.931 787.136 102.201 787.832C102.471 788.528 102.605 789.385 102.605 790.403V791.114H94.1964V789.665H100.901C100.901 789.049 100.778 788.5 100.532 788.017C100.29 787.534 99.9445 787.153 99.4947 786.874C99.0496 786.594 98.524 786.455 97.918 786.455C97.2504 786.455 96.6727 786.62 96.185 786.952C95.7021 787.278 95.3304 787.705 95.07 788.23C94.8095 788.756 94.6793 789.319 94.6793 789.92V790.886C94.6793 791.71 94.8214 792.409 95.1055 792.982C95.3943 793.55 95.7944 793.983 96.3058 794.281C96.8171 794.575 97.4113 794.722 98.0884 794.722C98.5288 794.722 98.9265 794.66 99.2816 794.537C99.6415 794.409 99.9516 794.22 100.212 793.969C100.472 793.713 100.674 793.396 100.816 793.017L102.435 793.472C102.265 794.021 101.978 794.504 101.576 794.92C101.173 795.332 100.676 795.654 100.084 795.886C99.4923 796.114 98.8271 796.227 98.0884 796.227ZM112.002 796.114C111.651 796.114 111.351 795.988 111.1 795.737C110.849 795.486 110.723 795.186 110.723 794.835C110.723 794.485 110.849 794.184 111.1 793.933C111.351 793.682 111.651 793.557 112.002 793.557C112.352 793.557 112.653 793.682 112.904 793.933C113.155 794.184 113.28 794.485 113.28 794.835C113.28 795.067 113.221 795.28 113.103 795.474C112.989 795.669 112.835 795.825 112.641 795.943C112.452 796.057 112.239 796.114 112.002 796.114ZM112.002 788.017C111.651 788.017 111.351 787.892 111.1 787.641C110.849 787.39 110.723 787.089 110.723 786.739C110.723 786.388 110.849 786.088 111.1 785.837C111.351 785.586 111.651 785.46 112.002 785.46C112.352 785.46 112.653 785.586 112.904 785.837C113.155 786.088 113.28 786.388 113.28 786.739C113.28 786.971 113.221 787.184 113.103 787.378C112.989 787.572 112.835 787.728 112.641 787.847C112.452 787.96 112.239 788.017 112.002 788.017Z" fill="black"/>
<path d="M33.7614 821.455H35.8636L40.8068 833.528H40.9773L45.9205 821.455H48.0227V836H46.375V824.949H46.233L41.6875 836H40.0966L35.5511 824.949H35.4091V836H33.7614V821.455ZM55.7589 836.227C54.774 836.227 53.9099 835.993 53.1665 835.524C52.4279 835.055 51.8503 834.4 51.4336 833.557C51.0217 832.714 50.8157 831.729 50.8157 830.602C50.8157 829.466 51.0217 828.474 51.4336 827.626C51.8503 826.779 52.4279 826.121 53.1665 825.652C53.9099 825.183 54.774 824.949 55.7589 824.949C56.7437 824.949 57.6055 825.183 58.3441 825.652C59.0875 826.121 59.6651 826.779 60.0771 827.626C60.4937 828.474 60.7021 829.466 60.7021 830.602C60.7021 831.729 60.4937 832.714 60.0771 833.557C59.6651 834.4 59.0875 835.055 58.3441 835.524C57.6055 835.993 56.7437 836.227 55.7589 836.227ZM55.7589 834.722C56.507 834.722 57.1225 834.53 57.6055 834.146C58.0884 833.763 58.4459 833.259 58.6779 832.634C58.9099 832.009 59.0259 831.331 59.0259 830.602C59.0259 829.873 58.9099 829.194 58.6779 828.564C58.4459 827.934 58.0884 827.425 57.6055 827.037C57.1225 826.649 56.507 826.455 55.7589 826.455C55.0108 826.455 54.3952 826.649 53.9123 827.037C53.4293 827.425 53.0719 827.934 52.8398 828.564C52.6078 829.194 52.4918 829.873 52.4918 830.602C52.4918 831.331 52.6078 832.009 52.8398 832.634C53.0719 833.259 53.4293 833.763 53.9123 834.146C54.3952 834.53 55.0108 834.722 55.7589 834.722ZM67.38 836.227C66.4709 836.227 65.6683 835.998 64.9723 835.538C64.2763 835.074 63.7318 834.421 63.3388 833.578C62.9458 832.731 62.7493 831.729 62.7493 830.574C62.7493 829.428 62.9458 828.434 63.3388 827.591C63.7318 826.748 64.2786 826.097 64.9794 825.638C65.6802 825.179 66.4898 824.949 67.4084 824.949C68.1186 824.949 68.6797 825.067 69.0916 825.304C69.5083 825.536 69.8255 825.801 70.0433 826.099C70.2659 826.393 70.4387 826.634 70.5618 826.824H70.7038V821.455H72.38V836H70.7607V834.324H70.5618C70.4387 834.523 70.2635 834.774 70.0362 835.077C69.8089 835.375 69.4846 835.643 69.0632 835.879C68.6418 836.111 68.0807 836.227 67.38 836.227ZM67.6072 834.722C68.2796 834.722 68.8478 834.546 69.3118 834.196C69.7758 833.841 70.1286 833.351 70.37 832.726C70.6115 832.096 70.7322 831.369 70.7322 830.545C70.7322 829.731 70.6139 829.018 70.3771 828.408C70.1404 827.792 69.79 827.314 69.326 826.973C68.862 826.627 68.2891 826.455 67.6072 826.455C66.897 826.455 66.3052 826.637 65.8317 827.001C65.3629 827.361 65.0102 827.851 64.7734 828.472C64.5414 829.087 64.4254 829.778 64.4254 830.545C64.4254 831.322 64.5438 832.027 64.7805 832.662C65.022 833.292 65.3771 833.794 65.8459 834.168C66.3194 834.537 66.9065 834.722 67.6072 834.722ZM80.2564 836.227C79.2053 836.227 78.2985 835.995 77.5362 835.531C76.7786 835.062 76.1939 834.409 75.782 833.571C75.3748 832.728 75.1712 831.748 75.1712 830.631C75.1712 829.513 75.3748 828.528 75.782 827.676C76.1939 826.819 76.7668 826.152 77.5007 825.673C78.2393 825.19 79.1011 824.949 80.0859 824.949C80.6541 824.949 81.2152 825.044 81.7692 825.233C82.3232 825.422 82.8274 825.73 83.282 826.156C83.7365 826.578 84.0987 827.136 84.3686 827.832C84.6385 828.528 84.7734 829.385 84.7734 830.403V831.114H76.3643V829.665H83.0689C83.0689 829.049 82.9458 828.5 82.6996 828.017C82.4581 827.534 82.1125 827.153 81.6626 826.874C81.2176 826.594 80.692 826.455 80.0859 826.455C79.4183 826.455 78.8407 826.62 78.353 826.952C77.87 827.278 77.4983 827.705 77.2379 828.23C76.9775 828.756 76.8473 829.319 76.8473 829.92V830.886C76.8473 831.71 76.9893 832.409 77.2734 832.982C77.5623 833.55 77.9624 833.983 78.4737 834.281C78.9851 834.575 79.5793 834.722 80.2564 834.722C80.6967 834.722 81.0945 834.66 81.4496 834.537C81.8094 834.409 82.1196 834.22 82.38 833.969C82.6404 833.713 82.8416 833.396 82.9837 833.017L84.603 833.472C84.4325 834.021 84.1461 834.504 83.7436 834.92C83.3411 835.332 82.844 835.654 82.2521 835.886C81.6603 836.114 80.995 836.227 80.2564 836.227ZM79.2905 823.614L77.0746 820.318H79.0348L80.7678 823.614H79.2905ZM88.9993 821.455V836H87.3232V821.455H88.9993ZM96.6431 836.227C95.592 836.227 94.6853 835.995 93.9229 835.531C93.1654 835.062 92.5806 834.409 92.1687 833.571C91.7615 832.728 91.5579 831.748 91.5579 830.631C91.5579 829.513 91.7615 828.528 92.1687 827.676C92.5806 826.819 93.1535 826.152 93.8874 825.673C94.6261 825.19 95.4878 824.949 96.4727 824.949C97.0408 824.949 97.6019 825.044 98.1559 825.233C98.7099 825.422 99.2141 825.73 99.6687 826.156C100.123 826.578 100.485 827.136 100.755 827.832C101.025 828.528 101.16 829.385 101.16 830.403V831.114H92.7511V829.665H99.4556C99.4556 829.049 99.3325 828.5 99.0863 828.017C98.8448 827.534 98.4992 827.153 98.0494 826.874C97.6043 826.594 97.0787 826.455 96.4727 826.455C95.805 826.455 95.2274 826.62 94.7397 826.952C94.2567 827.278 93.8851 827.705 93.6246 828.23C93.3642 828.756 93.234 829.319 93.234 829.92V830.886C93.234 831.71 93.3761 832.409 93.6602 832.982C93.949 833.55 94.3491 833.983 94.8604 834.281C95.3718 834.575 95.966 834.722 96.6431 834.722C97.0835 834.722 97.4812 834.66 97.8363 834.537C98.1961 834.409 98.5063 834.22 98.7667 833.969C99.0271 833.713 99.2283 833.396 99.3704 833.017L100.99 833.472C100.819 834.021 100.533 834.504 100.13 834.92C99.7279 835.332 99.2307 835.654 98.6388 835.886C98.047 836.114 97.3817 836.227 96.6431 836.227ZM110.556 836.114C110.206 836.114 109.905 835.988 109.654 835.737C109.404 835.486 109.278 835.186 109.278 834.835C109.278 834.485 109.404 834.184 109.654 833.933C109.905 833.682 110.206 833.557 110.556 833.557C110.907 833.557 111.208 833.682 111.458 833.933C111.709 834.184 111.835 834.485 111.835 834.835C111.835 835.067 111.776 835.28 111.657 835.474C111.544 835.669 111.39 835.825 111.196 835.943C111.006 836.057 110.793 836.114 110.556 836.114ZM110.556 828.017C110.206 828.017 109.905 827.892 109.654 827.641C109.404 827.39 109.278 827.089 109.278 826.739C109.278 826.388 109.404 826.088 109.654 825.837C109.905 825.586 110.206 825.46 110.556 825.46C110.907 825.46 111.208 825.586 111.458 825.837C111.709 826.088 111.835 826.388 111.835 826.739C111.835 826.971 111.776 827.184 111.657 827.378C111.544 827.572 111.39 827.728 111.196 827.847C111.006 827.96 110.793 828.017 110.556 828.017Z" fill="black"/>
<path d="M45.2955 864.455V879H43.5909L35.6648 867.58H35.5227V879H33.7614V864.455H35.4659L43.4205 875.903H43.5625V864.455H45.2955ZM53.0245 879.227C52.0397 879.227 51.1755 878.993 50.4322 878.524C49.6935 878.055 49.1159 877.4 48.6992 876.557C48.2873 875.714 48.0813 874.729 48.0813 873.602C48.0813 872.466 48.2873 871.474 48.6992 870.626C49.1159 869.779 49.6935 869.121 50.4322 868.652C51.1755 868.183 52.0397 867.949 53.0245 867.949C54.0094 867.949 54.8711 868.183 55.6097 868.652C56.3531 869.121 56.9308 869.779 57.3427 870.626C57.7594 871.474 57.9677 872.466 57.9677 873.602C57.9677 874.729 57.7594 875.714 57.3427 876.557C56.9308 877.4 56.3531 878.055 55.6097 878.524C54.8711 878.993 54.0094 879.227 53.0245 879.227ZM53.0245 877.722C53.7726 877.722 54.3881 877.53 54.8711 877.146C55.354 876.763 55.7115 876.259 55.9435 875.634C56.1755 875.009 56.2915 874.331 56.2915 873.602C56.2915 872.873 56.1755 872.194 55.9435 871.564C55.7115 870.934 55.354 870.425 54.8711 870.037C54.3881 869.649 53.7726 869.455 53.0245 869.455C52.2764 869.455 51.6609 869.649 51.1779 870.037C50.695 870.425 50.3375 870.934 50.1055 871.564C49.8735 872.194 49.7575 872.873 49.7575 873.602C49.7575 874.331 49.8735 875.009 50.1055 875.634C50.3375 876.259 50.695 876.763 51.1779 877.146C51.6609 877.53 52.2764 877.722 53.0245 877.722ZM60.5263 879V868.091H62.1456V869.795H62.2876C62.5149 869.213 62.8819 868.761 63.3885 868.439C63.8951 868.112 64.5036 867.949 65.2138 867.949C65.9335 867.949 66.5324 868.112 67.0107 868.439C67.4936 868.761 67.87 869.213 68.1399 869.795H68.2536C68.5329 869.232 68.9519 868.785 69.5107 868.453C70.0694 868.117 70.7393 867.949 71.5206 867.949C72.496 867.949 73.2938 868.254 73.9141 868.865C74.5343 869.471 74.8445 870.416 74.8445 871.699V879H73.1683V871.699C73.1683 870.894 72.9482 870.319 72.5078 869.973C72.0675 869.627 71.549 869.455 70.9524 869.455C70.1854 869.455 69.5911 869.687 69.1697 870.151C68.7483 870.61 68.5376 871.192 68.5376 871.898V879H66.8331V871.528C66.8331 870.908 66.6319 870.409 66.2294 870.03C65.8269 869.646 65.3085 869.455 64.674 869.455C64.2384 869.455 63.8312 869.571 63.4524 869.803C63.0784 870.035 62.7753 870.357 62.5433 870.768C62.3161 871.176 62.2024 871.647 62.2024 872.182V879H60.5263ZM78.1364 879V864.455H79.8125V869.824H79.9545C80.0777 869.634 80.2481 869.393 80.4659 869.099C80.6884 868.801 81.0057 868.536 81.4176 868.304C81.8343 868.067 82.3977 867.949 83.108 867.949C84.0265 867.949 84.8362 868.179 85.5369 868.638C86.2377 869.097 86.7846 869.748 87.1776 870.591C87.5705 871.434 87.767 872.428 87.767 873.574C87.767 874.729 87.5705 875.731 87.1776 876.578C86.7846 877.421 86.2401 878.074 85.544 878.538C84.848 878.998 84.0455 879.227 83.1364 879.227C82.4356 879.227 81.8745 879.111 81.4531 878.879C81.0317 878.643 80.7074 878.375 80.4801 878.077C80.2528 877.774 80.0777 877.523 79.9545 877.324H79.7557V879H78.1364ZM79.7841 873.545C79.7841 874.369 79.9048 875.096 80.1463 875.726C80.3878 876.351 80.7405 876.841 81.2045 877.196C81.6686 877.546 82.2367 877.722 82.9091 877.722C83.6098 877.722 84.1946 877.537 84.6634 877.168C85.1368 876.794 85.492 876.292 85.7287 875.662C85.9702 875.027 86.0909 874.322 86.0909 873.545C86.0909 872.778 85.9725 872.087 85.7358 871.472C85.5038 870.851 85.151 870.361 84.6776 870.001C84.2088 869.637 83.6193 869.455 82.9091 869.455C82.2273 869.455 81.6544 869.627 81.1903 869.973C80.7263 870.314 80.3759 870.792 80.1392 871.408C79.9025 872.018 79.7841 872.731 79.7841 873.545ZM90.331 879V868.091H91.9503V869.739H92.0639C92.2628 869.199 92.6226 868.761 93.1435 868.425C93.6643 868.089 94.2514 867.92 94.9048 867.92C95.0279 867.92 95.1818 867.923 95.3665 867.928C95.5511 867.932 95.6908 867.939 95.7855 867.949V869.653C95.7287 869.639 95.5985 869.618 95.3949 869.589C95.196 869.556 94.9853 869.54 94.7628 869.54C94.2325 869.54 93.759 869.651 93.3423 869.874C92.9304 870.091 92.6037 870.394 92.3622 870.783C92.1255 871.166 92.0071 871.604 92.0071 872.097V879H90.331ZM102.014 879.227C100.963 879.227 100.056 878.995 99.294 878.531C98.5365 878.062 97.9517 877.409 97.5398 876.571C97.1326 875.728 96.929 874.748 96.929 873.631C96.929 872.513 97.1326 871.528 97.5398 870.676C97.9517 869.819 98.5246 869.152 99.2585 868.673C99.9972 868.19 100.859 867.949 101.844 867.949C102.412 867.949 102.973 868.044 103.527 868.233C104.081 868.422 104.585 868.73 105.04 869.156C105.494 869.578 105.857 870.136 106.126 870.832C106.396 871.528 106.531 872.385 106.531 873.403V874.114H98.1222V872.665H104.827C104.827 872.049 104.704 871.5 104.457 871.017C104.216 870.534 103.87 870.153 103.42 869.874C102.975 869.594 102.45 869.455 101.844 869.455C101.176 869.455 100.598 869.62 100.111 869.952C99.6278 870.278 99.2562 870.705 98.9957 871.23C98.7353 871.756 98.6051 872.319 98.6051 872.92V873.886C98.6051 874.71 98.7472 875.409 99.0312 875.982C99.3201 876.55 99.7202 876.983 100.232 877.281C100.743 877.575 101.337 877.722 102.014 877.722C102.455 877.722 102.852 877.66 103.207 877.537C103.567 877.409 103.877 877.22 104.138 876.969C104.398 876.713 104.599 876.396 104.741 876.017L106.361 876.472C106.19 877.021 105.904 877.504 105.501 877.92C105.099 878.332 104.602 878.654 104.01 878.886C103.418 879.114 102.753 879.227 102.014 879.227ZM118.825 879.227C117.916 879.227 117.114 878.998 116.418 878.538C115.722 878.074 115.177 877.421 114.784 876.578C114.391 875.731 114.195 874.729 114.195 873.574C114.195 872.428 114.391 871.434 114.784 870.591C115.177 869.748 115.724 869.097 116.425 868.638C117.125 868.179 117.935 867.949 118.854 867.949C119.564 867.949 120.125 868.067 120.537 868.304C120.954 868.536 121.271 868.801 121.489 869.099C121.711 869.393 121.884 869.634 122.007 869.824H122.149V864.455H123.825V879H122.206V877.324H122.007C121.884 877.523 121.709 877.774 121.482 878.077C121.254 878.375 120.93 878.643 120.509 878.879C120.087 879.111 119.526 879.227 118.825 879.227ZM119.053 877.722C119.725 877.722 120.293 877.546 120.757 877.196C121.221 876.841 121.574 876.351 121.815 875.726C122.057 875.096 122.178 874.369 122.178 873.545C122.178 872.731 122.059 872.018 121.822 871.408C121.586 870.792 121.235 870.314 120.771 869.973C120.307 869.627 119.734 869.455 119.053 869.455C118.342 869.455 117.75 869.637 117.277 870.001C116.808 870.361 116.455 870.851 116.219 871.472C115.987 872.087 115.871 872.778 115.871 873.545C115.871 874.322 115.989 875.027 116.226 875.662C116.467 876.292 116.822 876.794 117.291 877.168C117.765 877.537 118.352 877.722 119.053 877.722ZM131.702 879.227C130.651 879.227 129.744 878.995 128.982 878.531C128.224 878.062 127.639 877.409 127.227 876.571C126.82 875.728 126.616 874.748 126.616 873.631C126.616 872.513 126.82 871.528 127.227 870.676C127.639 869.819 128.212 869.152 128.946 868.673C129.685 868.19 130.546 867.949 131.531 867.949C132.099 867.949 132.661 868.044 133.214 868.233C133.768 868.422 134.273 868.73 134.727 869.156C135.182 869.578 135.544 870.136 135.814 870.832C136.084 871.528 136.219 872.385 136.219 873.403V874.114H127.81V872.665H134.514C134.514 872.049 134.391 871.5 134.145 871.017C133.903 870.534 133.558 870.153 133.108 869.874C132.663 869.594 132.137 869.455 131.531 869.455C130.864 869.455 130.286 869.62 129.798 869.952C129.315 870.278 128.944 870.705 128.683 871.23C128.423 871.756 128.293 872.319 128.293 872.92V873.886C128.293 874.71 128.435 875.409 128.719 875.982C129.008 876.55 129.408 876.983 129.919 877.281C130.43 877.575 131.025 877.722 131.702 877.722C132.142 877.722 132.54 877.66 132.895 877.537C133.255 877.409 133.565 877.22 133.825 876.969C134.086 876.713 134.287 876.396 134.429 876.017L136.048 876.472C135.878 877.021 135.591 877.504 135.189 877.92C134.786 878.332 134.289 878.654 133.697 878.886C133.106 879.114 132.44 879.227 131.702 879.227ZM144.393 883.091V868.091H146.013V869.824H146.212C146.335 869.634 146.505 869.393 146.723 869.099C146.946 868.801 147.263 868.536 147.675 868.304C148.091 868.067 148.655 867.949 149.365 867.949C150.284 867.949 151.093 868.179 151.794 868.638C152.495 869.097 153.042 869.748 153.435 870.591C153.828 871.434 154.024 872.428 154.024 873.574C154.024 874.729 153.828 875.731 153.435 876.578C153.042 877.421 152.497 878.074 151.801 878.538C151.105 878.998 150.303 879.227 149.393 879.227C148.693 879.227 148.132 879.111 147.71 878.879C147.289 878.643 146.964 878.375 146.737 878.077C146.51 877.774 146.335 877.523 146.212 877.324H146.07V883.091H144.393ZM146.041 873.545C146.041 874.369 146.162 875.096 146.403 875.726C146.645 876.351 146.998 876.841 147.462 877.196C147.926 877.546 148.494 877.722 149.166 877.722C149.867 877.722 150.452 877.537 150.92 877.168C151.394 876.794 151.749 876.292 151.986 875.662C152.227 875.027 152.348 874.322 152.348 873.545C152.348 872.778 152.23 872.087 151.993 871.472C151.761 870.851 151.408 870.361 150.935 870.001C150.466 869.637 149.876 869.455 149.166 869.455C148.484 869.455 147.911 869.627 147.447 869.973C146.983 870.314 146.633 870.792 146.396 871.408C146.16 872.018 146.041 872.731 146.041 873.545ZM158.257 864.455V879H156.581V864.455H158.257ZM164.537 879.256C163.846 879.256 163.219 879.125 162.655 878.865C162.092 878.6 161.644 878.219 161.313 877.722C160.981 877.22 160.816 876.614 160.816 875.903C160.816 875.278 160.939 874.772 161.185 874.384C161.431 873.991 161.76 873.683 162.172 873.46C162.584 873.238 163.039 873.072 163.536 872.963C164.038 872.849 164.542 872.759 165.049 872.693C165.712 872.608 166.249 872.544 166.661 872.501C167.078 872.454 167.381 872.376 167.57 872.267C167.764 872.158 167.861 871.969 167.861 871.699V871.642C167.861 870.941 167.669 870.397 167.286 870.009C166.907 869.62 166.332 869.426 165.56 869.426C164.76 869.426 164.132 869.601 163.678 869.952C163.223 870.302 162.904 870.676 162.719 871.074L161.128 870.506C161.412 869.843 161.791 869.327 162.265 868.957C162.743 868.583 163.264 868.323 163.827 868.176C164.395 868.025 164.954 867.949 165.503 867.949C165.854 867.949 166.256 867.991 166.711 868.077C167.17 868.157 167.613 868.325 168.039 868.581C168.47 868.837 168.827 869.223 169.111 869.739C169.395 870.255 169.537 870.946 169.537 871.812V879H167.861V877.523H167.776C167.662 877.759 167.473 878.013 167.208 878.283C166.943 878.553 166.59 878.782 166.15 878.972C165.709 879.161 165.172 879.256 164.537 879.256ZM164.793 877.75C165.456 877.75 166.015 877.62 166.469 877.359C166.928 877.099 167.274 876.763 167.506 876.351C167.743 875.939 167.861 875.506 167.861 875.051V873.517C167.79 873.602 167.634 873.68 167.392 873.751C167.156 873.818 166.881 873.877 166.569 873.929C166.261 873.976 165.96 874.019 165.667 874.057C165.378 874.09 165.143 874.118 164.963 874.142C164.528 874.199 164.121 874.291 163.742 874.419C163.368 874.542 163.065 874.729 162.833 874.98C162.605 875.226 162.492 875.562 162.492 875.989C162.492 876.571 162.707 877.011 163.138 877.31C163.574 877.603 164.125 877.75 164.793 877.75ZM177.028 879.227C176.006 879.227 175.125 878.986 174.386 878.503C173.648 878.02 173.08 877.355 172.682 876.507C172.284 875.66 172.085 874.691 172.085 873.602C172.085 872.494 172.289 871.517 172.696 870.669C173.108 869.817 173.681 869.152 174.415 868.673C175.153 868.19 176.015 867.949 177 867.949C177.767 867.949 178.458 868.091 179.074 868.375C179.689 868.659 180.194 869.057 180.587 869.568C180.98 870.08 181.223 870.676 181.318 871.358H179.642C179.514 870.861 179.23 870.42 178.79 870.037C178.354 869.649 177.767 869.455 177.028 869.455C176.375 869.455 175.802 869.625 175.31 869.966C174.822 870.302 174.441 870.778 174.166 871.393C173.896 872.004 173.761 872.722 173.761 873.545C173.761 874.388 173.894 875.122 174.159 875.747C174.429 876.372 174.808 876.857 175.295 877.203C175.788 877.549 176.366 877.722 177.028 877.722C177.464 877.722 177.859 877.646 178.214 877.494C178.57 877.343 178.87 877.125 179.116 876.841C179.363 876.557 179.538 876.216 179.642 875.818H181.318C181.223 876.462 180.989 877.042 180.615 877.558C180.246 878.07 179.756 878.477 179.145 878.78C178.539 879.078 177.833 879.227 177.028 879.227ZM188.342 879.227C187.291 879.227 186.384 878.995 185.622 878.531C184.865 878.062 184.28 877.409 183.868 876.571C183.461 875.728 183.257 874.748 183.257 873.631C183.257 872.513 183.461 871.528 183.868 870.676C184.28 869.819 184.853 869.152 185.587 868.673C186.325 868.19 187.187 867.949 188.172 867.949C188.74 867.949 189.301 868.044 189.855 868.233C190.409 868.422 190.913 868.73 191.368 869.156C191.822 869.578 192.185 870.136 192.455 870.832C192.724 871.528 192.859 872.385 192.859 873.403V874.114H184.45V872.665H191.155C191.155 872.049 191.032 871.5 190.786 871.017C190.544 870.534 190.198 870.153 189.749 869.874C189.304 869.594 188.778 869.455 188.172 869.455C187.504 869.455 186.927 869.62 186.439 869.952C185.956 870.278 185.584 870.705 185.324 871.23C185.063 871.756 184.933 872.319 184.933 872.92V873.886C184.933 874.71 185.075 875.409 185.359 875.982C185.648 876.55 186.048 876.983 186.56 877.281C187.071 877.575 187.665 877.722 188.342 877.722C188.783 877.722 189.18 877.66 189.536 877.537C189.895 877.409 190.205 877.22 190.466 876.969C190.726 876.713 190.928 876.396 191.07 876.017L192.689 876.472C192.518 877.021 192.232 877.504 191.83 877.92C191.427 878.332 190.93 878.654 190.338 878.886C189.746 879.114 189.081 879.227 188.342 879.227ZM203.136 870.534L201.631 870.96C201.536 870.709 201.396 870.465 201.212 870.229C201.032 869.987 200.786 869.788 200.473 869.632C200.161 869.476 199.76 869.398 199.273 869.398C198.605 869.398 198.049 869.552 197.604 869.859C197.163 870.162 196.943 870.548 196.943 871.017C196.943 871.434 197.095 871.763 197.398 872.004C197.701 872.246 198.174 872.447 198.818 872.608L200.438 873.006C201.413 873.242 202.14 873.605 202.618 874.092C203.096 874.575 203.335 875.198 203.335 875.96C203.335 876.585 203.155 877.144 202.795 877.636C202.44 878.129 201.943 878.517 201.304 878.801C200.665 879.085 199.921 879.227 199.074 879.227C197.961 879.227 197.04 878.986 196.311 878.503C195.582 878.02 195.12 877.314 194.926 876.386L196.517 875.989C196.669 876.576 196.955 877.016 197.376 877.31C197.803 877.603 198.359 877.75 199.045 877.75C199.827 877.75 200.447 877.584 200.906 877.253C201.37 876.917 201.602 876.514 201.602 876.045C201.602 875.667 201.47 875.349 201.205 875.094C200.939 874.833 200.532 874.639 199.983 874.511L198.165 874.085C197.166 873.848 196.432 873.482 195.963 872.984C195.499 872.482 195.267 871.855 195.267 871.102C195.267 870.487 195.44 869.942 195.786 869.469C196.136 868.995 196.612 868.624 197.213 868.354C197.819 868.084 198.506 867.949 199.273 867.949C200.352 867.949 201.2 868.186 201.815 868.659C202.436 869.133 202.876 869.758 203.136 870.534ZM212.705 879.114C212.355 879.114 212.054 878.988 211.803 878.737C211.552 878.486 211.426 878.186 211.426 877.835C211.426 877.485 211.552 877.184 211.803 876.933C212.054 876.682 212.355 876.557 212.705 876.557C213.055 876.557 213.356 876.682 213.607 876.933C213.858 877.184 213.983 877.485 213.983 877.835C213.983 878.067 213.924 878.28 213.806 878.474C213.692 878.669 213.538 878.825 213.344 878.943C213.155 879.057 212.942 879.114 212.705 879.114ZM212.705 871.017C212.355 871.017 212.054 870.892 211.803 870.641C211.552 870.39 211.426 870.089 211.426 869.739C211.426 869.388 211.552 869.088 211.803 868.837C212.054 868.586 212.355 868.46 212.705 868.46C213.055 868.46 213.356 868.586 213.607 868.837C213.858 869.088 213.983 869.388 213.983 869.739C213.983 869.971 213.924 870.184 213.806 870.378C213.692 870.572 213.538 870.728 213.344 870.847C213.155 870.96 212.942 871.017 212.705 871.017Z" fill="black"/>
<rect x="206" y="780" width="168" height="21" fill="#D9D9D9"/>
<rect x="206" y="821" width="168" height="20" fill="#D9D9D9"/>
<rect x="239" y="868" width="128" height="16" fill="#D9D9D9"/>
</svg>
