<svg width="412" height="917" viewBox="0 0 412 917" fill="none" xmlns="http://www.w3.org/2000/svg">
<rect width="412" height="917" fill="white"/>
<rect x="115" y="39" width="184" height="94" fill="#D9D9D9"/>
<path d="M99.2273 147.545V165H97.1136V147.545H99.2273ZM103.465 165V147.545H113.931V149.42H105.579V155.318H113.147V157.193H105.579V165H103.465ZM117.551 165V147.545H123.449C124.813 147.545 125.932 147.778 126.807 148.244C127.682 148.705 128.33 149.338 128.75 150.145C129.17 150.952 129.381 151.869 129.381 152.898C129.381 153.926 129.17 154.838 128.75 155.634C128.33 156.429 127.685 157.054 126.815 157.509C125.946 157.957 124.835 158.182 123.483 158.182H118.71V156.273H123.415C124.347 156.273 125.097 156.136 125.665 155.864C126.239 155.591 126.653 155.205 126.909 154.705C127.17 154.199 127.301 153.597 127.301 152.898C127.301 152.199 127.17 151.588 126.909 151.065C126.648 150.543 126.23 150.139 125.656 149.855C125.082 149.565 124.324 149.42 123.381 149.42H119.665V165H117.551ZM125.767 157.159L130.062 165H127.608L123.381 157.159H125.767ZM135.016 147.545V165H132.903V147.545H135.016ZM146.482 155.335V157.21H138.845V155.335H146.482ZM164.339 153H162.225C162.1 152.392 161.881 151.858 161.569 151.398C161.262 150.938 160.887 150.551 160.444 150.239C160.006 149.92 159.521 149.682 158.987 149.523C158.452 149.364 157.896 149.284 157.316 149.284C156.259 149.284 155.302 149.551 154.444 150.085C153.592 150.619 152.913 151.406 152.407 152.446C151.907 153.486 151.657 154.761 151.657 156.273C151.657 157.784 151.907 159.06 152.407 160.099C152.913 161.139 153.592 161.926 154.444 162.46C155.302 162.994 156.259 163.261 157.316 163.261C157.896 163.261 158.452 163.182 158.987 163.023C159.521 162.864 160.006 162.628 160.444 162.315C160.887 161.997 161.262 161.608 161.569 161.148C161.881 160.682 162.1 160.148 162.225 159.545H164.339C164.18 160.437 163.89 161.236 163.469 161.94C163.049 162.645 162.526 163.244 161.901 163.739C161.276 164.227 160.575 164.599 159.796 164.855C159.023 165.111 158.197 165.239 157.316 165.239C155.827 165.239 154.504 164.875 153.344 164.148C152.185 163.42 151.273 162.386 150.609 161.045C149.944 159.705 149.612 158.114 149.612 156.273C149.612 154.432 149.944 152.841 150.609 151.5C151.273 150.159 152.185 149.125 153.344 148.398C154.504 147.67 155.827 147.307 157.316 147.307C158.197 147.307 159.023 147.435 159.796 147.69C160.575 147.946 161.276 148.321 161.901 148.815C162.526 149.304 163.049 149.901 163.469 150.605C163.89 151.304 164.18 152.102 164.339 153ZM182.482 156.273C182.482 158.114 182.149 159.705 181.484 161.045C180.82 162.386 179.908 163.42 178.749 164.148C177.589 164.875 176.266 165.239 174.777 165.239C173.288 165.239 171.964 164.875 170.805 164.148C169.646 163.42 168.734 162.386 168.07 161.045C167.405 159.705 167.072 158.114 167.072 156.273C167.072 154.432 167.405 152.841 168.07 151.5C168.734 150.159 169.646 149.125 170.805 148.398C171.964 147.67 173.288 147.307 174.777 147.307C176.266 147.307 177.589 147.67 178.749 148.398C179.908 149.125 180.82 150.159 181.484 151.5C182.149 152.841 182.482 154.432 182.482 156.273ZM180.436 156.273C180.436 154.761 180.183 153.486 179.678 152.446C179.178 151.406 178.499 150.619 177.641 150.085C176.788 149.551 175.834 149.284 174.777 149.284C173.72 149.284 172.763 149.551 171.905 150.085C171.053 150.619 170.374 151.406 169.868 152.446C169.368 153.486 169.118 154.761 169.118 156.273C169.118 157.784 169.368 159.06 169.868 160.099C170.374 161.139 171.053 161.926 171.905 162.46C172.763 162.994 173.72 163.261 174.777 163.261C175.834 163.261 176.788 162.994 177.641 162.46C178.499 161.926 179.178 161.139 179.678 160.099C180.183 159.06 180.436 157.784 180.436 156.273ZM186.036 147.545H188.558L194.49 162.034H194.695L200.626 147.545H203.149V165H201.172V151.739H201.001L195.547 165H193.638L188.183 151.739H188.013V165H186.036V147.545ZM222.114 156.273C222.114 158.114 221.782 159.705 221.117 161.045C220.452 162.386 219.54 163.42 218.381 164.148C217.222 164.875 215.898 165.239 214.41 165.239C212.921 165.239 211.597 164.875 210.438 164.148C209.279 163.42 208.367 162.386 207.702 161.045C207.038 159.705 206.705 158.114 206.705 156.273C206.705 154.432 207.038 152.841 207.702 151.5C208.367 150.159 209.279 149.125 210.438 148.398C211.597 147.67 212.921 147.307 214.41 147.307C215.898 147.307 217.222 147.67 218.381 148.398C219.54 149.125 220.452 150.159 221.117 151.5C221.782 152.841 222.114 154.432 222.114 156.273ZM220.069 156.273C220.069 154.761 219.816 153.486 219.31 152.446C218.81 151.406 218.131 150.619 217.273 150.085C216.421 149.551 215.467 149.284 214.41 149.284C213.353 149.284 212.396 149.551 211.538 150.085C210.685 150.619 210.006 151.406 209.501 152.446C209.001 153.486 208.751 154.761 208.751 156.273C208.751 157.784 209.001 159.06 209.501 160.099C210.006 161.139 210.685 161.926 211.538 162.46C212.396 162.994 213.353 163.261 214.41 163.261C215.467 163.261 216.421 162.994 217.273 162.46C218.131 161.926 218.81 161.139 219.31 160.099C219.816 159.06 220.069 157.784 220.069 156.273ZM223.987 149.42V147.545H237.078V149.42H231.589V165H229.476V149.42H223.987ZM254.341 156.273C254.341 158.114 254.009 159.705 253.344 161.045C252.679 162.386 251.767 163.42 250.608 164.148C249.449 164.875 248.125 165.239 246.636 165.239C245.148 165.239 243.824 164.875 242.665 164.148C241.506 163.42 240.594 162.386 239.929 161.045C239.264 159.705 238.932 158.114 238.932 156.273C238.932 154.432 239.264 152.841 239.929 151.5C240.594 150.159 241.506 149.125 242.665 148.398C243.824 147.67 245.148 147.307 246.636 147.307C248.125 147.307 249.449 147.67 250.608 148.398C251.767 149.125 252.679 150.159 253.344 151.5C254.009 152.841 254.341 154.432 254.341 156.273ZM252.295 156.273C252.295 154.761 252.043 153.486 251.537 152.446C251.037 151.406 250.358 150.619 249.5 150.085C248.648 149.551 247.693 149.284 246.636 149.284C245.58 149.284 244.622 149.551 243.764 150.085C242.912 150.619 242.233 151.406 241.727 152.446C241.227 153.486 240.977 154.761 240.977 156.273C240.977 157.784 241.227 159.06 241.727 160.099C242.233 161.139 242.912 161.926 243.764 162.46C244.622 162.994 245.58 163.261 246.636 163.261C247.693 163.261 248.648 162.994 249.5 162.46C250.358 161.926 251.037 161.139 251.537 160.099C252.043 159.06 252.295 157.784 252.295 156.273ZM257.895 165V147.545H263.793C265.156 147.545 266.276 147.778 267.151 148.244C268.026 148.705 268.673 149.338 269.094 150.145C269.514 150.952 269.724 151.869 269.724 152.898C269.724 153.926 269.514 154.838 269.094 155.634C268.673 156.429 268.028 157.054 267.159 157.509C266.29 157.957 265.179 158.182 263.827 158.182H259.054V156.273H263.759C264.69 156.273 265.44 156.136 266.009 155.864C266.582 155.591 266.997 155.205 267.253 154.705C267.514 154.199 267.645 153.597 267.645 152.898C267.645 152.199 267.514 151.588 267.253 151.065C266.991 150.543 266.574 150.139 266 149.855C265.426 149.565 264.668 149.42 263.724 149.42H260.009V165H257.895ZM266.111 157.159L270.406 165H267.952L263.724 157.159H266.111ZM273.962 165H271.746L278.156 147.545H280.337L286.746 165H284.531L279.315 150.307H279.178L273.962 165ZM274.781 158.182H283.712V160.057H274.781V158.182ZM300.577 153C300.389 152.426 300.142 151.912 299.835 151.457C299.534 150.997 299.173 150.605 298.753 150.281C298.338 149.957 297.866 149.71 297.338 149.54C296.81 149.369 296.23 149.284 295.599 149.284C294.565 149.284 293.625 149.551 292.778 150.085C291.932 150.619 291.259 151.406 290.759 152.446C290.259 153.486 290.009 154.761 290.009 156.273C290.009 157.784 290.261 159.06 290.767 160.099C291.273 161.139 291.957 161.926 292.821 162.46C293.685 162.994 294.656 163.261 295.736 163.261C296.736 163.261 297.616 163.048 298.378 162.622C299.145 162.19 299.741 161.582 300.168 160.798C300.599 160.009 300.815 159.08 300.815 158.011L301.463 158.148H296.213V156.273H302.861V158.148C302.861 159.585 302.554 160.835 301.94 161.898C301.332 162.96 300.491 163.784 299.418 164.369C298.349 164.949 297.122 165.239 295.736 165.239C294.19 165.239 292.832 164.875 291.662 164.148C290.497 163.42 289.588 162.386 288.935 161.045C288.287 159.705 287.963 158.114 287.963 156.273C287.963 154.892 288.148 153.651 288.517 152.548C288.892 151.44 289.42 150.497 290.102 149.719C290.784 148.94 291.591 148.344 292.523 147.929C293.455 147.514 294.48 147.307 295.599 147.307C296.52 147.307 297.378 147.446 298.173 147.724C298.974 147.997 299.688 148.386 300.312 148.892C300.943 149.392 301.469 149.991 301.889 150.69C302.31 151.384 302.599 152.153 302.759 153H300.577ZM306.481 165V147.545H317.015V149.42H308.594V155.318H316.469V157.193H308.594V163.125H317.151V165H306.481Z" fill="black"/>
<path d="M134.227 203.545V221H132.114V203.545H134.227ZM152.306 203.545V221H150.261L140.749 207.295H140.579V221H138.465V203.545H140.511L150.056 217.284H150.227V203.545H152.306ZM166.081 207.909C165.979 207.045 165.564 206.375 164.837 205.898C164.109 205.42 163.217 205.182 162.161 205.182C161.388 205.182 160.712 205.307 160.132 205.557C159.558 205.807 159.109 206.151 158.786 206.588C158.467 207.026 158.308 207.523 158.308 208.08C158.308 208.545 158.419 208.946 158.641 209.281C158.868 209.611 159.158 209.886 159.51 210.108C159.862 210.324 160.232 210.503 160.618 210.645C161.004 210.781 161.359 210.892 161.683 210.977L163.456 211.455C163.911 211.574 164.416 211.739 164.973 211.949C165.536 212.159 166.072 212.446 166.584 212.81C167.101 213.168 167.527 213.628 167.862 214.19C168.197 214.753 168.365 215.443 168.365 216.261C168.365 217.205 168.118 218.057 167.624 218.818C167.135 219.58 166.419 220.185 165.476 220.634C164.538 221.082 163.399 221.307 162.058 221.307C160.808 221.307 159.726 221.105 158.811 220.702C157.902 220.298 157.186 219.736 156.663 219.014C156.146 218.293 155.854 217.455 155.786 216.5H157.967C158.024 217.159 158.246 217.705 158.632 218.136C159.024 218.562 159.518 218.881 160.115 219.091C160.717 219.295 161.365 219.398 162.058 219.398C162.865 219.398 163.589 219.267 164.232 219.006C164.874 218.739 165.382 218.369 165.757 217.898C166.132 217.42 166.32 216.864 166.32 216.227C166.32 215.648 166.158 215.176 165.834 214.812C165.51 214.449 165.084 214.153 164.555 213.926C164.027 213.699 163.456 213.5 162.842 213.33L160.695 212.716C159.331 212.324 158.251 211.764 157.456 211.037C156.661 210.31 156.263 209.358 156.263 208.182C156.263 207.205 156.527 206.352 157.055 205.625C157.589 204.892 158.305 204.324 159.203 203.92C160.107 203.511 161.115 203.307 162.229 203.307C163.354 203.307 164.354 203.509 165.229 203.912C166.104 204.31 166.797 204.855 167.308 205.548C167.825 206.241 168.098 207.028 168.126 207.909H166.081ZM185.886 209H183.772C183.647 208.392 183.428 207.858 183.116 207.398C182.809 206.938 182.434 206.551 181.991 206.239C181.553 205.92 181.067 205.682 180.533 205.523C179.999 205.364 179.442 205.284 178.863 205.284C177.806 205.284 176.849 205.551 175.991 206.085C175.138 206.619 174.46 207.406 173.954 208.446C173.454 209.486 173.204 210.761 173.204 212.273C173.204 213.784 173.454 215.06 173.954 216.099C174.46 217.139 175.138 217.926 175.991 218.46C176.849 218.994 177.806 219.261 178.863 219.261C179.442 219.261 179.999 219.182 180.533 219.023C181.067 218.864 181.553 218.628 181.991 218.315C182.434 217.997 182.809 217.608 183.116 217.148C183.428 216.682 183.647 216.148 183.772 215.545H185.886C185.727 216.437 185.437 217.236 185.016 217.94C184.596 218.645 184.073 219.244 183.448 219.739C182.823 220.227 182.121 220.599 181.343 220.855C180.57 221.111 179.744 221.239 178.863 221.239C177.374 221.239 176.05 220.875 174.891 220.148C173.732 219.42 172.82 218.386 172.156 217.045C171.491 215.705 171.158 214.114 171.158 212.273C171.158 210.432 171.491 208.841 172.156 207.5C172.82 206.159 173.732 205.125 174.891 204.398C176.05 203.67 177.374 203.307 178.863 203.307C179.744 203.307 180.57 203.435 181.343 203.69C182.121 203.946 182.823 204.321 183.448 204.815C184.073 205.304 184.596 205.901 185.016 206.605C185.437 207.304 185.727 208.102 185.886 209ZM189.301 221V203.545H195.199C196.563 203.545 197.682 203.778 198.557 204.244C199.432 204.705 200.08 205.338 200.5 206.145C200.92 206.952 201.131 207.869 201.131 208.898C201.131 209.926 200.92 210.838 200.5 211.634C200.08 212.429 199.435 213.054 198.565 213.509C197.696 213.957 196.585 214.182 195.233 214.182H190.46V212.273H195.165C196.097 212.273 196.847 212.136 197.415 211.864C197.989 211.591 198.403 211.205 198.659 210.705C198.92 210.199 199.051 209.597 199.051 208.898C199.051 208.199 198.92 207.588 198.659 207.065C198.398 206.543 197.98 206.139 197.406 205.855C196.832 205.565 196.074 205.42 195.131 205.42H191.415V221H189.301ZM197.517 213.159L201.812 221H199.358L195.131 213.159H197.517ZM206.766 203.545V221H204.653V203.545H206.766ZM211.004 221V203.545H216.902C218.271 203.545 219.391 203.793 220.26 204.287C221.135 204.776 221.783 205.438 222.203 206.273C222.624 207.108 222.834 208.04 222.834 209.068C222.834 210.097 222.624 211.031 222.203 211.872C221.788 212.713 221.146 213.384 220.277 213.884C219.408 214.378 218.294 214.625 216.936 214.625H212.709V212.75H216.868C217.805 212.75 218.558 212.588 219.126 212.264C219.695 211.94 220.107 211.503 220.362 210.952C220.624 210.395 220.754 209.767 220.754 209.068C220.754 208.369 220.624 207.744 220.362 207.193C220.107 206.642 219.692 206.21 219.118 205.898C218.544 205.58 217.783 205.42 216.834 205.42H213.118V221H211.004ZM225.284 205.42V203.545H238.375V205.42H232.886V221H230.773V205.42H225.284ZM243.751 203.545V221H241.637V203.545H243.751ZM262.716 212.273C262.716 214.114 262.384 215.705 261.719 217.045C261.054 218.386 260.142 219.42 258.983 220.148C257.824 220.875 256.5 221.239 255.011 221.239C253.523 221.239 252.199 220.875 251.04 220.148C249.881 219.42 248.969 218.386 248.304 217.045C247.639 215.705 247.307 214.114 247.307 212.273C247.307 210.432 247.639 208.841 248.304 207.5C248.969 206.159 249.881 205.125 251.04 204.398C252.199 203.67 253.523 203.307 255.011 203.307C256.5 203.307 257.824 203.67 258.983 204.398C260.142 205.125 261.054 206.159 261.719 207.5C262.384 208.841 262.716 210.432 262.716 212.273ZM260.67 212.273C260.67 210.761 260.418 209.486 259.912 208.446C259.412 207.406 258.733 206.619 257.875 206.085C257.023 205.551 256.068 205.284 255.011 205.284C253.955 205.284 252.997 205.551 252.139 206.085C251.287 206.619 250.608 207.406 250.102 208.446C249.602 209.486 249.352 210.761 249.352 212.273C249.352 213.784 249.602 215.06 250.102 216.099C250.608 217.139 251.287 217.926 252.139 218.46C252.997 218.994 253.955 219.261 255.011 219.261C256.068 219.261 257.023 218.994 257.875 218.46C258.733 217.926 259.412 217.139 259.912 216.099C260.418 215.06 260.67 213.784 260.67 212.273ZM280.111 203.545V221H278.065L268.554 207.295H268.384V221H266.27V203.545H268.315L277.861 217.284H278.031V203.545H280.111Z" fill="black"/>
<rect x="25" y="257" width="362" height="611" rx="39" fill="#D9D9D9"/>
<path d="M68.358 809.455L72.6761 821.699H72.8466L77.1648 809.455H79.0114L73.6705 824H71.8523L66.5114 809.455H68.358ZM84.4659 824.227C83.4811 824.227 82.617 823.993 81.8736 823.524C81.1349 823.055 80.5573 822.4 80.1406 821.557C79.7287 820.714 79.5227 819.729 79.5227 818.602C79.5227 817.466 79.7287 816.474 80.1406 815.626C80.5573 814.779 81.1349 814.121 81.8736 813.652C82.617 813.183 83.4811 812.949 84.4659 812.949C85.4508 812.949 86.3125 813.183 87.0511 813.652C87.7945 814.121 88.3722 814.779 88.7841 815.626C89.2008 816.474 89.4091 817.466 89.4091 818.602C89.4091 819.729 89.2008 820.714 88.7841 821.557C88.3722 822.4 87.7945 823.055 87.0511 823.524C86.3125 823.993 85.4508 824.227 84.4659 824.227ZM84.4659 822.722C85.214 822.722 85.8295 822.53 86.3125 822.146C86.7955 821.763 87.1529 821.259 87.3849 820.634C87.617 820.009 87.733 819.331 87.733 818.602C87.733 817.873 87.617 817.194 87.3849 816.564C87.1529 815.934 86.7955 815.425 86.3125 815.037C85.8295 814.649 85.214 814.455 84.4659 814.455C83.7178 814.455 83.1023 814.649 82.6193 815.037C82.1364 815.425 81.7789 815.934 81.5469 816.564C81.3149 817.194 81.1989 817.873 81.1989 818.602C81.1989 819.331 81.3149 820.009 81.5469 820.634C81.7789 821.259 82.1364 821.763 82.6193 822.146C83.1023 822.53 83.7178 822.722 84.4659 822.722ZM98.8427 819.54V813.091H100.519V824H98.8427V822.153H98.729C98.4734 822.707 98.0756 823.179 97.5359 823.567C96.9961 823.95 96.3143 824.142 95.4904 824.142C94.8086 824.142 94.2025 823.993 93.6722 823.695C93.1419 823.392 92.7253 822.937 92.4222 822.331C92.1192 821.72 91.9677 820.951 91.9677 820.023V813.091H93.6438V819.909C93.6438 820.705 93.8664 821.339 94.3114 821.812C94.7612 822.286 95.3342 822.523 96.0302 822.523C96.4469 822.523 96.8706 822.416 97.3015 822.203C97.7371 821.99 98.1017 821.663 98.3952 821.223C98.6935 820.783 98.8427 820.222 98.8427 819.54ZM111.316 815.534L109.81 815.96C109.716 815.709 109.576 815.465 109.391 815.229C109.211 814.987 108.965 814.788 108.653 814.632C108.34 814.476 107.94 814.398 107.452 814.398C106.785 814.398 106.228 814.552 105.783 814.859C105.343 815.162 105.123 815.548 105.123 816.017C105.123 816.434 105.274 816.763 105.577 817.004C105.88 817.246 106.354 817.447 106.998 817.608L108.617 818.006C109.593 818.242 110.319 818.605 110.798 819.092C111.276 819.575 111.515 820.198 111.515 820.96C111.515 821.585 111.335 822.144 110.975 822.636C110.62 823.129 110.123 823.517 109.484 823.801C108.844 824.085 108.101 824.227 107.254 824.227C106.141 824.227 105.22 823.986 104.491 823.503C103.762 823.02 103.3 822.314 103.106 821.386L104.697 820.989C104.848 821.576 105.135 822.016 105.556 822.31C105.982 822.603 106.539 822.75 107.225 822.75C108.006 822.75 108.627 822.584 109.086 822.253C109.55 821.917 109.782 821.514 109.782 821.045C109.782 820.667 109.649 820.349 109.384 820.094C109.119 819.833 108.712 819.639 108.163 819.511L106.344 819.085C105.345 818.848 104.612 818.482 104.143 817.984C103.679 817.482 103.447 816.855 103.447 816.102C103.447 815.487 103.62 814.942 103.965 814.469C104.316 813.995 104.791 813.624 105.393 813.354C105.999 813.084 106.685 812.949 107.452 812.949C108.532 812.949 109.379 813.186 109.995 813.659C110.615 814.133 111.056 814.758 111.316 815.534ZM122.873 824.256C122.182 824.256 121.555 824.125 120.991 823.865C120.428 823.6 119.98 823.219 119.649 822.722C119.317 822.22 119.152 821.614 119.152 820.903C119.152 820.278 119.275 819.772 119.521 819.384C119.767 818.991 120.096 818.683 120.508 818.46C120.92 818.238 121.375 818.072 121.872 817.963C122.374 817.849 122.878 817.759 123.385 817.693C124.047 817.608 124.585 817.544 124.997 817.501C125.413 817.454 125.717 817.376 125.906 817.267C126.1 817.158 126.197 816.969 126.197 816.699V816.642C126.197 815.941 126.005 815.397 125.622 815.009C125.243 814.62 124.668 814.426 123.896 814.426C123.096 814.426 122.468 814.601 122.014 814.952C121.559 815.302 121.24 815.676 121.055 816.074L119.464 815.506C119.748 814.843 120.127 814.327 120.6 813.957C121.079 813.583 121.6 813.323 122.163 813.176C122.731 813.025 123.29 812.949 123.839 812.949C124.19 812.949 124.592 812.991 125.047 813.077C125.506 813.157 125.949 813.325 126.375 813.581C126.806 813.837 127.163 814.223 127.447 814.739C127.731 815.255 127.873 815.946 127.873 816.812V824H126.197V822.523H126.112C125.998 822.759 125.809 823.013 125.544 823.283C125.279 823.553 124.926 823.782 124.485 823.972C124.045 824.161 123.508 824.256 122.873 824.256ZM123.129 822.75C123.792 822.75 124.35 822.62 124.805 822.359C125.264 822.099 125.61 821.763 125.842 821.351C126.079 820.939 126.197 820.506 126.197 820.051V818.517C126.126 818.602 125.97 818.68 125.728 818.751C125.492 818.818 125.217 818.877 124.904 818.929C124.597 818.976 124.296 819.019 124.002 819.057C123.714 819.09 123.479 819.118 123.299 819.142C122.864 819.199 122.457 819.291 122.078 819.419C121.704 819.542 121.401 819.729 121.169 819.98C120.941 820.226 120.828 820.562 120.828 820.989C120.828 821.571 121.043 822.011 121.474 822.31C121.91 822.603 122.461 822.75 123.129 822.75ZM139.462 813.091L135.428 824H133.724L129.69 813.091H131.508L134.519 821.784H134.633L137.644 813.091H139.462ZM145.858 824.227C144.807 824.227 143.9 823.995 143.138 823.531C142.38 823.062 141.795 822.409 141.384 821.571C140.976 820.728 140.773 819.748 140.773 818.631C140.773 817.513 140.976 816.528 141.384 815.676C141.795 814.819 142.368 814.152 143.102 813.673C143.841 813.19 144.703 812.949 145.688 812.949C146.256 812.949 146.817 813.044 147.371 813.233C147.925 813.422 148.429 813.73 148.884 814.156C149.338 814.578 149.7 815.136 149.97 815.832C150.24 816.528 150.375 817.385 150.375 818.403V819.114H141.966V817.665H148.67C148.67 817.049 148.547 816.5 148.301 816.017C148.06 815.534 147.714 815.153 147.264 814.874C146.819 814.594 146.294 814.455 145.688 814.455C145.02 814.455 144.442 814.62 143.955 814.952C143.472 815.278 143.1 815.705 142.839 816.23C142.579 816.756 142.449 817.319 142.449 817.92V818.886C142.449 819.71 142.591 820.409 142.875 820.982C143.164 821.55 143.564 821.983 144.075 822.281C144.587 822.575 145.181 822.722 145.858 822.722C146.298 822.722 146.696 822.66 147.051 822.537C147.411 822.409 147.721 822.22 147.982 821.969C148.242 821.713 148.443 821.396 148.585 821.017L150.205 821.472C150.034 822.021 149.748 822.504 149.345 822.92C148.943 823.332 148.446 823.654 147.854 823.886C147.262 824.114 146.597 824.227 145.858 824.227ZM152.612 824V822.722L158.805 814.767V814.653H152.811V813.091H160.964V814.426L154.942 822.324V822.438H161.163V824H152.612ZM173.489 824.227C172.58 824.227 171.778 823.998 171.082 823.538C170.386 823.074 169.841 822.421 169.448 821.578C169.055 820.731 168.859 819.729 168.859 818.574C168.859 817.428 169.055 816.434 169.448 815.591C169.841 814.748 170.388 814.097 171.089 813.638C171.79 813.179 172.599 812.949 173.518 812.949C174.228 812.949 174.789 813.067 175.201 813.304C175.618 813.536 175.935 813.801 176.153 814.099C176.375 814.393 176.548 814.634 176.671 814.824H176.813V809.455H178.489V824H176.87V822.324H176.671C176.548 822.523 176.373 822.774 176.146 823.077C175.918 823.375 175.594 823.643 175.173 823.879C174.751 824.111 174.19 824.227 173.489 824.227ZM173.717 822.722C174.389 822.722 174.957 822.546 175.421 822.196C175.885 821.841 176.238 821.351 176.479 820.726C176.721 820.096 176.842 819.369 176.842 818.545C176.842 817.731 176.723 817.018 176.487 816.408C176.25 815.792 175.899 815.314 175.435 814.973C174.971 814.627 174.398 814.455 173.717 814.455C173.006 814.455 172.415 814.637 171.941 815.001C171.472 815.361 171.12 815.851 170.883 816.472C170.651 817.087 170.535 817.778 170.535 818.545C170.535 819.322 170.653 820.027 170.89 820.662C171.131 821.292 171.487 821.794 171.955 822.168C172.429 822.537 173.016 822.722 173.717 822.722ZM186.366 824.227C185.315 824.227 184.408 823.995 183.646 823.531C182.888 823.062 182.303 822.409 181.891 821.571C181.484 820.728 181.281 819.748 181.281 818.631C181.281 817.513 181.484 816.528 181.891 815.676C182.303 814.819 182.876 814.152 183.61 813.673C184.349 813.19 185.21 812.949 186.195 812.949C186.763 812.949 187.325 813.044 187.879 813.233C188.433 813.422 188.937 813.73 189.391 814.156C189.846 814.578 190.208 815.136 190.478 815.832C190.748 816.528 190.883 817.385 190.883 818.403V819.114H182.474V817.665H189.178C189.178 817.049 189.055 816.5 188.809 816.017C188.567 815.534 188.222 815.153 187.772 814.874C187.327 814.594 186.801 814.455 186.195 814.455C185.528 814.455 184.95 814.62 184.462 814.952C183.979 815.278 183.608 815.705 183.347 816.23C183.087 816.756 182.957 817.319 182.957 817.92V818.886C182.957 819.71 183.099 820.409 183.383 820.982C183.672 821.55 184.072 821.983 184.583 822.281C185.094 822.575 185.689 822.722 186.366 822.722C186.806 822.722 187.204 822.66 187.559 822.537C187.919 822.409 188.229 822.22 188.489 821.969C188.75 821.713 188.951 821.396 189.093 821.017L190.712 821.472C190.542 822.021 190.255 822.504 189.853 822.92C189.451 823.332 188.953 823.654 188.362 823.886C187.77 824.114 187.104 824.227 186.366 824.227ZM185.343 811.614L187.076 808.318H189.036L186.82 811.614H185.343ZM193.433 813.091H195.109V824.795C195.109 825.468 194.993 826.05 194.761 826.543C194.533 827.035 194.188 827.416 193.724 827.686C193.264 827.956 192.684 828.091 191.984 828.091C191.927 828.091 191.87 828.091 191.813 828.091C191.756 828.091 191.7 828.091 191.643 828.091V826.528C191.7 826.528 191.752 826.528 191.799 826.528C191.846 826.528 191.898 826.528 191.955 826.528C192.467 826.528 192.841 826.377 193.077 826.074C193.314 825.776 193.433 825.349 193.433 824.795V813.091ZM194.256 811.273C193.93 811.273 193.648 811.161 193.411 810.939C193.179 810.716 193.063 810.449 193.063 810.136C193.063 809.824 193.179 809.556 193.411 809.334C193.648 809.111 193.93 809 194.256 809C194.583 809 194.862 809.111 195.094 809.334C195.331 809.556 195.45 809.824 195.45 810.136C195.45 810.449 195.331 810.716 195.094 810.939C194.862 811.161 194.583 811.273 194.256 811.273ZM201.389 824.256C200.698 824.256 200.07 824.125 199.507 823.865C198.943 823.6 198.496 823.219 198.164 822.722C197.833 822.22 197.667 821.614 197.667 820.903C197.667 820.278 197.79 819.772 198.037 819.384C198.283 818.991 198.612 818.683 199.024 818.46C199.436 818.238 199.89 818.072 200.387 817.963C200.889 817.849 201.394 817.759 201.9 817.693C202.563 817.608 203.1 817.544 203.512 817.501C203.929 817.454 204.232 817.376 204.422 817.267C204.616 817.158 204.713 816.969 204.713 816.699V816.642C204.713 815.941 204.521 815.397 204.137 815.009C203.759 814.62 203.183 814.426 202.412 814.426C201.611 814.426 200.984 814.601 200.529 814.952C200.075 815.302 199.755 815.676 199.571 816.074L197.98 815.506C198.264 814.843 198.643 814.327 199.116 813.957C199.594 813.583 200.115 813.323 200.679 813.176C201.247 813.025 201.806 812.949 202.355 812.949C202.705 812.949 203.108 812.991 203.562 813.077C204.021 813.157 204.464 813.325 204.89 813.581C205.321 813.837 205.679 814.223 205.963 814.739C206.247 815.255 206.389 815.946 206.389 816.812V824H204.713V822.523H204.627C204.514 822.759 204.324 823.013 204.059 823.283C203.794 823.553 203.441 823.782 203.001 823.972C202.561 824.161 202.023 824.256 201.389 824.256ZM201.645 822.75C202.307 822.75 202.866 822.62 203.321 822.359C203.78 822.099 204.126 821.763 204.358 821.351C204.594 820.939 204.713 820.506 204.713 820.051V818.517C204.642 818.602 204.485 818.68 204.244 818.751C204.007 818.818 203.733 818.877 203.42 818.929C203.112 818.976 202.812 819.019 202.518 819.057C202.229 819.09 201.995 819.118 201.815 819.142C201.379 819.199 200.972 819.291 200.593 819.419C200.219 819.542 199.916 819.729 199.684 819.98C199.457 820.226 199.343 820.562 199.343 820.989C199.343 821.571 199.559 822.011 199.99 822.31C200.425 822.603 200.977 822.75 201.645 822.75ZM201.758 811.614L199.542 808.318H201.502L203.235 811.614H201.758ZM221.948 819.54V813.091H223.624V824H221.948V822.153H221.835C221.579 822.707 221.181 823.179 220.641 823.567C220.102 823.95 219.42 824.142 218.596 824.142C217.914 824.142 217.308 823.993 216.778 823.695C216.247 823.392 215.831 822.937 215.528 822.331C215.225 821.72 215.073 820.951 215.073 820.023V813.091H216.749V819.909C216.749 820.705 216.972 821.339 217.417 821.812C217.867 822.286 218.44 822.523 219.136 822.523C219.552 822.523 219.976 822.416 220.407 822.203C220.843 821.99 221.207 821.663 221.501 821.223C221.799 820.783 221.948 820.222 221.948 819.54ZM228.37 817.438V824H226.694V813.091H228.314V814.795H228.456C228.711 814.241 229.1 813.796 229.62 813.46C230.141 813.119 230.814 812.949 231.637 812.949C232.376 812.949 233.022 813.1 233.576 813.403C234.13 813.702 234.561 814.156 234.869 814.767C235.177 815.373 235.331 816.14 235.331 817.068V824H233.654V817.182C233.654 816.325 233.432 815.657 232.987 815.179C232.542 814.696 231.931 814.455 231.154 814.455C230.619 814.455 230.141 814.571 229.72 814.803C229.303 815.035 228.974 815.373 228.733 815.818C228.491 816.263 228.37 816.803 228.37 817.438ZM248.45 824.227C247.428 824.227 246.547 823.986 245.808 823.503C245.07 823.02 244.501 822.355 244.104 821.507C243.706 820.66 243.507 819.691 243.507 818.602C243.507 817.494 243.711 816.517 244.118 815.669C244.53 814.817 245.103 814.152 245.837 813.673C246.575 813.19 247.437 812.949 248.422 812.949C249.189 812.949 249.88 813.091 250.496 813.375C251.111 813.659 251.616 814.057 252.009 814.568C252.402 815.08 252.645 815.676 252.74 816.358H251.064C250.936 815.861 250.652 815.42 250.212 815.037C249.776 814.649 249.189 814.455 248.45 814.455C247.797 814.455 247.224 814.625 246.732 814.966C246.244 815.302 245.863 815.778 245.588 816.393C245.318 817.004 245.183 817.722 245.183 818.545C245.183 819.388 245.316 820.122 245.581 820.747C245.851 821.372 246.23 821.857 246.717 822.203C247.21 822.549 247.787 822.722 248.45 822.722C248.886 822.722 249.281 822.646 249.636 822.494C249.991 822.343 250.292 822.125 250.538 821.841C250.785 821.557 250.96 821.216 251.064 820.818H252.74C252.645 821.462 252.411 822.042 252.037 822.558C251.668 823.07 251.178 823.477 250.567 823.78C249.961 824.078 249.255 824.227 248.45 824.227ZM259.622 824.227C258.637 824.227 257.773 823.993 257.03 823.524C256.291 823.055 255.714 822.4 255.297 821.557C254.885 820.714 254.679 819.729 254.679 818.602C254.679 817.466 254.885 816.474 255.297 815.626C255.714 814.779 256.291 814.121 257.03 813.652C257.773 813.183 258.637 812.949 259.622 812.949C260.607 812.949 261.469 813.183 262.207 813.652C262.951 814.121 263.528 814.779 263.94 815.626C264.357 816.474 264.565 817.466 264.565 818.602C264.565 819.729 264.357 820.714 263.94 821.557C263.528 822.4 262.951 823.055 262.207 823.524C261.469 823.993 260.607 824.227 259.622 824.227ZM259.622 822.722C260.37 822.722 260.986 822.53 261.469 822.146C261.952 821.763 262.309 821.259 262.541 820.634C262.773 820.009 262.889 819.331 262.889 818.602C262.889 817.873 262.773 817.194 262.541 816.564C262.309 815.934 261.952 815.425 261.469 815.037C260.986 814.649 260.37 814.455 259.622 814.455C258.874 814.455 258.259 814.649 257.776 815.037C257.293 815.425 256.935 815.934 256.703 816.564C256.471 817.194 256.355 817.873 256.355 818.602C256.355 819.331 256.471 820.009 256.703 820.634C256.935 821.259 257.293 821.763 257.776 822.146C258.259 822.53 258.874 822.722 259.622 822.722ZM267.124 824V813.091H268.743V814.795H268.885C269.113 814.213 269.48 813.761 269.986 813.439C270.493 813.112 271.101 812.949 271.811 812.949C272.531 812.949 273.13 813.112 273.608 813.439C274.091 813.761 274.468 814.213 274.738 814.795H274.851C275.131 814.232 275.55 813.785 276.108 813.453C276.667 813.117 277.337 812.949 278.118 812.949C279.094 812.949 279.891 813.254 280.512 813.865C281.132 814.471 281.442 815.416 281.442 816.699V824H279.766V816.699C279.766 815.894 279.546 815.319 279.105 814.973C278.665 814.627 278.147 814.455 277.55 814.455C276.783 814.455 276.189 814.687 275.767 815.151C275.346 815.61 275.135 816.192 275.135 816.898V824H273.431V816.528C273.431 815.908 273.23 815.409 272.827 815.03C272.425 814.646 271.906 814.455 271.272 814.455C270.836 814.455 270.429 814.571 270.05 814.803C269.676 815.035 269.373 815.357 269.141 815.768C268.914 816.176 268.8 816.647 268.8 817.182V824H267.124ZM284.507 828.091V813.091H286.126V814.824H286.325C286.448 814.634 286.618 814.393 286.836 814.099C287.059 813.801 287.376 813.536 287.788 813.304C288.205 813.067 288.768 812.949 289.478 812.949C290.397 812.949 291.207 813.179 291.907 813.638C292.608 814.097 293.155 814.748 293.548 815.591C293.941 816.434 294.137 817.428 294.137 818.574C294.137 819.729 293.941 820.731 293.548 821.578C293.155 822.421 292.61 823.074 291.914 823.538C291.218 823.998 290.416 824.227 289.507 824.227C288.806 824.227 288.245 824.111 287.824 823.879C287.402 823.643 287.078 823.375 286.85 823.077C286.623 822.774 286.448 822.523 286.325 822.324H286.183V828.091H284.507ZM286.154 818.545C286.154 819.369 286.275 820.096 286.517 820.726C286.758 821.351 287.111 821.841 287.575 822.196C288.039 822.546 288.607 822.722 289.279 822.722C289.98 822.722 290.565 822.537 291.034 822.168C291.507 821.794 291.862 821.292 292.099 820.662C292.341 820.027 292.461 819.322 292.461 818.545C292.461 817.778 292.343 817.087 292.106 816.472C291.874 815.851 291.521 815.361 291.048 815.001C290.579 814.637 289.99 814.455 289.279 814.455C288.598 814.455 288.025 814.627 287.561 814.973C287.097 815.314 286.746 815.792 286.51 816.408C286.273 817.018 286.154 817.731 286.154 818.545ZM301.439 813.091V814.511H295.785V813.091H301.439ZM297.433 810.477H299.109V820.875C299.109 821.348 299.178 821.704 299.315 821.94C299.457 822.172 299.637 822.329 299.855 822.409C300.077 822.485 300.312 822.523 300.558 822.523C300.743 822.523 300.894 822.513 301.012 822.494C301.131 822.471 301.225 822.452 301.297 822.438L301.637 823.943C301.524 823.986 301.365 824.028 301.162 824.071C300.958 824.118 300.7 824.142 300.387 824.142C299.914 824.142 299.45 824.04 298.995 823.837C298.546 823.633 298.172 823.323 297.873 822.906C297.58 822.49 297.433 821.964 297.433 821.33V810.477ZM308.417 824.227C307.365 824.227 306.459 823.995 305.696 823.531C304.939 823.062 304.354 822.409 303.942 821.571C303.535 820.728 303.331 819.748 303.331 818.631C303.331 817.513 303.535 816.528 303.942 815.676C304.354 814.819 304.927 814.152 305.661 813.673C306.4 813.19 307.261 812.949 308.246 812.949C308.814 812.949 309.375 813.044 309.929 813.233C310.483 813.422 310.988 813.73 311.442 814.156C311.897 814.578 312.259 815.136 312.529 815.832C312.799 816.528 312.934 817.385 312.934 818.403V819.114H304.525V817.665H311.229C311.229 817.049 311.106 816.5 310.86 816.017C310.618 815.534 310.273 815.153 309.823 814.874C309.378 814.594 308.852 814.455 308.246 814.455C307.578 814.455 307.001 814.62 306.513 814.952C306.03 815.278 305.658 815.705 305.398 816.23C305.138 816.756 305.007 817.319 305.007 817.92V818.886C305.007 819.71 305.15 820.409 305.434 820.982C305.722 821.55 306.123 821.983 306.634 822.281C307.145 822.575 307.739 822.722 308.417 822.722C308.857 822.722 309.255 822.66 309.61 822.537C309.97 822.409 310.28 822.22 310.54 821.969C310.801 821.713 311.002 821.396 311.144 821.017L312.763 821.472C312.593 822.021 312.306 822.504 311.904 822.92C311.501 823.332 311.004 823.654 310.412 823.886C309.82 824.114 309.155 824.227 308.417 824.227ZM323.296 819.909V819.824C323.305 818.92 323.4 818.2 323.58 817.665C323.76 817.13 324.016 816.696 324.347 816.365C324.678 816.034 325.076 815.728 325.54 815.449C325.819 815.278 326.07 815.077 326.293 814.845C326.516 814.608 326.691 814.336 326.819 814.028C326.951 813.721 327.017 813.38 327.017 813.006C327.017 812.542 326.908 812.139 326.691 811.798C326.473 811.457 326.182 811.195 325.817 811.01C325.453 810.825 325.048 810.733 324.603 810.733C324.214 810.733 323.84 810.813 323.48 810.974C323.121 811.135 322.82 811.389 322.578 811.734C322.337 812.08 322.197 812.532 322.159 813.091H320.37C320.408 812.286 320.616 811.597 320.995 811.024C321.378 810.451 321.882 810.013 322.507 809.71C323.137 809.407 323.836 809.256 324.603 809.256C325.436 809.256 326.16 809.421 326.776 809.753C327.396 810.084 327.874 810.539 328.211 811.116C328.551 811.694 328.722 812.352 328.722 813.091C328.722 813.612 328.641 814.083 328.48 814.504C328.324 814.926 328.097 815.302 327.799 815.634C327.505 815.965 327.15 816.259 326.733 816.514C326.317 816.775 325.983 817.049 325.732 817.338C325.481 817.622 325.299 817.961 325.185 818.354C325.071 818.747 325.01 819.237 325 819.824V819.909H323.296ZM324.205 824.114C323.855 824.114 323.554 823.988 323.303 823.737C323.052 823.486 322.926 823.186 322.926 822.835C322.926 822.485 323.052 822.184 323.303 821.933C323.554 821.682 323.855 821.557 324.205 821.557C324.555 821.557 324.856 821.682 325.107 821.933C325.358 822.184 325.483 822.485 325.483 822.835C325.483 823.067 325.424 823.28 325.306 823.474C325.192 823.669 325.038 823.825 324.844 823.943C324.655 824.057 324.442 824.114 324.205 824.114ZM79.4659 838H77.7045C77.6004 837.493 77.4181 837.048 77.1577 836.665C76.902 836.281 76.5895 835.959 76.2202 835.699C75.8556 835.434 75.4508 835.235 75.0057 835.102C74.5606 834.97 74.0966 834.903 73.6136 834.903C72.733 834.903 71.9351 835.126 71.2202 835.571C70.5099 836.016 69.9441 836.672 69.5227 837.538C69.1061 838.405 68.8977 839.468 68.8977 840.727C68.8977 841.987 69.1061 843.05 69.5227 843.916C69.9441 844.783 70.5099 845.438 71.2202 845.884C71.9351 846.329 72.733 846.551 73.6136 846.551C74.0966 846.551 74.5606 846.485 75.0057 846.352C75.4508 846.22 75.8556 846.023 76.2202 845.763C76.5895 845.498 76.902 845.173 77.1577 844.79C77.4181 844.402 77.6004 843.956 77.7045 843.455H79.4659C79.3333 844.198 79.0919 844.863 78.7415 845.45C78.3911 846.037 77.9555 846.537 77.4347 846.949C76.9138 847.356 76.3291 847.666 75.6804 847.879C75.0365 848.092 74.3475 848.199 73.6136 848.199C72.3731 848.199 71.2699 847.896 70.304 847.29C69.3381 846.684 68.5781 845.822 68.0241 844.705C67.4702 843.587 67.1932 842.261 67.1932 840.727C67.1932 839.193 67.4702 837.867 68.0241 836.75C68.5781 835.633 69.3381 834.771 70.304 834.165C71.2699 833.559 72.3731 833.256 73.6136 833.256C74.3475 833.256 75.0365 833.362 75.6804 833.575C76.3291 833.788 76.9138 834.101 77.4347 834.513C77.9555 834.92 78.3911 835.417 78.7415 836.004C79.0919 836.587 79.3333 837.252 79.4659 838ZM86.5167 848.227C85.5318 848.227 84.6677 847.993 83.9244 847.524C83.1857 847.055 82.6081 846.4 82.1914 845.557C81.7795 844.714 81.5735 843.729 81.5735 842.602C81.5735 841.466 81.7795 840.474 82.1914 839.626C82.6081 838.779 83.1857 838.121 83.9244 837.652C84.6677 837.183 85.5318 836.949 86.5167 836.949C87.5015 836.949 88.3633 837.183 89.1019 837.652C89.8453 838.121 90.4229 838.779 90.8349 839.626C91.2515 840.474 91.4599 841.466 91.4599 842.602C91.4599 843.729 91.2515 844.714 90.8349 845.557C90.4229 846.4 89.8453 847.055 89.1019 847.524C88.3633 847.993 87.5015 848.227 86.5167 848.227ZM86.5167 846.722C87.2648 846.722 87.8803 846.53 88.3633 846.146C88.8462 845.763 89.2037 845.259 89.4357 844.634C89.6677 844.009 89.7837 843.331 89.7837 842.602C89.7837 841.873 89.6677 841.194 89.4357 840.564C89.2037 839.934 88.8462 839.425 88.3633 839.037C87.8803 838.649 87.2648 838.455 86.5167 838.455C85.7686 838.455 85.1531 838.649 84.6701 839.037C84.1871 839.425 83.8297 839.934 83.5977 840.564C83.3656 841.194 83.2496 841.873 83.2496 842.602C83.2496 843.331 83.3656 844.009 83.5977 844.634C83.8297 845.259 84.1871 845.763 84.6701 846.146C85.1531 846.53 85.7686 846.722 86.5167 846.722ZM95.6946 841.438V848H94.0185V837.091H95.6378V838.795H95.7798C96.0355 838.241 96.4238 837.796 96.9446 837.46C97.4654 837.119 98.1378 836.949 98.9616 836.949C99.7003 836.949 100.347 837.1 100.901 837.403C101.455 837.702 101.885 838.156 102.193 838.767C102.501 839.373 102.655 840.14 102.655 841.068V848H100.979V841.182C100.979 840.325 100.756 839.657 100.311 839.179C99.866 838.696 99.2552 838.455 98.4787 838.455C97.9437 838.455 97.4654 838.571 97.044 838.803C96.6274 839.035 96.2983 839.373 96.0568 839.818C95.8153 840.263 95.6946 840.803 95.6946 841.438ZM107.394 841.438V848H105.718V837.091H107.337V838.795H107.479C107.735 838.241 108.123 837.796 108.644 837.46C109.165 837.119 109.837 836.949 110.661 836.949C111.4 836.949 112.046 837.1 112.6 837.403C113.154 837.702 113.585 838.156 113.892 838.767C114.2 839.373 114.354 840.14 114.354 841.068V848H112.678V841.182C112.678 840.325 112.455 839.657 112.01 839.179C111.565 838.696 110.954 838.455 110.178 838.455C109.643 838.455 109.165 838.571 108.743 838.803C108.327 839.035 107.998 839.373 107.756 839.818C107.515 840.263 107.394 840.803 107.394 841.438ZM121.991 848.227C120.94 848.227 120.033 847.995 119.271 847.531C118.513 847.062 117.928 846.409 117.516 845.571C117.109 844.728 116.906 843.748 116.906 842.631C116.906 841.513 117.109 840.528 117.516 839.676C117.928 838.819 118.501 838.152 119.235 837.673C119.974 837.19 120.835 836.949 121.82 836.949C122.388 836.949 122.95 837.044 123.504 837.233C124.058 837.422 124.562 837.73 125.016 838.156C125.471 838.578 125.833 839.136 126.103 839.832C126.373 840.528 126.508 841.385 126.508 842.403V843.114H118.099V841.665H124.803C124.803 841.049 124.68 840.5 124.434 840.017C124.192 839.534 123.847 839.153 123.397 838.874C122.952 838.594 122.426 838.455 121.82 838.455C121.153 838.455 120.575 838.62 120.087 838.952C119.604 839.278 119.233 839.705 118.972 840.23C118.712 840.756 118.582 841.319 118.582 841.92V842.886C118.582 843.71 118.724 844.409 119.008 844.982C119.297 845.55 119.697 845.983 120.208 846.281C120.719 846.575 121.314 846.722 121.991 846.722C122.431 846.722 122.829 846.66 123.184 846.537C123.544 846.409 123.854 846.22 124.114 845.969C124.375 845.713 124.576 845.396 124.718 845.017L126.337 845.472C126.167 846.021 125.88 846.504 125.478 846.92C125.076 847.332 124.578 847.654 123.987 847.886C123.395 848.114 122.729 848.227 121.991 848.227ZM133.489 848.227C132.467 848.227 131.586 847.986 130.847 847.503C130.109 847.02 129.54 846.355 129.143 845.507C128.745 844.66 128.546 843.691 128.546 842.602C128.546 841.494 128.75 840.517 129.157 839.669C129.569 838.817 130.142 838.152 130.876 837.673C131.614 837.19 132.476 836.949 133.461 836.949C134.228 836.949 134.919 837.091 135.535 837.375C136.15 837.659 136.655 838.057 137.048 838.568C137.441 839.08 137.684 839.676 137.779 840.358H136.103C135.975 839.861 135.691 839.42 135.251 839.037C134.815 838.649 134.228 838.455 133.489 838.455C132.836 838.455 132.263 838.625 131.771 838.966C131.283 839.302 130.902 839.778 130.627 840.393C130.357 841.004 130.222 841.722 130.222 842.545C130.222 843.388 130.355 844.122 130.62 844.747C130.89 845.372 131.269 845.857 131.756 846.203C132.249 846.549 132.826 846.722 133.489 846.722C133.925 846.722 134.32 846.646 134.675 846.494C135.031 846.343 135.331 846.125 135.577 845.841C135.824 845.557 135.999 845.216 136.103 844.818H137.779C137.684 845.462 137.45 846.042 137.076 846.558C136.707 847.07 136.217 847.477 135.606 847.78C135 848.078 134.294 848.227 133.489 848.227ZM144.974 837.091V838.511H139.32V837.091H144.974ZM140.968 834.477H142.644V844.875C142.644 845.348 142.713 845.704 142.85 845.94C142.992 846.172 143.172 846.329 143.39 846.409C143.612 846.485 143.847 846.523 144.093 846.523C144.278 846.523 144.429 846.513 144.548 846.494C144.666 846.471 144.761 846.452 144.832 846.438L145.173 847.943C145.059 847.986 144.9 848.028 144.697 848.071C144.493 848.118 144.235 848.142 143.923 848.142C143.449 848.142 142.985 848.04 142.531 847.837C142.081 847.633 141.707 847.323 141.408 846.906C141.115 846.49 140.968 845.964 140.968 845.33V834.477ZM151.952 848.227C150.901 848.227 149.994 847.995 149.232 847.531C148.474 847.062 147.889 846.409 147.477 845.571C147.07 844.728 146.866 843.748 146.866 842.631C146.866 841.513 147.07 840.528 147.477 839.676C147.889 838.819 148.462 838.152 149.196 837.673C149.935 837.19 150.796 836.949 151.781 836.949C152.349 836.949 152.911 837.044 153.464 837.233C154.018 837.422 154.523 837.73 154.977 838.156C155.432 838.578 155.794 839.136 156.064 839.832C156.334 840.528 156.469 841.385 156.469 842.403V843.114H148.06V841.665H154.764C154.764 841.049 154.641 840.5 154.395 840.017C154.153 839.534 153.808 839.153 153.358 838.874C152.913 838.594 152.387 838.455 151.781 838.455C151.114 838.455 150.536 838.62 150.048 838.952C149.565 839.278 149.194 839.705 148.933 840.23C148.673 840.756 148.543 841.319 148.543 841.92V842.886C148.543 843.71 148.685 844.409 148.969 844.982C149.258 845.55 149.658 845.983 150.169 846.281C150.68 846.575 151.275 846.722 151.952 846.722C152.392 846.722 152.79 846.66 153.145 846.537C153.505 846.409 153.815 846.22 154.075 845.969C154.336 845.713 154.537 845.396 154.679 845.017L156.298 845.472C156.128 846.021 155.841 846.504 155.439 846.92C155.036 847.332 154.539 847.654 153.947 847.886C153.356 848.114 152.69 848.227 151.952 848.227ZM158.706 848V846.722L164.899 838.767V838.653H158.905V837.091H167.058V838.426L161.036 846.324V846.438H167.257V848H158.706ZM176.089 840.983V842.545H169.725V840.983H176.089ZM187.958 837.091L183.924 848H182.22L178.186 837.091H180.004L183.015 845.784H183.129L186.14 837.091H187.958ZM194.212 848.227C193.227 848.227 192.363 847.993 191.62 847.524C190.881 847.055 190.303 846.4 189.887 845.557C189.475 844.714 189.269 843.729 189.269 842.602C189.269 841.466 189.475 840.474 189.887 839.626C190.303 838.779 190.881 838.121 191.62 837.652C192.363 837.183 193.227 836.949 194.212 836.949C195.197 836.949 196.059 837.183 196.797 837.652C197.541 838.121 198.118 838.779 198.53 839.626C198.947 840.474 199.155 841.466 199.155 842.602C199.155 843.729 198.947 844.714 198.53 845.557C198.118 846.4 197.541 847.055 196.797 847.524C196.059 847.993 195.197 848.227 194.212 848.227ZM194.212 846.722C194.96 846.722 195.576 846.53 196.059 846.146C196.542 845.763 196.899 845.259 197.131 844.634C197.363 844.009 197.479 843.331 197.479 842.602C197.479 841.873 197.363 841.194 197.131 840.564C196.899 839.934 196.542 839.425 196.059 839.037C195.576 838.649 194.96 838.455 194.212 838.455C193.464 838.455 192.848 838.649 192.365 839.037C191.882 839.425 191.525 839.934 191.293 840.564C191.061 841.194 190.945 841.873 190.945 842.602C190.945 843.331 191.061 844.009 191.293 844.634C191.525 845.259 191.882 845.763 192.365 846.146C192.848 846.53 193.464 846.722 194.212 846.722ZM208.589 843.54V837.091H210.265V848H208.589V846.153H208.475C208.219 846.707 207.822 847.179 207.282 847.567C206.742 847.95 206.06 848.142 205.237 848.142C204.555 848.142 203.949 847.993 203.418 847.695C202.888 847.392 202.471 846.937 202.168 846.331C201.865 845.72 201.714 844.951 201.714 844.023V837.091H203.39V843.909C203.39 844.705 203.612 845.339 204.058 845.812C204.507 846.286 205.08 846.523 205.776 846.523C206.193 846.523 206.617 846.416 207.048 846.203C207.483 845.99 207.848 845.663 208.141 845.223C208.44 844.783 208.589 844.222 208.589 843.54ZM221.062 839.534L219.556 839.96C219.462 839.709 219.322 839.465 219.137 839.229C218.958 838.987 218.711 838.788 218.399 838.632C218.086 838.476 217.686 838.398 217.199 838.398C216.531 838.398 215.975 838.552 215.529 838.859C215.089 839.162 214.869 839.548 214.869 840.017C214.869 840.434 215.02 840.763 215.324 841.004C215.627 841.246 216.1 841.447 216.744 841.608L218.363 842.006C219.339 842.242 220.065 842.605 220.544 843.092C221.022 843.575 221.261 844.198 221.261 844.96C221.261 845.585 221.081 846.144 220.721 846.636C220.366 847.129 219.869 847.517 219.23 847.801C218.591 848.085 217.847 848.227 217 848.227C215.887 848.227 214.966 847.986 214.237 847.503C213.508 847.02 213.046 846.314 212.852 845.386L214.443 844.989C214.594 845.576 214.881 846.016 215.302 846.31C215.728 846.603 216.285 846.75 216.971 846.75C217.752 846.75 218.373 846.584 218.832 846.253C219.296 845.917 219.528 845.514 219.528 845.045C219.528 844.667 219.395 844.349 219.13 844.094C218.865 843.833 218.458 843.639 217.909 843.511L216.091 843.085C215.092 842.848 214.358 842.482 213.889 841.984C213.425 841.482 213.193 840.855 213.193 840.102C213.193 839.487 213.366 838.942 213.711 838.469C214.062 837.995 214.538 837.624 215.139 837.354C215.745 837.084 216.431 836.949 217.199 836.949C218.278 836.949 219.126 837.186 219.741 837.659C220.361 838.133 220.802 838.758 221.062 839.534Z" fill="#7182F6"/>
<path d="M55.358 579H53.5114L58.8523 564.455H60.6705L66.0114 579H64.1648L59.8182 566.756H59.7045L55.358 579ZM56.0398 573.318H63.483V574.881H56.0398V573.318ZM72.169 579.227C71.2599 579.227 70.4574 578.998 69.7614 578.538C69.0653 578.074 68.5208 577.421 68.1278 576.578C67.7348 575.731 67.5384 574.729 67.5384 573.574C67.5384 572.428 67.7348 571.434 68.1278 570.591C68.5208 569.748 69.0677 569.097 69.7685 568.638C70.4692 568.179 71.2789 567.949 72.1974 567.949C72.9077 567.949 73.4688 568.067 73.8807 568.304C74.2973 568.536 74.6146 568.801 74.8324 569.099C75.0549 569.393 75.2277 569.634 75.3509 569.824H75.4929V564.455H77.169V579H75.5497V577.324H75.3509C75.2277 577.523 75.0526 577.774 74.8253 578.077C74.598 578.375 74.2737 578.643 73.8523 578.879C73.4309 579.111 72.8698 579.227 72.169 579.227ZM72.3963 577.722C73.0687 577.722 73.6368 577.546 74.1009 577.196C74.5649 576.841 74.9176 576.351 75.1591 575.726C75.4006 575.096 75.5213 574.369 75.5213 573.545C75.5213 572.731 75.4029 572.018 75.1662 571.408C74.9295 570.792 74.5791 570.314 74.1151 569.973C73.651 569.627 73.0781 569.455 72.3963 569.455C71.6861 569.455 71.0942 569.637 70.6207 570.001C70.152 570.361 69.7992 570.851 69.5625 571.472C69.3305 572.087 69.2145 572.778 69.2145 573.545C69.2145 574.322 69.3329 575.027 69.5696 575.662C69.8111 576.292 70.1662 576.794 70.6349 577.168C71.1084 577.537 71.6955 577.722 72.3963 577.722ZM80.4716 579V568.091H82.0909V569.739H82.2045C82.4034 569.199 82.7633 568.761 83.2841 568.425C83.8049 568.089 84.392 567.92 85.0455 567.92C85.1686 567.92 85.3224 567.923 85.5071 567.928C85.6918 567.932 85.8314 567.939 85.9261 567.949V569.653C85.8693 569.639 85.7391 569.618 85.5355 569.589C85.3366 569.556 85.1259 569.54 84.9034 569.54C84.3731 569.54 83.8996 569.651 83.483 569.874C83.071 570.091 82.7443 570.394 82.5028 570.783C82.2661 571.166 82.1477 571.604 82.1477 572.097V579H80.4716ZM92.1548 579.227C91.1037 579.227 90.197 578.995 89.4347 578.531C88.6771 578.062 88.0923 577.409 87.6804 576.571C87.2732 575.728 87.0696 574.748 87.0696 573.631C87.0696 572.513 87.2732 571.528 87.6804 570.676C88.0923 569.819 88.6652 569.152 89.3991 568.673C90.1378 568.19 90.9995 567.949 91.9844 567.949C92.5526 567.949 93.1136 568.044 93.6676 568.233C94.2216 568.422 94.7259 568.73 95.1804 569.156C95.6349 569.578 95.9972 570.136 96.267 570.832C96.5369 571.528 96.6719 572.385 96.6719 573.403V574.114H88.2628V572.665H94.9673C94.9673 572.049 94.8442 571.5 94.598 571.017C94.3565 570.534 94.0109 570.153 93.5611 569.874C93.116 569.594 92.5904 569.455 91.9844 569.455C91.3168 569.455 90.7391 569.62 90.2514 569.952C89.7685 570.278 89.3968 570.705 89.1364 571.23C88.8759 571.756 88.7457 572.319 88.7457 572.92V573.886C88.7457 574.71 88.8878 575.409 89.1719 575.982C89.4607 576.55 89.8608 576.983 90.3722 577.281C90.8835 577.575 91.4777 577.722 92.1548 577.722C92.5952 577.722 92.9929 577.66 93.348 577.537C93.7079 577.409 94.018 577.22 94.2784 576.969C94.5388 576.713 94.7401 576.396 94.8821 576.017L96.5014 576.472C96.331 577.021 96.0445 577.504 95.642 577.92C95.2396 578.332 94.7424 578.654 94.1506 578.886C93.5587 579.114 92.8935 579.227 92.1548 579.227ZM106.949 570.534L105.443 570.96C105.348 570.709 105.209 570.465 105.024 570.229C104.844 569.987 104.598 569.788 104.286 569.632C103.973 569.476 103.573 569.398 103.085 569.398C102.418 569.398 101.861 569.552 101.416 569.859C100.976 570.162 100.756 570.548 100.756 571.017C100.756 571.434 100.907 571.763 101.21 572.004C101.513 572.246 101.987 572.447 102.631 572.608L104.25 573.006C105.225 573.242 105.952 573.605 106.43 574.092C106.909 574.575 107.148 575.198 107.148 575.96C107.148 576.585 106.968 577.144 106.608 577.636C106.253 578.129 105.756 578.517 105.116 578.801C104.477 579.085 103.734 579.227 102.886 579.227C101.774 579.227 100.853 578.986 100.124 578.503C99.3944 578.02 98.9328 577.314 98.7386 576.386L100.33 575.989C100.481 576.576 100.768 577.016 101.189 577.31C101.615 577.603 102.171 577.75 102.858 577.75C103.639 577.75 104.259 577.584 104.719 577.253C105.183 576.917 105.415 576.514 105.415 576.045C105.415 575.667 105.282 575.349 105.017 575.094C104.752 574.833 104.345 574.639 103.795 574.511L101.977 574.085C100.978 573.848 100.244 573.482 99.7756 572.984C99.3116 572.482 99.0795 571.855 99.0795 571.102C99.0795 570.487 99.2524 569.942 99.598 569.469C99.9484 568.995 100.424 568.624 101.026 568.354C101.632 568.084 102.318 567.949 103.085 567.949C104.165 567.949 105.012 568.186 105.628 568.659C106.248 569.133 106.688 569.758 106.949 570.534ZM117.398 570.534L115.892 570.96C115.798 570.709 115.658 570.465 115.473 570.229C115.293 569.987 115.047 569.788 114.735 569.632C114.422 569.476 114.022 569.398 113.534 569.398C112.867 569.398 112.31 569.552 111.865 569.859C111.425 570.162 111.205 570.548 111.205 571.017C111.205 571.434 111.356 571.763 111.659 572.004C111.962 572.246 112.436 572.447 113.08 572.608L114.699 573.006C115.675 573.242 116.401 573.605 116.88 574.092C117.358 574.575 117.597 575.198 117.597 575.96C117.597 576.585 117.417 577.144 117.057 577.636C116.702 578.129 116.205 578.517 115.566 578.801C114.926 579.085 114.183 579.227 113.336 579.227C112.223 579.227 111.302 578.986 110.573 578.503C109.844 578.02 109.382 577.314 109.188 576.386L110.779 575.989C110.93 576.576 111.217 577.016 111.638 577.31C112.064 577.603 112.621 577.75 113.307 577.75C114.088 577.75 114.709 577.584 115.168 577.253C115.632 576.917 115.864 576.514 115.864 576.045C115.864 575.667 115.731 575.349 115.466 575.094C115.201 574.833 114.794 574.639 114.245 574.511L112.426 574.085C111.427 573.848 110.694 573.482 110.225 572.984C109.761 572.482 109.529 571.855 109.529 571.102C109.529 570.487 109.702 569.942 110.047 569.469C110.398 568.995 110.873 568.624 111.475 568.354C112.081 568.084 112.767 567.949 113.534 567.949C114.614 567.949 115.462 568.186 116.077 568.659C116.697 569.133 117.138 569.758 117.398 570.534ZM124.694 579.227C123.643 579.227 122.736 578.995 121.974 578.531C121.216 578.062 120.631 577.409 120.219 576.571C119.812 575.728 119.609 574.748 119.609 573.631C119.609 572.513 119.812 571.528 120.219 570.676C120.631 569.819 121.204 569.152 121.938 568.673C122.677 568.19 123.539 567.949 124.523 567.949C125.092 567.949 125.653 568.044 126.207 568.233C126.761 568.422 127.265 568.73 127.719 569.156C128.174 569.578 128.536 570.136 128.806 570.832C129.076 571.528 129.211 572.385 129.211 573.403V574.114H120.802V572.665H127.506C127.506 572.049 127.383 571.5 127.137 571.017C126.896 570.534 126.55 570.153 126.1 569.874C125.655 569.594 125.129 569.455 124.523 569.455C123.856 569.455 123.278 569.62 122.79 569.952C122.308 570.278 121.936 570.705 121.675 571.23C121.415 571.756 121.285 572.319 121.285 572.92V573.886C121.285 574.71 121.427 575.409 121.711 575.982C122 576.55 122.4 576.983 122.911 577.281C123.423 577.575 124.017 577.722 124.694 577.722C125.134 577.722 125.532 577.66 125.887 577.537C126.247 577.409 126.557 577.22 126.817 576.969C127.078 576.713 127.279 576.396 127.421 576.017L129.04 576.472C128.87 577.021 128.584 577.504 128.181 577.92C127.779 578.332 127.281 578.654 126.69 578.886C126.098 579.114 125.433 579.227 124.694 579.227ZM141.96 579.227C140.908 579.227 140.002 578.995 139.239 578.531C138.482 578.062 137.897 577.409 137.485 576.571C137.078 575.728 136.874 574.748 136.874 573.631C136.874 572.513 137.078 571.528 137.485 570.676C137.897 569.819 138.47 569.152 139.204 568.673C139.942 568.19 140.804 567.949 141.789 567.949C142.357 567.949 142.918 568.044 143.472 568.233C144.026 568.422 144.531 568.73 144.985 569.156C145.44 569.578 145.802 570.136 146.072 570.832C146.342 571.528 146.477 572.385 146.477 573.403V574.114H138.067V572.665H144.772C144.772 572.049 144.649 571.5 144.403 571.017C144.161 570.534 143.816 570.153 143.366 569.874C142.921 569.594 142.395 569.455 141.789 569.455C141.121 569.455 140.544 569.62 140.056 569.952C139.573 570.278 139.201 570.705 138.941 571.23C138.681 571.756 138.55 572.319 138.55 572.92V573.886C138.55 574.71 138.692 575.409 138.977 575.982C139.265 576.55 139.665 576.983 140.177 577.281C140.688 577.575 141.282 577.722 141.96 577.722C142.4 577.722 142.798 577.66 143.153 577.537C143.513 577.409 143.823 577.22 144.083 576.969C144.344 576.713 144.545 576.396 144.687 576.017L146.306 576.472C146.136 577.021 145.849 577.504 145.447 577.92C145.044 578.332 144.547 578.654 143.955 578.886C143.363 579.114 142.698 579.227 141.96 579.227ZM155.276 571.983V573.545H148.913V571.983H155.276ZM158.225 579V568.091H159.845V569.795H159.987C160.214 569.213 160.581 568.761 161.088 568.439C161.594 568.112 162.203 567.949 162.913 567.949C163.633 567.949 164.232 568.112 164.71 568.439C165.193 568.761 165.569 569.213 165.839 569.795H165.953C166.232 569.232 166.651 568.785 167.21 568.453C167.769 568.117 168.439 567.949 169.22 567.949C170.195 567.949 170.993 568.254 171.613 568.865C172.234 569.471 172.544 570.416 172.544 571.699V579H170.868V571.699C170.868 570.894 170.647 570.319 170.207 569.973C169.767 569.627 169.248 569.455 168.652 569.455C167.885 569.455 167.29 569.687 166.869 570.151C166.448 570.61 166.237 571.192 166.237 571.898V579H164.532V571.528C164.532 570.908 164.331 570.409 163.929 570.03C163.526 569.646 163.008 569.455 162.373 569.455C161.938 569.455 161.53 569.571 161.152 569.803C160.778 570.035 160.475 570.357 160.243 570.768C160.015 571.176 159.902 571.647 159.902 572.182V579H158.225ZM178.819 579.256C178.127 579.256 177.5 579.125 176.936 578.865C176.373 578.6 175.926 578.219 175.594 577.722C175.263 577.22 175.097 576.614 175.097 575.903C175.097 575.278 175.22 574.772 175.466 574.384C175.712 573.991 176.042 573.683 176.453 573.46C176.865 573.238 177.32 573.072 177.817 572.963C178.319 572.849 178.823 572.759 179.33 572.693C179.993 572.608 180.53 572.544 180.942 572.501C181.359 572.454 181.662 572.376 181.851 572.267C182.045 572.158 182.142 571.969 182.142 571.699V571.642C182.142 570.941 181.951 570.397 181.567 570.009C181.188 569.62 180.613 569.426 179.841 569.426C179.041 569.426 178.414 569.601 177.959 569.952C177.505 570.302 177.185 570.676 177 571.074L175.409 570.506C175.694 569.843 176.072 569.327 176.546 568.957C177.024 568.583 177.545 568.323 178.108 568.176C178.676 568.025 179.235 567.949 179.784 567.949C180.135 567.949 180.537 567.991 180.992 568.077C181.451 568.157 181.894 568.325 182.32 568.581C182.751 568.837 183.108 569.223 183.392 569.739C183.676 570.255 183.819 570.946 183.819 571.812V579H182.142V577.523H182.057C181.944 577.759 181.754 578.013 181.489 578.283C181.224 578.553 180.871 578.782 180.431 578.972C179.99 579.161 179.453 579.256 178.819 579.256ZM179.074 577.75C179.737 577.75 180.296 577.62 180.75 577.359C181.21 577.099 181.555 576.763 181.787 576.351C182.024 575.939 182.142 575.506 182.142 575.051V573.517C182.071 573.602 181.915 573.68 181.674 573.751C181.437 573.818 181.162 573.877 180.85 573.929C180.542 573.976 180.241 574.019 179.948 574.057C179.659 574.09 179.425 574.118 179.245 574.142C178.809 574.199 178.402 574.291 178.023 574.419C177.649 574.542 177.346 574.729 177.114 574.98C176.887 575.226 176.773 575.562 176.773 575.989C176.773 576.571 176.989 577.011 177.419 577.31C177.855 577.603 178.407 577.75 179.074 577.75ZM186.878 579V568.091H188.554V579H186.878ZM187.73 566.273C187.403 566.273 187.122 566.161 186.885 565.939C186.653 565.716 186.537 565.449 186.537 565.136C186.537 564.824 186.653 564.556 186.885 564.334C187.122 564.111 187.403 564 187.73 564C188.057 564 188.336 564.111 188.568 564.334C188.805 564.556 188.923 564.824 188.923 565.136C188.923 565.449 188.805 565.716 188.568 565.939C188.336 566.161 188.057 566.273 187.73 566.273ZM193.3 564.455V579H191.624V564.455H193.3Z" fill="black"/>
<path d="M59.2955 278.455V293H57.5909L49.6648 281.58H49.5227V293H47.7614V278.455H49.4659L57.4205 289.903H57.5625V278.455H59.2955ZM67.0245 293.227C66.0397 293.227 65.1755 292.993 64.4322 292.524C63.6935 292.055 63.1159 291.4 62.6992 290.557C62.2873 289.714 62.0813 288.729 62.0813 287.602C62.0813 286.466 62.2873 285.474 62.6992 284.626C63.1159 283.779 63.6935 283.121 64.4322 282.652C65.1755 282.183 66.0397 281.949 67.0245 281.949C68.0094 281.949 68.8711 282.183 69.6097 282.652C70.3531 283.121 70.9308 283.779 71.3427 284.626C71.7594 285.474 71.9677 286.466 71.9677 287.602C71.9677 288.729 71.7594 289.714 71.3427 290.557C70.9308 291.4 70.3531 292.055 69.6097 292.524C68.8711 292.993 68.0094 293.227 67.0245 293.227ZM67.0245 291.722C67.7726 291.722 68.3881 291.53 68.8711 291.146C69.354 290.763 69.7115 290.259 69.9435 289.634C70.1755 289.009 70.2915 288.331 70.2915 287.602C70.2915 286.873 70.1755 286.194 69.9435 285.564C69.7115 284.934 69.354 284.425 68.8711 284.037C68.3881 283.649 67.7726 283.455 67.0245 283.455C66.2764 283.455 65.6609 283.649 65.1779 284.037C64.695 284.425 64.3375 284.934 64.1055 285.564C63.8735 286.194 63.7575 286.873 63.7575 287.602C63.7575 288.331 63.8735 289.009 64.1055 289.634C64.3375 290.259 64.695 290.763 65.1779 291.146C65.6609 291.53 66.2764 291.722 67.0245 291.722ZM74.5263 293V282.091H76.1456V283.795H76.2876C76.5149 283.213 76.8819 282.761 77.3885 282.439C77.8951 282.112 78.5036 281.949 79.2138 281.949C79.9335 281.949 80.5324 282.112 81.0107 282.439C81.4936 282.761 81.87 283.213 82.1399 283.795H82.2536C82.5329 283.232 82.9519 282.785 83.5107 282.453C84.0694 282.117 84.7393 281.949 85.5206 281.949C86.496 281.949 87.2938 282.254 87.9141 282.865C88.5343 283.471 88.8445 284.416 88.8445 285.699V293H87.1683V285.699C87.1683 284.894 86.9482 284.319 86.5078 283.973C86.0675 283.627 85.549 283.455 84.9524 283.455C84.1854 283.455 83.5911 283.687 83.1697 284.151C82.7483 284.61 82.5376 285.192 82.5376 285.898V293H80.8331V285.528C80.8331 284.908 80.6319 284.409 80.2294 284.03C79.8269 283.646 79.3085 283.455 78.674 283.455C78.2384 283.455 77.8312 283.571 77.4524 283.803C77.0784 284.035 76.7753 284.357 76.5433 284.768C76.3161 285.176 76.2024 285.647 76.2024 286.182V293H74.5263Z" fill="black"/>
<path d="M50.7614 400V385.455H55.6761C56.8172 385.455 57.75 385.661 58.4744 386.072C59.2036 386.48 59.7434 387.031 60.0938 387.727C60.4441 388.423 60.6193 389.2 60.6193 390.057C60.6193 390.914 60.4441 391.693 60.0938 392.393C59.7481 393.094 59.2131 393.653 58.4886 394.07C57.7642 394.482 56.8362 394.688 55.7045 394.688H52.1818V393.125H55.6477C56.429 393.125 57.0563 392.99 57.5298 392.72C58.0033 392.45 58.3466 392.086 58.5597 391.626C58.7775 391.162 58.8864 390.639 58.8864 390.057C58.8864 389.474 58.7775 388.954 58.5597 388.494C58.3466 388.035 58.0009 387.675 57.5227 387.415C57.0445 387.15 56.41 387.017 55.6193 387.017H52.5227V400H50.7614ZM63.2294 400V389.091H64.8487V390.739H64.9624C65.1612 390.199 65.5211 389.761 66.0419 389.425C66.5627 389.089 67.1499 388.92 67.8033 388.92C67.9264 388.92 68.0803 388.923 68.2649 388.928C68.4496 388.932 68.5893 388.939 68.6839 388.949V390.653C68.6271 390.639 68.4969 390.618 68.2933 390.589C68.0945 390.556 67.8838 390.54 67.6612 390.54C67.1309 390.54 66.6574 390.651 66.2408 390.874C65.8288 391.091 65.5021 391.394 65.2607 391.783C65.0239 392.166 64.9055 392.604 64.9055 393.097V400H63.2294ZM74.9126 400.227C73.8615 400.227 72.9548 399.995 72.1925 399.531C71.4349 399.062 70.8501 398.409 70.4382 397.571C70.031 396.728 69.8274 395.748 69.8274 394.631C69.8274 393.513 70.031 392.528 70.4382 391.676C70.8501 390.819 71.4231 390.152 72.157 389.673C72.8956 389.19 73.7573 388.949 74.7422 388.949C75.3104 388.949 75.8714 389.044 76.4254 389.233C76.9794 389.422 77.4837 389.73 77.9382 390.156C78.3928 390.578 78.755 391.136 79.0249 391.832C79.2947 392.528 79.4297 393.385 79.4297 394.403V395.114H71.0206V393.665H77.7251C77.7251 393.049 77.602 392.5 77.3558 392.017C77.1143 391.534 76.7687 391.153 76.3189 390.874C75.8738 390.594 75.3482 390.455 74.7422 390.455C74.0746 390.455 73.4969 390.62 73.0092 390.952C72.5263 391.278 72.1546 391.705 71.8942 392.23C71.6338 392.756 71.5036 393.319 71.5036 393.92V394.886C71.5036 395.71 71.6456 396.409 71.9297 396.982C72.2185 397.55 72.6186 397.983 73.13 398.281C73.6413 398.575 74.2356 398.722 74.9126 398.722C75.353 398.722 75.7507 398.66 76.1058 398.537C76.4657 398.409 76.7758 398.22 77.0362 397.969C77.2966 397.713 77.4979 397.396 77.6399 397.017L79.2592 397.472C79.0888 398.021 78.8023 398.504 78.3999 398.92C77.9974 399.332 77.5002 399.654 76.9084 399.886C76.3165 400.114 75.6513 400.227 74.9126 400.227ZM73.8899 387.614L75.6229 384.318H77.5831L75.3672 387.614H73.8899ZM83.6555 393.438V400H81.9794V389.091H83.5987V390.795H83.7408C83.9964 390.241 84.3847 389.796 84.9055 389.46C85.4264 389.119 86.0987 388.949 86.9226 388.949C87.6612 388.949 88.3075 389.1 88.8615 389.403C89.4155 389.702 89.8464 390.156 90.1541 390.767C90.4619 391.373 90.6158 392.14 90.6158 393.068V400H88.9396V393.182C88.9396 392.325 88.7171 391.657 88.272 391.179C87.8269 390.696 87.2161 390.455 86.4396 390.455C85.9046 390.455 85.4264 390.571 85.005 390.803C84.5883 391.035 84.2592 391.373 84.0178 391.818C83.7763 392.263 83.6555 392.803 83.6555 393.438ZM98.1104 400.227C97.1256 400.227 96.2615 399.993 95.5181 399.524C94.7795 399.055 94.2018 398.4 93.7852 397.557C93.3732 396.714 93.1673 395.729 93.1673 394.602C93.1673 393.466 93.3732 392.474 93.7852 391.626C94.2018 390.779 94.7795 390.121 95.5181 389.652C96.2615 389.183 97.1256 388.949 98.1104 388.949C99.0953 388.949 99.957 389.183 100.696 389.652C101.439 390.121 102.017 390.779 102.429 391.626C102.845 392.474 103.054 393.466 103.054 394.602C103.054 395.729 102.845 396.714 102.429 397.557C102.017 398.4 101.439 399.055 100.696 399.524C99.957 399.993 99.0953 400.227 98.1104 400.227ZM98.1104 398.722C98.8585 398.722 99.4741 398.53 99.957 398.146C100.44 397.763 100.797 397.259 101.029 396.634C101.261 396.009 101.377 395.331 101.377 394.602C101.377 393.873 101.261 393.194 101.029 392.564C100.797 391.934 100.44 391.425 99.957 391.037C99.4741 390.649 98.8585 390.455 98.1104 390.455C97.3623 390.455 96.7468 390.649 96.2638 391.037C95.7809 391.425 95.4234 391.934 95.1914 392.564C94.9594 393.194 94.8434 393.873 94.8434 394.602C94.8434 395.331 94.9594 396.009 95.1914 396.634C95.4234 397.259 95.7809 397.763 96.2638 398.146C96.7468 398.53 97.3623 398.722 98.1104 398.722ZM105.612 400V389.091H107.232V390.795H107.374C107.601 390.213 107.968 389.761 108.474 389.439C108.981 389.112 109.589 388.949 110.3 388.949C111.019 388.949 111.618 389.112 112.097 389.439C112.58 389.761 112.956 390.213 113.226 390.795H113.339C113.619 390.232 114.038 389.785 114.597 389.453C115.155 389.117 115.825 388.949 116.607 388.949C117.582 388.949 118.38 389.254 119 389.865C119.62 390.471 119.93 391.416 119.93 392.699V400H118.254V392.699C118.254 391.894 118.034 391.319 117.594 390.973C117.153 390.627 116.635 390.455 116.038 390.455C115.271 390.455 114.677 390.687 114.256 391.151C113.834 391.61 113.624 392.192 113.624 392.898V400H111.919V392.528C111.919 391.908 111.718 391.409 111.315 391.03C110.913 390.646 110.394 390.455 109.76 390.455C109.324 390.455 108.917 390.571 108.538 390.803C108.164 391.035 107.861 391.357 107.629 391.768C107.402 392.176 107.288 392.647 107.288 393.182V400H105.612Z" fill="black"/>
<rect x="49" y="413" width="306" height="50" fill="#FFFCFC"/>
<rect x="46" y="309" width="309" height="49" fill="#FFFDFD"/>
<path d="M66.2955 478.455V493H64.5909L56.6648 481.58H56.5227V493H54.7614V478.455H56.4659L64.4205 489.903H64.5625V478.455H66.2955ZM76.4677 488.54V482.091H78.1438V493H76.4677V491.153H76.354C76.0984 491.707 75.7006 492.179 75.1609 492.567C74.6211 492.95 73.9393 493.142 73.1154 493.142C72.4336 493.142 71.8275 492.993 71.2972 492.695C70.7669 492.392 70.3503 491.937 70.0472 491.331C69.7442 490.72 69.5927 489.951 69.5927 489.023V482.091H71.2688V488.909C71.2688 489.705 71.4914 490.339 71.9364 490.812C72.3862 491.286 72.9592 491.523 73.6552 491.523C74.0719 491.523 74.4956 491.416 74.9265 491.203C75.3621 490.99 75.7267 490.663 76.0202 490.223C76.3185 489.783 76.4677 489.222 76.4677 488.54ZM81.2138 493V482.091H82.8331V483.795H82.9751C83.2024 483.213 83.5694 482.761 84.076 482.439C84.5826 482.112 85.1911 481.949 85.9013 481.949C86.621 481.949 87.2199 482.112 87.6982 482.439C88.1811 482.761 88.5575 483.213 88.8274 483.795H88.9411C89.2204 483.232 89.6394 482.785 90.1982 482.453C90.7569 482.117 91.4268 481.949 92.2081 481.949C93.1835 481.949 93.9813 482.254 94.6016 482.865C95.2218 483.471 95.532 484.416 95.532 485.699V493H93.8558V485.699C93.8558 484.894 93.6357 484.319 93.1953 483.973C92.755 483.627 92.2365 483.455 91.6399 483.455C90.8729 483.455 90.2786 483.687 89.8572 484.151C89.4358 484.61 89.2251 485.192 89.2251 485.898V493H87.5206V485.528C87.5206 484.908 87.3194 484.409 86.9169 484.03C86.5144 483.646 85.996 483.455 85.3615 483.455C84.9259 483.455 84.5187 483.571 84.1399 483.803C83.7659 484.035 83.4628 484.357 83.2308 484.768C83.0036 485.176 82.8899 485.647 82.8899 486.182V493H81.2138ZM103.17 493.227C102.119 493.227 101.213 492.995 100.45 492.531C99.6927 492.062 99.108 491.409 98.696 490.571C98.2888 489.728 98.0852 488.748 98.0852 487.631C98.0852 486.513 98.2888 485.528 98.696 484.676C99.108 483.819 99.6809 483.152 100.415 482.673C101.153 482.19 102.015 481.949 103 481.949C103.568 481.949 104.129 482.044 104.683 482.233C105.237 482.422 105.741 482.73 106.196 483.156C106.651 483.578 107.013 484.136 107.283 484.832C107.553 485.528 107.688 486.385 107.688 487.403V488.114H99.2784V486.665H105.983C105.983 486.049 105.86 485.5 105.614 485.017C105.372 484.534 105.027 484.153 104.577 483.874C104.132 483.594 103.606 483.455 103 483.455C102.332 483.455 101.755 483.62 101.267 483.952C100.784 484.278 100.412 484.705 100.152 485.23C99.8916 485.756 99.7614 486.319 99.7614 486.92V487.886C99.7614 488.71 99.9034 489.409 100.188 489.982C100.476 490.55 100.876 490.983 101.388 491.281C101.899 491.575 102.493 491.722 103.17 491.722C103.611 491.722 104.009 491.66 104.364 491.537C104.723 491.409 105.034 491.22 105.294 490.969C105.554 490.713 105.756 490.396 105.898 490.017L107.517 490.472C107.347 491.021 107.06 491.504 106.658 491.92C106.255 492.332 105.758 492.654 105.166 492.886C104.574 493.114 103.909 493.227 103.17 493.227ZM102.148 480.614L103.881 477.318H105.841L103.625 480.614H102.148ZM110.237 493V482.091H111.857V483.739H111.97C112.169 483.199 112.529 482.761 113.05 482.425C113.571 482.089 114.158 481.92 114.811 481.92C114.934 481.92 115.088 481.923 115.273 481.928C115.457 481.932 115.597 481.939 115.692 481.949V483.653C115.635 483.639 115.505 483.618 115.301 483.589C115.102 483.556 114.892 483.54 114.669 483.54C114.139 483.54 113.665 483.651 113.249 483.874C112.837 484.091 112.51 484.394 112.268 484.783C112.032 485.166 111.913 485.604 111.913 486.097V493H110.237ZM121.778 493.227C120.794 493.227 119.929 492.993 119.186 492.524C118.447 492.055 117.87 491.4 117.453 490.557C117.041 489.714 116.835 488.729 116.835 487.602C116.835 486.466 117.041 485.474 117.453 484.626C117.87 483.779 118.447 483.121 119.186 482.652C119.929 482.183 120.794 481.949 121.778 481.949C122.763 481.949 123.625 482.183 124.364 482.652C125.107 483.121 125.685 483.779 126.097 484.626C126.513 485.474 126.722 486.466 126.722 487.602C126.722 488.729 126.513 489.714 126.097 490.557C125.685 491.4 125.107 492.055 124.364 492.524C123.625 492.993 122.763 493.227 121.778 493.227ZM121.778 491.722C122.527 491.722 123.142 491.53 123.625 491.146C124.108 490.763 124.465 490.259 124.697 489.634C124.929 489.009 125.045 488.331 125.045 487.602C125.045 486.873 124.929 486.194 124.697 485.564C124.465 484.934 124.108 484.425 123.625 484.037C123.142 483.649 122.527 483.455 121.778 483.455C121.03 483.455 120.415 483.649 119.932 484.037C119.449 484.425 119.091 484.934 118.859 485.564C118.627 486.194 118.511 486.873 118.511 487.602C118.511 488.331 118.627 489.009 118.859 489.634C119.091 490.259 119.449 490.763 119.932 491.146C120.415 491.53 121.03 491.722 121.778 491.722Z" fill="black"/>
<rect x="49" y="506" width="296" height="43" fill="#FFF6F6"/>
<rect x="56" y="592" width="291" height="48" fill="#FCF4F4"/>
<path d="M57.7614 655.455H59.8636L64.8068 667.528H64.9773L69.9205 655.455H72.0227V670H70.375V658.949H70.233L65.6875 670H64.0966L59.5511 658.949H59.4091V670H57.7614V655.455ZM79.7589 670.227C78.774 670.227 77.9099 669.993 77.1665 669.524C76.4279 669.055 75.8503 668.4 75.4336 667.557C75.0217 666.714 74.8157 665.729 74.8157 664.602C74.8157 663.466 75.0217 662.474 75.4336 661.626C75.8503 660.779 76.4279 660.121 77.1665 659.652C77.9099 659.183 78.774 658.949 79.7589 658.949C80.7437 658.949 81.6055 659.183 82.3441 659.652C83.0875 660.121 83.6651 660.779 84.0771 661.626C84.4937 662.474 84.7021 663.466 84.7021 664.602C84.7021 665.729 84.4937 666.714 84.0771 667.557C83.6651 668.4 83.0875 669.055 82.3441 669.524C81.6055 669.993 80.7437 670.227 79.7589 670.227ZM79.7589 668.722C80.507 668.722 81.1225 668.53 81.6055 668.146C82.0884 667.763 82.4459 667.259 82.6779 666.634C82.9099 666.009 83.0259 665.331 83.0259 664.602C83.0259 663.873 82.9099 663.194 82.6779 662.564C82.4459 661.934 82.0884 661.425 81.6055 661.037C81.1225 660.649 80.507 660.455 79.7589 660.455C79.0108 660.455 78.3952 660.649 77.9123 661.037C77.4293 661.425 77.0719 661.934 76.8398 662.564C76.6078 663.194 76.4918 663.873 76.4918 664.602C76.4918 665.331 76.6078 666.009 76.8398 666.634C77.0719 667.259 77.4293 667.763 77.9123 668.146C78.3952 668.53 79.0108 668.722 79.7589 668.722ZM92.005 659.091V660.511H86.3516V659.091H92.005ZM87.9993 656.477H89.6754V666.875C89.6754 667.348 89.7441 667.704 89.8814 667.94C90.0234 668.172 90.2034 668.329 90.4212 668.409C90.6437 668.485 90.8781 668.523 91.1243 668.523C91.3089 668.523 91.4605 668.513 91.5788 668.494C91.6972 668.471 91.7919 668.452 91.8629 668.438L92.2038 669.943C92.0902 669.986 91.9316 670.028 91.728 670.071C91.5244 670.118 91.2663 670.142 90.9538 670.142C90.4804 670.142 90.0163 670.04 89.5618 669.837C89.112 669.633 88.7379 669.323 88.4396 668.906C88.1461 668.49 87.9993 667.964 87.9993 667.33V656.477ZM104.271 670.227C103.362 670.227 102.559 669.998 101.863 669.538C101.167 669.074 100.622 668.421 100.229 667.578C99.8364 666.731 99.6399 665.729 99.6399 664.574C99.6399 663.428 99.8364 662.434 100.229 661.591C100.622 660.748 101.169 660.097 101.87 659.638C102.571 659.179 103.38 658.949 104.299 658.949C105.009 658.949 105.57 659.067 105.982 659.304C106.399 659.536 106.716 659.801 106.934 660.099C107.156 660.393 107.329 660.634 107.452 660.824H107.594V655.455H109.271V670H107.651V668.324H107.452C107.329 668.523 107.154 668.774 106.927 669.077C106.7 669.375 106.375 669.643 105.954 669.879C105.532 670.111 104.971 670.227 104.271 670.227ZM104.498 668.722C105.17 668.722 105.738 668.546 106.202 668.196C106.666 667.841 107.019 667.351 107.261 666.726C107.502 666.096 107.623 665.369 107.623 664.545C107.623 663.731 107.504 663.018 107.268 662.408C107.031 661.792 106.681 661.314 106.217 660.973C105.753 660.627 105.18 660.455 104.498 660.455C103.788 660.455 103.196 660.637 102.722 661.001C102.254 661.361 101.901 661.851 101.664 662.472C101.432 663.087 101.316 663.778 101.316 664.545C101.316 665.322 101.434 666.027 101.671 666.662C101.913 667.292 102.268 667.794 102.737 668.168C103.21 668.537 103.797 668.722 104.498 668.722ZM117.147 670.227C116.096 670.227 115.189 669.995 114.427 669.531C113.669 669.062 113.085 668.409 112.673 667.571C112.265 666.728 112.062 665.748 112.062 664.631C112.062 663.513 112.265 662.528 112.673 661.676C113.085 660.819 113.657 660.152 114.391 659.673C115.13 659.19 115.992 658.949 116.977 658.949C117.545 658.949 118.106 659.044 118.66 659.233C119.214 659.422 119.718 659.73 120.173 660.156C120.627 660.578 120.989 661.136 121.259 661.832C121.529 662.528 121.664 663.385 121.664 664.403V665.114H113.255V663.665H119.96C119.96 663.049 119.836 662.5 119.59 662.017C119.349 661.534 119.003 661.153 118.553 660.874C118.108 660.594 117.583 660.455 116.977 660.455C116.309 660.455 115.731 660.62 115.244 660.952C114.761 661.278 114.389 661.705 114.129 662.23C113.868 662.756 113.738 663.319 113.738 663.92V664.886C113.738 665.71 113.88 666.409 114.164 666.982C114.453 667.55 114.853 667.983 115.364 668.281C115.876 668.575 116.47 668.722 117.147 668.722C117.587 668.722 117.985 668.66 118.34 668.537C118.7 668.409 119.01 668.22 119.271 667.969C119.531 667.713 119.732 667.396 119.874 667.017L121.494 667.472C121.323 668.021 121.037 668.504 120.634 668.92C120.232 669.332 119.735 669.654 119.143 669.886C118.551 670.114 117.886 670.227 117.147 670.227ZM129.839 674.091V659.091H131.458V660.824H131.657C131.78 660.634 131.951 660.393 132.168 660.099C132.391 659.801 132.708 659.536 133.12 659.304C133.537 659.067 134.1 658.949 134.81 658.949C135.729 658.949 136.539 659.179 137.239 659.638C137.94 660.097 138.487 660.748 138.88 661.591C139.273 662.434 139.469 663.428 139.469 664.574C139.469 665.729 139.273 666.731 138.88 667.578C138.487 668.421 137.942 669.074 137.246 669.538C136.55 669.998 135.748 670.227 134.839 670.227C134.138 670.227 133.577 670.111 133.156 669.879C132.734 669.643 132.41 669.375 132.183 669.077C131.955 668.774 131.78 668.523 131.657 668.324H131.515V674.091H129.839ZM131.487 664.545C131.487 665.369 131.607 666.096 131.849 666.726C132.09 667.351 132.443 667.841 132.907 668.196C133.371 668.546 133.939 668.722 134.612 668.722C135.312 668.722 135.897 668.537 136.366 668.168C136.839 667.794 137.194 667.292 137.431 666.662C137.673 666.027 137.793 665.322 137.793 664.545C137.793 663.778 137.675 663.087 137.438 662.472C137.206 661.851 136.853 661.361 136.38 661.001C135.911 660.637 135.322 660.455 134.612 660.455C133.93 660.455 133.357 660.627 132.893 660.973C132.429 661.314 132.078 661.792 131.842 662.408C131.605 663.018 131.487 663.731 131.487 664.545ZM145.237 670.256C144.545 670.256 143.918 670.125 143.354 669.865C142.791 669.6 142.344 669.219 142.012 668.722C141.681 668.22 141.515 667.614 141.515 666.903C141.515 666.278 141.638 665.772 141.884 665.384C142.13 664.991 142.46 664.683 142.871 664.46C143.283 664.238 143.738 664.072 144.235 663.963C144.737 663.849 145.241 663.759 145.748 663.693C146.411 663.608 146.948 663.544 147.36 663.501C147.777 663.454 148.08 663.376 148.269 663.267C148.463 663.158 148.56 662.969 148.56 662.699V662.642C148.56 661.941 148.369 661.397 147.985 661.009C147.606 660.62 147.031 660.426 146.259 660.426C145.459 660.426 144.832 660.601 144.377 660.952C143.923 661.302 143.603 661.676 143.418 662.074L141.827 661.506C142.112 660.843 142.49 660.327 142.964 659.957C143.442 659.583 143.963 659.323 144.526 659.176C145.094 659.025 145.653 658.949 146.202 658.949C146.553 658.949 146.955 658.991 147.41 659.077C147.869 659.157 148.312 659.325 148.738 659.581C149.169 659.837 149.526 660.223 149.81 660.739C150.094 661.255 150.237 661.946 150.237 662.812V670H148.56V668.523H148.475C148.362 668.759 148.172 669.013 147.907 669.283C147.642 669.553 147.289 669.782 146.849 669.972C146.408 670.161 145.871 670.256 145.237 670.256ZM145.492 668.75C146.155 668.75 146.714 668.62 147.168 668.359C147.628 668.099 147.973 667.763 148.205 667.351C148.442 666.939 148.56 666.506 148.56 666.051V664.517C148.489 664.602 148.333 664.68 148.092 664.751C147.855 664.818 147.58 664.877 147.268 664.929C146.96 664.976 146.659 665.019 146.366 665.057C146.077 665.09 145.843 665.118 145.663 665.142C145.227 665.199 144.82 665.291 144.441 665.419C144.067 665.542 143.764 665.729 143.532 665.98C143.305 666.226 143.191 666.562 143.191 666.989C143.191 667.571 143.406 668.011 143.837 668.31C144.273 668.603 144.825 668.75 145.492 668.75ZM161.023 661.534L159.517 661.96C159.423 661.709 159.283 661.465 159.098 661.229C158.918 660.987 158.672 660.788 158.36 660.632C158.047 660.476 157.647 660.398 157.159 660.398C156.492 660.398 155.935 660.552 155.49 660.859C155.05 661.162 154.83 661.548 154.83 662.017C154.83 662.434 154.981 662.763 155.284 663.004C155.587 663.246 156.061 663.447 156.705 663.608L158.324 664.006C159.3 664.242 160.026 664.605 160.505 665.092C160.983 665.575 161.222 666.198 161.222 666.96C161.222 667.585 161.042 668.144 160.682 668.636C160.327 669.129 159.83 669.517 159.191 669.801C158.551 670.085 157.808 670.227 156.961 670.227C155.848 670.227 154.927 669.986 154.198 669.503C153.469 669.02 153.007 668.314 152.813 667.386L154.404 666.989C154.555 667.576 154.842 668.016 155.263 668.31C155.689 668.603 156.246 668.75 156.932 668.75C157.713 668.75 158.334 668.584 158.793 668.253C159.257 667.917 159.489 667.514 159.489 667.045C159.489 666.667 159.356 666.349 159.091 666.094C158.826 665.833 158.419 665.639 157.87 665.511L156.051 665.085C155.052 664.848 154.319 664.482 153.85 663.984C153.386 663.482 153.154 662.855 153.154 662.102C153.154 661.487 153.327 660.942 153.672 660.469C154.023 659.995 154.498 659.624 155.1 659.354C155.706 659.084 156.392 658.949 157.159 658.949C158.239 658.949 159.087 659.186 159.702 659.659C160.322 660.133 160.763 660.758 161.023 661.534ZM171.472 661.534L169.967 661.96C169.872 661.709 169.732 661.465 169.548 661.229C169.368 660.987 169.121 660.788 168.809 660.632C168.496 660.476 168.096 660.398 167.609 660.398C166.941 660.398 166.385 660.552 165.94 660.859C165.499 661.162 165.279 661.548 165.279 662.017C165.279 662.434 165.431 662.763 165.734 663.004C166.037 663.246 166.51 663.447 167.154 663.608L168.773 664.006C169.749 664.242 170.476 664.605 170.954 665.092C171.432 665.575 171.671 666.198 171.671 666.96C171.671 667.585 171.491 668.144 171.131 668.636C170.776 669.129 170.279 669.517 169.64 669.801C169.001 670.085 168.257 670.227 167.41 670.227C166.297 670.227 165.376 669.986 164.647 669.503C163.918 669.02 163.456 668.314 163.262 667.386L164.853 666.989C165.004 667.576 165.291 668.016 165.712 668.31C166.138 668.603 166.695 668.75 167.381 668.75C168.163 668.75 168.783 668.584 169.242 668.253C169.706 667.917 169.938 667.514 169.938 667.045C169.938 666.667 169.806 666.349 169.54 666.094C169.275 665.833 168.868 665.639 168.319 665.511L166.501 665.085C165.502 664.848 164.768 664.482 164.299 663.984C163.835 663.482 163.603 662.855 163.603 662.102C163.603 661.487 163.776 660.942 164.121 660.469C164.472 659.995 164.948 659.624 165.549 659.354C166.155 659.084 166.842 658.949 167.609 658.949C168.688 658.949 169.536 659.186 170.151 659.659C170.772 660.133 171.212 660.758 171.472 661.534ZM178.768 670.227C177.717 670.227 176.81 669.995 176.048 669.531C175.29 669.062 174.706 668.409 174.294 667.571C173.886 666.728 173.683 665.748 173.683 664.631C173.683 663.513 173.886 662.528 174.294 661.676C174.706 660.819 175.279 660.152 176.012 659.673C176.751 659.19 177.613 658.949 178.598 658.949C179.166 658.949 179.727 659.044 180.281 659.233C180.835 659.422 181.339 659.73 181.794 660.156C182.248 660.578 182.61 661.136 182.88 661.832C183.15 662.528 183.285 663.385 183.285 664.403V665.114H174.876V663.665H181.581C181.581 663.049 181.458 662.5 181.211 662.017C180.97 661.534 180.624 661.153 180.174 660.874C179.729 660.594 179.204 660.455 178.598 660.455C177.93 660.455 177.352 660.62 176.865 660.952C176.382 661.278 176.01 661.705 175.75 662.23C175.489 662.756 175.359 663.319 175.359 663.92V664.886C175.359 665.71 175.501 666.409 175.785 666.982C176.074 667.55 176.474 667.983 176.985 668.281C177.497 668.575 178.091 668.722 178.768 668.722C179.208 668.722 179.606 668.66 179.961 668.537C180.321 668.409 180.631 668.22 180.892 667.969C181.152 667.713 181.353 667.396 181.495 667.017L183.115 667.472C182.944 668.021 182.658 668.504 182.255 668.92C181.853 669.332 181.356 669.654 180.764 669.886C180.172 670.114 179.507 670.227 178.768 670.227Z" fill="black"/>
<rect x="61" y="683" width="280" height="41" fill="#FDF6F6"/>
<rect x="65" y="755" width="282" height="42" fill="#5243FF"/>
<path d="M157.716 775.091C157.631 774.371 157.285 773.812 156.679 773.415C156.073 773.017 155.33 772.818 154.449 772.818C153.805 772.818 153.241 772.922 152.759 773.131C152.28 773.339 151.906 773.625 151.636 773.99C151.371 774.355 151.239 774.769 151.239 775.233C151.239 775.621 151.331 775.955 151.516 776.234C151.705 776.509 151.946 776.739 152.24 776.923C152.534 777.103 152.841 777.252 153.163 777.371C153.485 777.484 153.781 777.577 154.051 777.648L155.528 778.045C155.907 778.145 156.329 778.282 156.793 778.457C157.261 778.633 157.709 778.872 158.135 779.175C158.566 779.473 158.921 779.857 159.2 780.325C159.48 780.794 159.619 781.369 159.619 782.051C159.619 782.837 159.413 783.547 159.001 784.182C158.594 784.816 157.998 785.321 157.212 785.695C156.43 786.069 155.481 786.256 154.364 786.256C153.322 786.256 152.42 786.088 151.658 785.751C150.9 785.415 150.304 784.946 149.868 784.345C149.437 783.744 149.193 783.045 149.136 782.25H150.955C151.002 782.799 151.187 783.254 151.509 783.614C151.835 783.969 152.247 784.234 152.744 784.409C153.246 784.58 153.786 784.665 154.364 784.665C155.036 784.665 155.64 784.556 156.175 784.338C156.71 784.116 157.134 783.808 157.446 783.415C157.759 783.017 157.915 782.553 157.915 782.023C157.915 781.54 157.78 781.147 157.51 780.844C157.24 780.541 156.885 780.295 156.445 780.105C156.004 779.916 155.528 779.75 155.017 779.608L153.227 779.097C152.091 778.77 151.191 778.304 150.528 777.697C149.866 777.091 149.534 776.298 149.534 775.318C149.534 774.504 149.754 773.794 150.195 773.188C150.64 772.577 151.236 772.103 151.984 771.767C152.737 771.426 153.578 771.256 154.506 771.256C155.443 771.256 156.277 771.424 157.006 771.76C157.735 772.091 158.313 772.546 158.739 773.124C159.17 773.701 159.397 774.357 159.42 775.091H157.716ZM163.765 771.455V772.733C163.765 773.121 163.694 773.536 163.552 773.976C163.415 774.411 163.211 774.835 162.941 775.247C162.676 775.654 162.354 776.009 161.975 776.312L161.066 775.574C161.365 775.148 161.623 774.705 161.841 774.246C162.063 773.782 162.174 773.287 162.174 772.761V771.455H163.765ZM167.968 771.455V786H166.207V771.455H167.968ZM183.034 771.455V786H181.329L173.403 774.58H173.261V786H171.5V771.455H173.204L181.159 782.903H181.301V771.455H183.034ZM194.513 775.091C194.428 774.371 194.082 773.812 193.476 773.415C192.87 773.017 192.126 772.818 191.246 772.818C190.602 772.818 190.038 772.922 189.555 773.131C189.077 773.339 188.703 773.625 188.433 773.99C188.168 774.355 188.036 774.769 188.036 775.233C188.036 775.621 188.128 775.955 188.312 776.234C188.502 776.509 188.743 776.739 189.037 776.923C189.33 777.103 189.638 777.252 189.96 777.371C190.282 777.484 190.578 777.577 190.848 777.648L192.325 778.045C192.704 778.145 193.125 778.282 193.589 778.457C194.058 778.633 194.506 778.872 194.932 779.175C195.363 779.473 195.718 779.857 195.997 780.325C196.277 780.794 196.416 781.369 196.416 782.051C196.416 782.837 196.21 783.547 195.798 784.182C195.391 784.816 194.795 785.321 194.009 785.695C193.227 786.069 192.278 786.256 191.161 786.256C190.119 786.256 189.217 786.088 188.455 785.751C187.697 785.415 187.1 784.946 186.665 784.345C186.234 783.744 185.99 783.045 185.933 782.25H187.751C187.799 782.799 187.983 783.254 188.305 783.614C188.632 783.969 189.044 784.234 189.541 784.409C190.043 784.58 190.583 784.665 191.161 784.665C191.833 784.665 192.437 784.556 192.972 784.338C193.507 784.116 193.93 783.808 194.243 783.415C194.555 783.017 194.712 782.553 194.712 782.023C194.712 781.54 194.577 781.147 194.307 780.844C194.037 780.541 193.682 780.295 193.241 780.105C192.801 779.916 192.325 779.75 191.814 779.608L190.024 779.097C188.888 778.77 187.988 778.304 187.325 777.697C186.662 777.091 186.331 776.298 186.331 775.318C186.331 774.504 186.551 773.794 186.991 773.188C187.437 772.577 188.033 772.103 188.781 771.767C189.534 771.426 190.375 771.256 191.303 771.256C192.24 771.256 193.073 771.424 193.803 771.76C194.532 772.091 195.109 772.546 195.536 773.124C195.966 773.701 196.194 774.357 196.217 775.091H194.513ZM211.017 776H209.255C209.151 775.493 208.969 775.048 208.708 774.665C208.453 774.281 208.14 773.959 207.771 773.699C207.406 773.434 207.002 773.235 206.556 773.102C206.111 772.97 205.647 772.903 205.164 772.903C204.284 772.903 203.486 773.126 202.771 773.571C202.061 774.016 201.495 774.672 201.074 775.538C200.657 776.405 200.449 777.468 200.449 778.727C200.449 779.987 200.657 781.05 201.074 781.916C201.495 782.783 202.061 783.438 202.771 783.884C203.486 784.329 204.284 784.551 205.164 784.551C205.647 784.551 206.111 784.485 206.556 784.352C207.002 784.22 207.406 784.023 207.771 783.763C208.14 783.498 208.453 783.173 208.708 782.79C208.969 782.402 209.151 781.956 209.255 781.455H211.017C210.884 782.198 210.643 782.863 210.292 783.45C209.942 784.037 209.506 784.537 208.985 784.949C208.465 785.356 207.88 785.666 207.231 785.879C206.587 786.092 205.898 786.199 205.164 786.199C203.924 786.199 202.821 785.896 201.855 785.29C200.889 784.684 200.129 783.822 199.575 782.705C199.021 781.587 198.744 780.261 198.744 778.727C198.744 777.193 199.021 775.867 199.575 774.75C200.129 773.633 200.889 772.771 201.855 772.165C202.821 771.559 203.924 771.256 205.164 771.256C205.898 771.256 206.587 771.362 207.231 771.575C207.88 771.788 208.465 772.101 208.985 772.513C209.506 772.92 209.942 773.417 210.292 774.004C210.643 774.587 210.884 775.252 211.017 776ZM213.863 786V771.455H218.778C219.914 771.455 220.847 771.649 221.576 772.037C222.305 772.42 222.845 772.948 223.195 773.621C223.546 774.293 223.721 775.058 223.721 775.915C223.721 776.772 223.546 777.532 223.195 778.195C222.845 778.857 222.308 779.378 221.583 779.757C220.859 780.131 219.933 780.318 218.806 780.318H214.829V778.727H218.749C219.526 778.727 220.151 778.614 220.624 778.386C221.103 778.159 221.448 777.837 221.661 777.42C221.879 776.999 221.988 776.497 221.988 775.915C221.988 775.332 221.879 774.823 221.661 774.388C221.443 773.952 221.095 773.616 220.617 773.379C220.139 773.138 219.507 773.017 218.721 773.017H215.624V786H213.863ZM220.71 779.466L224.289 786H222.244L218.721 779.466H220.71ZM228.417 771.455V786H226.656V771.455H228.417ZM231.949 786V771.455H236.864C238 771.455 238.933 771.649 239.662 772.037C240.391 772.42 240.931 772.948 241.281 773.621C241.632 774.293 241.807 775.058 241.807 775.915C241.807 776.772 241.632 777.532 241.281 778.195C240.931 778.857 240.393 779.378 239.669 779.757C238.945 780.131 238.019 780.318 236.892 780.318H232.915V778.727H236.835C237.612 778.727 238.237 778.614 238.71 778.386C239.188 778.159 239.534 777.837 239.747 777.42C239.965 776.999 240.074 776.497 240.074 775.915C240.074 775.332 239.965 774.823 239.747 774.388C239.529 773.952 239.181 773.616 238.703 773.379C238.225 773.138 237.593 773.017 236.807 773.017H233.71V786H231.949ZM238.795 779.466L242.375 786H240.33L236.807 779.466H238.795ZM244.742 786V771.455H253.52V773.017H246.503V777.932H253.066V779.494H246.503V784.438H253.634V786H244.742Z" fill="white"/>
</svg>
